{"glyphs":{"0":{"ha":723,"x_min":58,"x_max":666,"o":"m 362 -12 q 229 27 285 -12 q 134 129 172 65 q 77 272 95 193 q 58 434 58 352 q 77 596 58 516 q 134 739 95 675 q 229 842 172 803 q 362 880 285 880 q 495 842 438 880 q 590 739 552 803 q 647 596 628 675 q 666 434 666 516 q 647 272 666 352 q 590 129 628 193 q 495 27 552 65 q 362 -12 438 -12 m 362 87 q 449 118 413 87 q 509 200 486 149 q 544 312 532 251 q 556 434 556 373 q 544 556 556 495 q 509 668 532 617 q 449 750 486 720 q 362 781 413 781 q 274 750 312 781 q 214 668 237 720 q 179 556 191 617 q 168 434 168 495 q 179 312 168 373 q 214 200 191 251 q 274 118 237 149 q 362 87 312 87 z "},"1":{"ha":723,"x_min":156,"x_max":625,"o":"m 156 0 l 156 87 l 357 87 l 357 731 l 156 629 l 156 733 l 461 887 l 463 887 l 463 87 l 625 87 l 625 0 l 156 0 z "},"2":{"ha":723,"x_min":97,"x_max":626,"o":"m 115 0 l 115 2 l 463 518 q 497 582 488 555 q 505 632 505 609 q 485 707 505 673 q 430 761 465 741 q 353 781 395 781 q 276 761 311 781 q 222 707 242 741 q 202 632 202 673 q 216 569 202 599 q 260 515 231 539 l 128 515 q 97 632 97 574 q 118 729 97 684 q 173 808 138 774 q 255 861 208 842 q 354 880 301 880 q 452 861 406 880 q 534 808 499 842 q 589 729 569 774 q 610 632 610 684 q 604 578 610 605 q 584 523 598 551 q 549 462 571 495 l 298 98 l 626 98 l 626 0 l 115 0 z "},"3":{"ha":723,"x_min":69,"x_max":631,"o":"m 330 -12 q 178 27 247 -12 q 69 133 109 66 l 133 259 q 168 171 140 210 q 238 109 196 132 q 330 87 280 87 q 430 113 385 87 q 501 184 475 140 q 527 284 527 229 q 500 382 527 338 q 429 454 474 427 q 330 480 385 480 q 280 474 303 480 q 238 457 257 468 l 237 458 l 401 775 l 133 775 l 133 868 l 561 868 l 561 866 l 398 564 q 489 530 447 555 q 563 468 531 505 q 613 384 595 431 q 631 284 631 338 q 607 168 631 222 q 543 74 584 114 q 447 11 502 34 q 330 -12 393 -12 z "},"4":{"ha":723,"x_min":23,"x_max":671,"o":"m 440 0 l 440 233 l 23 233 l 23 235 l 348 868 l 464 868 l 182 326 l 443 326 l 443 521 l 541 573 l 541 326 l 671 326 l 671 233 l 544 233 l 544 0 l 440 0 z "},"5":{"ha":723,"x_min":69,"x_max":631,"o":"m 330 -12 q 178 27 247 -12 q 69 133 109 66 l 133 259 q 168 171 140 210 q 238 109 196 132 q 330 87 280 87 q 429 113 384 87 q 500 184 474 140 q 527 283 527 229 q 500 381 527 337 q 428 452 473 425 q 327 478 383 478 q 237 457 279 478 q 170 398 195 435 l 168 398 l 168 868 l 559 868 l 559 770 l 262 770 l 262 556 q 302 568 282 564 q 342 571 323 571 q 453 549 401 571 q 545 489 505 528 q 608 397 585 449 q 631 283 631 344 q 607 167 631 221 q 542 73 584 114 q 445 11 500 33 q 330 -12 391 -12 z "},"6":{"ha":723,"x_min":64,"x_max":671,"o":"m 367 -12 q 249 11 304 -12 q 152 73 194 33 q 87 167 110 114 q 64 283 64 221 q 73 356 64 320 q 99 424 83 393 l 332 868 l 451 868 l 272 537 q 327 566 299 558 q 384 573 355 573 q 495 551 444 573 q 587 490 547 530 q 649 399 627 451 q 671 284 671 346 q 648 167 671 221 q 583 73 625 114 q 486 11 541 33 q 367 -12 431 -12 m 368 87 q 469 113 424 87 q 541 185 514 140 q 567 285 567 230 q 541 383 567 339 q 469 455 514 428 q 368 482 424 482 q 268 455 313 482 q 196 383 223 428 q 170 285 170 339 q 196 185 170 230 q 268 113 223 140 q 368 87 313 87 z "},"7":{"ha":723,"x_min":93,"x_max":670,"o":"m 123 0 l 507 770 l 93 770 l 93 868 l 670 868 l 670 866 l 241 0 l 123 0 z "},"8":{"ha":723,"x_min":61,"x_max":663,"o":"m 362 -12 q 245 11 300 -12 q 149 73 191 33 q 84 167 108 114 q 61 283 61 221 q 81 389 61 340 q 137 477 101 439 q 219 540 173 516 q 175 602 191 567 q 158 680 158 637 q 174 759 158 722 q 218 822 190 795 q 283 865 246 850 q 362 880 320 880 q 441 865 404 880 q 505 822 477 850 q 549 759 533 795 q 565 680 565 722 q 549 601 565 637 q 504 540 532 566 q 587 477 552 516 q 642 389 622 439 q 663 283 663 340 q 639 167 663 221 q 574 73 615 114 q 478 11 532 33 q 362 -12 423 -12 m 362 87 q 462 113 417 87 q 532 184 506 140 q 558 284 558 229 q 532 383 558 339 q 462 454 506 428 q 362 480 417 480 q 262 454 307 480 q 191 383 218 428 q 165 284 165 339 q 191 184 165 229 q 262 113 218 140 q 362 87 307 87 m 362 565 q 418 580 393 565 q 458 620 443 595 q 473 676 473 645 q 458 732 473 707 q 418 772 443 757 q 362 787 393 787 q 306 772 331 787 q 266 732 281 757 q 251 676 251 707 q 266 620 251 645 q 306 580 281 595 q 362 565 331 565 z "},"9":{"ha":723,"x_min":64,"x_max":654,"o":"m 266 0 l 452 342 q 398 316 426 323 q 342 309 370 309 q 236 330 286 309 q 147 389 185 351 q 86 479 108 427 q 64 591 64 530 q 87 705 64 652 q 150 797 110 757 q 245 858 191 836 q 359 880 298 880 q 473 858 420 880 q 567 797 527 836 q 631 705 608 757 q 654 591 654 652 q 645 519 654 554 q 619 452 636 484 l 386 0 l 266 0 m 359 399 q 455 425 412 399 q 524 494 499 450 q 550 590 550 537 q 524 687 550 643 q 455 756 499 730 q 359 781 412 781 q 262 756 306 781 q 193 687 219 730 q 168 590 168 643 q 193 494 168 537 q 262 425 219 450 q 359 399 306 399 z "},"\r":{"ha":772,"x_min":0,"x_max":0,"o":""}," ":{"ha":1389,"x_min":0,"x_max":0,"o":""}," ":{"ha":694,"x_min":0,"x_max":0,"o":""}," ":{"ha":723,"x_min":0,"x_max":0,"o":""}," ":{"ha":347,"x_min":0,"x_max":0,"o":""}," ":{"ha":58,"x_min":0,"x_max":0,"o":""}," ":{"ha":260,"x_min":0,"x_max":0,"o":""}," ":{"ha":231,"x_min":0,"x_max":0,"o":""}," ":{"ha":289,"x_min":0,"x_max":0,"o":""}," ":{"ha":289,"x_min":0,"x_max":0,"o":""}," ":{"ha":116,"x_min":0,"x_max":0,"o":""}," ":{"ha":463,"x_min":0,"x_max":0,"o":""},"A":{"ha":772,"x_min":17,"x_max":754,"o":"m 17 0 l 385 897 l 387 897 l 754 0 l 638 0 l 535 257 l 231 257 l 128 0 l 17 0 m 268 349 l 499 349 l 430 521 q 406 585 418 554 q 383 662 394 617 q 361 586 371 617 q 337 521 350 555 l 268 349 z "},"Á":{"ha":772,"x_min":17,"x_max":754,"o":"m 17 0 l 385 897 l 387 897 l 754 0 l 638 0 l 535 257 l 231 257 l 128 0 l 17 0 m 268 349 l 499 349 l 430 521 q 406 585 418 554 q 383 662 394 617 q 361 586 371 617 q 337 521 350 555 l 268 349 m 334 955 l 473 1128 l 611 1128 l 438 955 l 334 955 z "},"Ă":{"ha":772,"x_min":17,"x_max":754,"o":"m 17 0 l 385 897 l 387 897 l 754 0 l 638 0 l 535 257 l 231 257 l 128 0 l 17 0 m 268 349 l 499 349 l 430 521 q 406 585 418 554 q 383 662 394 617 q 361 586 371 617 q 337 521 350 555 l 268 349 m 386 940 q 298 963 338 940 q 235 1023 258 985 q 212 1108 212 1061 l 297 1108 q 324 1046 297 1072 q 386 1019 350 1019 q 448 1046 421 1019 q 475 1108 475 1072 l 559 1108 q 536 1022 559 1060 q 474 962 513 984 q 386 940 435 940 z "},"Ắ":{"ha":772,"x_min":17,"x_max":754,"o":"m 17 0 l 385 897 l 387 897 l 754 0 l 638 0 l 535 257 l 231 257 l 128 0 l 17 0 m 268 349 l 499 349 l 430 521 q 406 585 418 554 q 383 662 394 617 q 361 586 371 617 q 337 521 350 555 l 268 349 m 386 940 q 298 963 338 940 q 235 1023 258 985 q 212 1108 212 1061 l 293 1108 q 321 1043 293 1070 q 386 1016 349 1016 q 450 1043 422 1016 q 478 1108 478 1070 l 559 1108 q 536 1022 559 1060 q 474 962 513 984 q 386 940 435 940 m 334 1137 l 407 1282 l 515 1282 l 415 1137 l 334 1137 z "},"Ặ":{"ha":772,"x_min":17,"x_max":754,"o":"m 17 0 l 385 897 l 387 897 l 754 0 l 638 0 l 535 257 l 231 257 l 128 0 l 17 0 m 268 349 l 499 349 l 430 521 q 406 585 418 554 q 383 662 394 617 q 361 586 371 617 q 337 521 350 555 l 268 349 m 386 -243 q 351 -234 367 -243 q 326 -209 335 -225 q 316 -174 316 -193 q 326 -138 316 -153 q 351 -113 335 -122 q 386 -104 367 -104 q 421 -113 406 -104 q 446 -138 437 -122 q 455 -174 455 -153 q 446 -209 455 -193 q 421 -234 437 -225 q 386 -243 406 -243 m 386 940 q 298 963 338 940 q 235 1023 258 985 q 212 1108 212 1061 l 297 1108 q 324 1046 297 1072 q 386 1019 350 1019 q 448 1046 421 1019 q 475 1108 475 1072 l 559 1108 q 536 1022 559 1060 q 474 962 513 984 q 386 940 435 940 z "},"Ằ":{"ha":772,"x_min":17,"x_max":754,"o":"m 17 0 l 385 897 l 387 897 l 754 0 l 638 0 l 535 257 l 231 257 l 128 0 l 17 0 m 268 349 l 499 349 l 430 521 q 406 585 418 554 q 383 662 394 617 q 361 586 371 617 q 337 521 350 555 l 268 349 m 386 940 q 298 962 338 940 q 235 1022 258 984 q 212 1108 212 1060 l 293 1108 q 321 1043 293 1070 q 386 1016 349 1016 q 450 1043 422 1016 q 478 1108 478 1070 l 559 1108 q 536 1023 559 1061 q 474 963 513 985 q 386 940 434 940 m 357 1137 l 257 1282 l 365 1282 l 438 1137 l 357 1137 z "},"Ẳ":{"ha":772,"x_min":17,"x_max":754,"o":"m 17 0 l 385 897 l 387 897 l 754 0 l 638 0 l 535 257 l 231 257 l 128 0 l 17 0 m 268 349 l 499 349 l 430 521 q 406 585 418 554 q 383 662 394 617 q 361 586 371 617 q 337 521 350 555 l 268 349 m 386 940 q 298 962 338 940 q 235 1022 258 984 q 212 1108 212 1060 l 293 1108 q 321 1043 293 1070 q 386 1016 349 1016 q 450 1043 422 1016 q 478 1108 478 1070 l 559 1108 q 536 1023 559 1061 q 474 963 513 985 q 386 940 434 940 m 345 1137 q 379 1176 367 1158 q 392 1208 392 1193 q 379 1238 392 1226 q 345 1250 367 1250 q 311 1240 327 1250 q 285 1218 295 1231 l 266 1291 q 310 1313 285 1306 q 357 1319 334 1319 q 438 1292 404 1319 q 473 1218 473 1265 q 461 1174 473 1194 q 432 1137 448 1154 l 345 1137 z "},"Ẵ":{"ha":772,"x_min":17,"x_max":754,"o":"m 17 0 l 385 897 l 387 897 l 754 0 l 638 0 l 535 257 l 231 257 l 128 0 l 17 0 m 268 349 l 499 349 l 430 521 q 406 585 418 554 q 383 662 394 617 q 361 586 371 617 q 337 521 350 555 l 268 349 m 386 940 q 298 963 338 940 q 235 1023 258 985 q 212 1108 212 1061 l 293 1108 q 321 1043 293 1070 q 386 1016 349 1016 q 450 1043 422 1016 q 478 1108 478 1070 l 559 1108 q 536 1022 559 1060 q 474 962 513 984 q 386 940 435 940 m 243 1150 l 218 1220 q 258 1267 234 1251 q 313 1284 283 1284 q 363 1273 339 1284 q 409 1252 387 1263 q 454 1241 432 1241 q 499 1257 480 1241 q 529 1300 517 1273 l 554 1230 q 514 1183 538 1199 q 459 1167 490 1167 q 409 1178 433 1167 q 362 1198 385 1188 q 317 1209 340 1209 q 243 1150 267 1209 z "},"Â":{"ha":772,"x_min":17,"x_max":754,"o":"m 17 0 l 385 897 l 387 897 l 754 0 l 638 0 l 535 257 l 231 257 l 128 0 l 17 0 m 268 349 l 499 349 l 430 521 q 406 585 418 554 q 383 662 394 617 q 361 586 371 617 q 337 521 350 555 l 268 349 m 204 955 l 385 1166 l 387 1166 l 568 955 l 458 955 q 421 997 438 975 q 384 1048 405 1019 q 346 997 363 1019 q 310 955 330 975 l 204 955 z "},"Ấ":{"ha":772,"x_min":17,"x_max":754,"o":"m 17 0 l 385 897 l 387 897 l 754 0 l 638 0 l 535 257 l 231 257 l 128 0 l 17 0 m 268 349 l 499 349 l 430 521 q 406 585 418 554 q 383 662 394 617 q 361 586 371 617 q 337 521 350 555 l 268 349 m 513 1079 l 586 1224 l 694 1224 l 594 1079 l 513 1079 m 204 955 l 385 1166 l 387 1166 l 568 955 l 458 955 q 421 997 438 975 q 384 1048 405 1019 q 346 997 363 1019 q 310 955 330 975 l 204 955 z "},"Ậ":{"ha":772,"x_min":17,"x_max":754,"o":"m 17 0 l 385 897 l 387 897 l 754 0 l 638 0 l 535 257 l 231 257 l 128 0 l 17 0 m 268 349 l 499 349 l 430 521 q 406 585 418 554 q 383 662 394 617 q 361 586 371 617 q 337 521 350 555 l 268 349 m 386 -243 q 351 -234 367 -243 q 326 -209 335 -225 q 316 -174 316 -193 q 326 -138 316 -153 q 351 -113 335 -122 q 386 -104 367 -104 q 421 -113 406 -104 q 446 -138 437 -122 q 455 -174 455 -153 q 446 -209 455 -193 q 421 -234 437 -225 q 386 -243 406 -243 m 204 955 l 385 1166 l 387 1166 l 568 955 l 458 955 q 421 997 438 975 q 384 1048 405 1019 q 346 997 363 1019 q 310 955 330 975 l 204 955 z "},"Ầ":{"ha":772,"x_min":17,"x_max":754,"o":"m 17 0 l 385 897 l 387 897 l 754 0 l 638 0 l 535 257 l 231 257 l 128 0 l 17 0 m 268 349 l 499 349 l 430 521 q 406 585 418 554 q 383 662 394 617 q 361 586 371 617 q 337 521 350 555 l 268 349 m 584 1079 l 484 1224 l 592 1224 l 666 1079 l 584 1079 m 204 955 l 385 1166 l 387 1166 l 568 955 l 458 955 q 421 997 438 975 q 384 1048 405 1019 q 346 997 363 1019 q 310 955 330 975 l 204 955 z "},"Ẩ":{"ha":772,"x_min":17,"x_max":754,"o":"m 17 0 l 385 897 l 387 897 l 754 0 l 638 0 l 535 257 l 231 257 l 128 0 l 17 0 m 268 349 l 499 349 l 430 521 q 406 585 418 554 q 383 662 394 617 q 361 586 371 617 q 337 521 350 555 l 268 349 m 548 1079 q 582 1118 569 1101 q 594 1150 594 1135 q 582 1180 594 1168 q 548 1192 569 1192 q 514 1182 530 1192 q 487 1160 498 1173 l 469 1233 q 512 1255 488 1248 q 559 1262 536 1262 q 641 1235 607 1262 q 675 1160 675 1208 q 663 1116 675 1136 q 635 1079 651 1096 l 548 1079 m 204 955 l 385 1166 l 387 1166 l 568 955 l 458 955 q 421 997 438 975 q 384 1048 405 1019 q 346 997 363 1019 q 310 955 330 975 l 204 955 z "},"Ẫ":{"ha":772,"x_min":17,"x_max":754,"o":"m 17 0 l 385 897 l 387 897 l 754 0 l 638 0 l 535 257 l 231 257 l 128 0 l 17 0 m 268 349 l 499 349 l 430 521 q 406 585 418 554 q 383 662 394 617 q 361 586 371 617 q 337 521 350 555 l 268 349 m 204 955 l 385 1155 l 387 1155 l 568 955 l 458 955 q 421 994 438 974 q 384 1041 405 1014 q 346 994 363 1014 q 310 955 330 974 l 204 955 m 243 1150 l 218 1220 q 258 1267 234 1251 q 313 1284 283 1284 q 363 1273 339 1284 q 409 1252 387 1263 q 454 1241 432 1241 q 499 1257 480 1241 q 529 1300 517 1273 l 554 1230 q 514 1183 538 1199 q 459 1167 490 1167 q 409 1178 433 1167 q 362 1198 385 1188 q 317 1209 340 1209 q 243 1150 267 1209 z "},"Ȁ":{"ha":772,"x_min":17,"x_max":754,"o":"m 17 0 l 385 897 l 387 897 l 754 0 l 638 0 l 535 257 l 231 257 l 128 0 l 17 0 m 268 349 l 499 349 l 430 521 q 406 585 418 554 q 383 662 394 617 q 361 586 371 617 q 337 521 350 555 l 268 349 m 452 955 l 355 1128 l 471 1128 l 534 955 l 452 955 m 238 955 l 141 1128 l 257 1128 l 320 955 l 238 955 z "},"Ä":{"ha":772,"x_min":17,"x_max":754,"o":"m 17 0 l 385 897 l 387 897 l 754 0 l 638 0 l 535 257 l 231 257 l 128 0 l 17 0 m 268 349 l 499 349 l 430 521 q 406 585 418 554 q 383 662 394 617 q 361 586 371 617 q 337 521 350 555 l 268 349 m 536 885 q 501 895 517 885 q 476 920 485 904 q 467 955 467 936 q 476 991 467 975 q 501 1015 485 1006 q 536 1024 517 1024 q 572 1015 557 1024 q 597 991 587 1006 q 606 955 606 975 q 597 920 606 936 q 572 895 587 904 q 536 885 557 885 m 235 885 q 200 895 216 885 q 175 920 184 904 q 166 955 166 936 q 175 991 166 975 q 200 1015 184 1006 q 235 1024 216 1024 q 271 1015 256 1024 q 296 991 286 1006 q 305 955 305 975 q 296 920 305 936 q 271 895 286 904 q 235 885 256 885 z "},"Ạ":{"ha":772,"x_min":17,"x_max":754,"o":"m 17 0 l 385 897 l 387 897 l 754 0 l 638 0 l 535 257 l 231 257 l 128 0 l 17 0 m 268 349 l 499 349 l 430 521 q 406 585 418 554 q 383 662 394 617 q 361 586 371 617 q 337 521 350 555 l 268 349 m 386 -243 q 351 -234 367 -243 q 326 -209 335 -225 q 316 -174 316 -193 q 326 -138 316 -153 q 351 -113 335 -122 q 386 -104 367 -104 q 421 -113 406 -104 q 446 -138 437 -122 q 455 -174 455 -153 q 446 -209 455 -193 q 421 -234 437 -225 q 386 -243 406 -243 z "},"À":{"ha":772,"x_min":17,"x_max":754,"o":"m 17 0 l 385 897 l 387 897 l 754 0 l 638 0 l 535 257 l 231 257 l 128 0 l 17 0 m 268 349 l 499 349 l 430 521 q 406 585 418 554 q 383 662 394 617 q 361 586 371 617 q 337 521 350 555 l 268 349 m 334 955 l 160 1128 l 299 1128 l 438 955 l 334 955 z "},"Ả":{"ha":772,"x_min":17,"x_max":754,"o":"m 17 0 l 385 897 l 387 897 l 754 0 l 638 0 l 535 257 l 231 257 l 128 0 l 17 0 m 268 349 l 499 349 l 430 521 q 406 585 418 554 q 383 662 394 617 q 361 586 371 617 q 337 521 350 555 l 268 349 m 355 955 q 392 1005 379 983 q 405 1045 405 1026 q 391 1078 405 1065 q 355 1091 377 1091 q 317 1080 335 1091 q 289 1056 300 1070 l 269 1135 q 316 1159 290 1152 q 367 1166 342 1166 q 456 1137 419 1166 q 493 1056 493 1107 q 479 999 493 1023 q 449 955 466 974 l 355 955 z "},"Ȃ":{"ha":772,"x_min":17,"x_max":754,"o":"m 17 0 l 385 897 l 387 897 l 754 0 l 638 0 l 535 257 l 231 257 l 128 0 l 17 0 m 268 349 l 499 349 l 430 521 q 406 585 418 554 q 383 662 394 617 q 361 586 371 617 q 337 521 350 555 l 268 349 m 212 940 q 235 1027 212 989 q 298 1087 258 1065 q 386 1108 338 1108 q 474 1086 434 1108 q 536 1026 513 1064 q 559 940 559 989 l 475 940 q 448 1003 475 977 q 386 1029 421 1029 q 324 1003 350 1029 q 297 940 297 977 l 212 940 z "},"Ā":{"ha":772,"x_min":17,"x_max":754,"o":"m 17 0 l 385 897 l 387 897 l 754 0 l 638 0 l 535 257 l 231 257 l 128 0 l 17 0 m 268 349 l 499 349 l 430 521 q 406 585 418 554 q 383 662 394 617 q 361 586 371 617 q 337 521 350 555 l 268 349 m 215 1001 l 215 1082 l 557 1082 l 557 1001 l 215 1001 z "},"Ą":{"ha":772,"x_min":17,"x_max":754,"o":"m 710 -301 q 596 -259 641 -301 q 551 -155 551 -218 q 572 -75 551 -114 q 638 0 594 -37 l 535 257 l 231 257 l 128 0 l 17 0 l 385 897 l 387 897 l 754 0 q 676 -63 704 -26 q 647 -139 647 -99 q 669 -192 647 -173 q 731 -211 692 -211 l 710 -301 m 268 349 l 499 349 l 430 521 q 406 585 418 554 q 383 662 394 617 q 361 586 371 617 q 337 521 350 555 l 268 349 z "},"Å":{"ha":772,"x_min":17,"x_max":754,"o":"m 17 0 l 350 808 q 290 837 316 816 q 248 888 263 857 q 232 955 232 919 q 253 1032 232 997 q 309 1086 274 1066 q 386 1105 343 1105 q 463 1086 428 1105 q 518 1032 498 1066 q 539 955 539 997 q 524 889 539 919 q 482 838 508 858 q 421 808 455 817 l 754 0 l 638 0 l 535 258 l 231 258 l 128 0 l 17 0 m 268 349 l 499 349 l 430 521 q 406 585 418 554 q 383 662 394 617 q 361 586 371 617 q 337 521 350 555 l 268 349 m 386 874 q 443 898 419 874 q 467 955 467 922 q 443 1012 467 988 q 386 1036 419 1036 q 329 1012 353 1036 q 305 955 305 988 q 329 898 305 922 q 386 874 353 874 z "},"Ǻ":{"ha":772,"x_min":17,"x_max":754,"o":"m 17 0 l 350 808 q 290 837 316 816 q 248 888 263 857 q 232 955 232 919 q 253 1032 232 997 q 309 1086 274 1066 q 386 1105 343 1105 q 463 1086 428 1105 q 518 1032 498 1066 q 539 955 539 997 q 524 889 539 919 q 482 838 508 858 q 421 808 455 817 l 754 0 l 638 0 l 535 258 l 231 258 l 128 0 l 17 0 m 268 349 l 499 349 l 430 521 q 406 585 418 554 q 383 662 394 617 q 361 586 371 617 q 337 521 350 555 l 268 349 m 386 874 q 443 898 419 874 q 467 955 467 922 q 443 1012 467 988 q 386 1036 419 1036 q 329 1012 353 1036 q 305 955 305 988 q 329 898 305 922 q 386 874 353 874 m 351 1163 l 405 1270 l 506 1270 l 432 1163 l 351 1163 z "},"Ã":{"ha":772,"x_min":17,"x_max":754,"o":"m 17 0 l 385 897 l 387 897 l 754 0 l 638 0 l 535 257 l 231 257 l 128 0 l 17 0 m 268 349 l 499 349 l 430 521 q 406 585 418 554 q 383 662 394 617 q 361 586 371 617 q 337 521 350 555 l 268 349 m 196 958 l 174 1050 q 225 1105 196 1087 q 290 1124 255 1124 q 359 1106 328 1124 q 421 1070 391 1088 q 481 1052 450 1052 q 536 1072 512 1052 q 576 1126 559 1091 l 598 1033 q 547 978 577 997 q 481 960 518 960 q 412 978 444 960 q 352 1013 381 995 q 290 1031 322 1031 q 236 1012 259 1031 q 196 958 212 992 z "},"Æ":{"ha":984,"x_min":17,"x_max":955,"o":"m 17 0 l 374 868 l 710 868 l 735 770 l 479 770 l 536 584 l 749 584 l 773 486 l 566 486 l 685 98 l 930 98 l 955 0 l 605 0 l 526 258 l 231 258 l 128 0 l 17 0 m 268 349 l 498 349 l 446 521 q 422 600 434 560 q 398 688 410 640 q 367 600 383 640 q 337 521 352 560 l 268 349 z "},"Ǽ":{"ha":984,"x_min":17,"x_max":955,"o":"m 17 0 l 374 868 l 710 868 l 735 770 l 479 770 l 536 584 l 749 584 l 773 486 l 566 486 l 685 98 l 930 98 l 955 0 l 605 0 l 526 258 l 231 258 l 128 0 l 17 0 m 268 349 l 498 349 l 446 521 q 422 600 434 560 q 398 688 410 640 q 367 600 383 640 q 337 521 352 560 l 268 349 m 514 955 l 653 1128 l 792 1128 l 618 955 l 514 955 z "},"B":{"ha":723,"x_min":122,"x_max":666,"o":"m 122 0 l 122 868 l 365 868 q 496 835 448 868 q 566 756 545 802 q 587 667 587 709 q 566 581 587 620 q 507 517 544 542 q 590 460 555 496 q 645 378 625 424 q 666 277 666 331 q 646 176 666 225 q 589 87 627 126 q 495 24 551 47 q 365 0 439 0 l 122 0 m 231 98 l 357 98 q 472 126 428 98 q 535 197 515 154 q 556 281 556 239 q 536 364 556 321 q 474 435 517 406 q 357 463 430 463 l 231 463 l 231 98 m 231 556 l 356 556 q 423 568 394 556 q 467 604 451 580 q 483 662 483 628 q 467 721 483 697 q 424 757 451 745 q 360 770 396 770 l 231 770 l 231 556 z "},"C":{"ha":868,"x_min":58,"x_max":828,"o":"m 511 -17 q 335 18 418 -17 q 190 115 253 53 q 93 258 128 177 q 58 434 58 340 q 93 610 58 528 q 190 753 128 692 q 335 850 253 815 q 511 885 418 885 q 685 851 604 885 q 828 757 766 817 l 796 624 q 677 738 751 695 q 511 781 602 781 q 378 754 440 781 q 270 679 316 727 q 198 569 224 632 q 172 434 172 506 q 198 299 172 362 q 270 189 224 236 q 378 114 316 141 q 511 87 440 87 q 677 130 603 87 q 796 244 751 174 l 828 111 q 685 17 766 52 q 511 -17 604 -17 z "},"Ć":{"ha":868,"x_min":58,"x_max":828,"o":"m 511 -17 q 335 18 418 -17 q 190 115 253 53 q 93 258 128 177 q 58 434 58 340 q 93 610 58 528 q 190 753 128 692 q 335 850 253 815 q 511 885 418 885 q 685 851 604 885 q 828 757 766 817 l 796 624 q 677 738 751 695 q 511 781 602 781 q 378 754 440 781 q 270 679 316 727 q 198 569 224 632 q 172 434 172 506 q 198 299 172 362 q 270 189 224 236 q 378 114 316 141 q 511 87 440 87 q 677 130 603 87 q 796 244 751 174 l 828 111 q 685 17 766 52 q 511 -17 604 -17 m 459 955 l 598 1128 l 737 1128 l 563 955 l 459 955 z "},"Č":{"ha":868,"x_min":58,"x_max":828,"o":"m 511 -17 q 335 18 418 -17 q 190 115 253 53 q 93 258 128 177 q 58 434 58 340 q 93 610 58 528 q 190 753 128 692 q 335 850 253 815 q 511 885 418 885 q 685 851 604 885 q 828 757 766 817 l 796 624 q 677 738 751 695 q 511 781 602 781 q 378 754 440 781 q 270 679 316 727 q 198 569 224 632 q 172 434 172 506 q 198 299 172 362 q 270 189 224 236 q 378 114 316 141 q 511 87 440 87 q 677 130 603 87 q 796 244 751 174 l 828 111 q 685 17 766 52 q 511 -17 604 -17 m 510 946 l 329 1157 l 439 1157 q 476 1115 459 1137 q 513 1064 492 1094 q 551 1115 534 1094 q 587 1157 567 1137 l 693 1157 l 512 946 l 510 946 z "},"Ç":{"ha":868,"x_min":58,"x_max":828,"o":"m 287 -174 l 447 -13 q 294 38 365 -1 q 170 137 223 77 q 87 273 117 197 q 58 434 58 349 q 93 610 58 528 q 190 753 128 692 q 335 850 253 815 q 511 885 418 885 q 685 851 604 885 q 828 757 766 817 l 796 624 q 677 738 751 695 q 511 781 602 781 q 378 754 440 781 q 270 679 316 727 q 198 569 224 632 q 172 434 172 506 q 198 299 172 362 q 270 189 224 236 q 378 114 316 141 q 511 87 440 87 q 677 130 603 87 q 796 244 751 174 l 828 111 q 702 25 773 58 q 551 -15 632 -9 l 425 -174 l 287 -174 z "},"Ĉ":{"ha":868,"x_min":58,"x_max":828,"o":"m 511 -17 q 335 18 418 -17 q 190 115 253 53 q 93 258 128 177 q 58 434 58 340 q 93 610 58 528 q 190 753 128 692 q 335 850 253 815 q 511 885 418 885 q 685 851 604 885 q 828 757 766 817 l 796 624 q 677 738 751 695 q 511 781 602 781 q 378 754 440 781 q 270 679 316 727 q 198 569 224 632 q 172 434 172 506 q 198 299 172 362 q 270 189 224 236 q 378 114 316 141 q 511 87 440 87 q 677 130 603 87 q 796 244 751 174 l 828 111 q 685 17 766 52 q 511 -17 604 -17 m 329 955 l 510 1166 l 512 1166 l 693 955 l 584 955 q 547 997 563 975 q 509 1048 530 1019 q 472 997 488 1019 q 435 955 455 975 l 329 955 z "},"Ċ":{"ha":868,"x_min":58,"x_max":828,"o":"m 511 -17 q 335 18 418 -17 q 190 115 253 53 q 93 258 128 177 q 58 434 58 340 q 93 610 58 528 q 190 753 128 692 q 335 850 253 815 q 511 885 418 885 q 685 851 604 885 q 828 757 766 817 l 796 624 q 677 738 751 695 q 511 781 602 781 q 378 754 440 781 q 270 679 316 727 q 198 569 224 632 q 172 434 172 506 q 198 299 172 362 q 270 189 224 236 q 378 114 316 141 q 511 87 440 87 q 677 130 603 87 q 796 244 751 174 l 828 111 q 685 17 766 52 q 511 -17 604 -17 m 511 972 q 476 981 492 972 q 451 1006 460 991 q 442 1042 442 1022 q 451 1077 442 1062 q 476 1102 460 1093 q 511 1111 492 1111 q 547 1102 531 1111 q 571 1077 562 1093 q 581 1042 581 1062 q 571 1006 581 1022 q 547 981 562 991 q 511 972 531 972 z "},"D":{"ha":926,"x_min":122,"x_max":868,"o":"m 122 0 l 122 868 l 406 868 q 611 829 524 868 q 755 727 698 791 q 840 587 812 664 q 868 434 868 510 q 840 281 868 358 q 755 141 812 204 q 611 39 698 77 q 406 0 524 0 l 122 0 m 231 98 l 394 98 q 563 130 495 98 q 674 212 632 161 q 735 321 717 262 q 754 434 754 380 q 735 547 754 488 q 674 656 717 606 q 563 738 632 707 q 394 770 495 770 l 231 770 l 231 98 z "},"Ǆ":{"ha":1534,"x_min":122,"x_max":1481,"o":"m 122 0 l 122 868 l 406 868 q 611 829 524 868 q 755 727 698 791 q 840 587 812 664 q 868 434 868 510 q 840 281 868 358 q 755 141 812 204 q 611 39 698 77 q 406 0 524 0 l 122 0 m 231 98 l 394 98 q 563 130 495 98 q 674 212 632 161 q 735 321 717 262 q 754 434 754 380 q 735 547 754 488 q 674 656 717 606 q 563 738 632 707 q 394 770 495 770 l 231 770 l 231 98 m 938 0 l 938 2 l 1318 770 l 978 770 l 978 868 l 1481 868 l 1481 866 l 1101 98 l 1464 98 l 1464 0 l 938 0 m 1229 946 l 1047 1157 l 1157 1157 q 1194 1115 1178 1137 q 1232 1064 1210 1094 q 1269 1115 1253 1094 q 1306 1157 1286 1137 l 1412 1157 l 1231 946 l 1229 946 z "},"Ð":{"ha":955,"x_min":58,"x_max":897,"o":"m 150 0 l 150 422 l 58 422 l 58 503 l 150 503 l 150 868 l 435 868 q 640 829 553 868 q 784 727 727 791 q 869 587 841 664 q 897 434 897 510 q 869 281 897 358 q 784 141 841 204 q 640 39 727 77 q 435 0 553 0 l 150 0 m 260 98 l 423 98 q 592 130 524 98 q 703 212 661 161 q 764 321 746 262 q 783 434 783 380 q 764 547 783 488 q 703 656 746 606 q 592 738 661 707 q 423 770 524 770 l 260 770 l 260 503 l 521 503 l 521 422 l 260 422 l 260 98 z "},"Ď":{"ha":926,"x_min":122,"x_max":868,"o":"m 122 0 l 122 868 l 406 868 q 611 829 524 868 q 755 727 698 791 q 840 587 812 664 q 868 434 868 510 q 840 281 868 358 q 755 141 812 204 q 611 39 698 77 q 406 0 524 0 l 122 0 m 231 98 l 394 98 q 563 130 495 98 q 674 212 632 161 q 735 321 717 262 q 754 434 754 380 q 735 547 754 488 q 674 656 717 606 q 563 738 632 707 q 394 770 495 770 l 231 770 l 231 98 m 392 946 l 210 1157 l 320 1157 q 357 1115 340 1137 q 394 1064 373 1094 q 432 1115 416 1094 q 469 1157 448 1137 l 575 1157 l 394 946 l 392 946 z "},"Đ":{"ha":955,"x_min":58,"x_max":897,"o":"m 150 0 l 150 422 l 58 422 l 58 503 l 150 503 l 150 868 l 435 868 q 640 829 553 868 q 784 727 727 791 q 869 587 841 664 q 897 434 897 510 q 869 281 897 358 q 784 141 841 204 q 640 39 727 77 q 435 0 553 0 l 150 0 m 260 98 l 423 98 q 592 130 524 98 q 703 212 661 161 q 764 321 746 262 q 783 434 783 380 q 764 547 783 488 q 703 656 746 606 q 592 738 661 707 q 423 770 524 770 l 260 770 l 260 503 l 521 503 l 521 422 l 260 422 l 260 98 z "},"ǅ":{"ha":1437,"x_min":122,"x_max":1399,"o":"m 122 0 l 122 868 l 406 868 q 611 829 524 868 q 755 727 698 791 q 840 587 812 664 q 868 434 868 510 q 840 281 868 358 q 755 141 812 204 q 611 39 698 77 q 406 0 524 0 l 122 0 m 231 98 l 394 98 q 563 130 495 98 q 674 212 632 161 q 735 321 717 262 q 754 434 754 380 q 735 547 754 488 q 674 656 717 606 q 563 738 632 707 q 394 770 495 770 l 231 770 l 231 98 m 965 0 l 965 2 l 1238 486 l 982 486 l 982 579 l 1399 579 l 1399 577 l 1125 93 l 1383 93 l 1383 0 l 965 0 m 1189 657 l 1008 868 l 1118 868 q 1155 826 1138 848 q 1192 774 1171 804 q 1230 826 1213 804 q 1266 868 1246 848 l 1372 868 l 1191 657 l 1189 657 z "},"E":{"ha":608,"x_min":122,"x_max":550,"o":"m 122 0 l 122 868 l 550 868 l 550 770 l 231 770 l 231 584 l 482 584 l 482 486 l 231 486 l 231 98 l 550 98 l 550 0 l 122 0 z "},"É":{"ha":608,"x_min":122,"x_max":561,"o":"m 122 0 l 122 868 l 550 868 l 550 770 l 231 770 l 231 584 l 482 584 l 482 486 l 231 486 l 231 98 l 550 98 l 550 0 l 122 0 m 284 955 l 422 1128 l 561 1128 l 388 955 l 284 955 z "},"Ĕ":{"ha":608,"x_min":122,"x_max":550,"o":"m 122 0 l 122 868 l 550 868 l 550 770 l 231 770 l 231 584 l 482 584 l 482 486 l 231 486 l 231 98 l 550 98 l 550 0 l 122 0 m 336 940 q 248 963 287 940 q 185 1023 208 985 q 162 1108 162 1061 l 247 1108 q 273 1046 247 1072 q 336 1019 300 1019 q 398 1046 371 1019 q 424 1108 424 1072 l 509 1108 q 486 1022 509 1060 q 424 962 463 984 q 336 940 385 940 z "},"Ě":{"ha":608,"x_min":122,"x_max":550,"o":"m 122 0 l 122 868 l 550 868 l 550 770 l 231 770 l 231 584 l 482 584 l 482 486 l 231 486 l 231 98 l 550 98 l 550 0 l 122 0 m 335 946 l 153 1157 l 263 1157 q 300 1115 284 1137 q 338 1064 316 1094 q 375 1115 359 1094 q 412 1157 392 1137 l 518 1157 l 337 946 l 335 946 z "},"Ê":{"ha":608,"x_min":122,"x_max":550,"o":"m 122 0 l 122 868 l 550 868 l 550 770 l 231 770 l 231 584 l 482 584 l 482 486 l 231 486 l 231 98 l 550 98 l 550 0 l 122 0 m 153 955 l 335 1166 l 337 1166 l 518 955 l 408 955 q 371 997 388 975 q 334 1048 355 1019 q 296 997 313 1019 q 259 955 280 975 l 153 955 z "},"Ế":{"ha":608,"x_min":122,"x_max":644,"o":"m 122 0 l 122 868 l 550 868 l 550 770 l 231 770 l 231 584 l 482 584 l 482 486 l 231 486 l 231 98 l 550 98 l 550 0 l 122 0 m 463 1079 l 536 1224 l 644 1224 l 544 1079 l 463 1079 m 153 955 l 335 1166 l 337 1166 l 518 955 l 408 955 q 371 997 388 975 q 334 1048 355 1019 q 296 997 313 1019 q 259 955 280 975 l 153 955 z "},"Ệ":{"ha":608,"x_min":122,"x_max":550,"o":"m 122 0 l 122 868 l 550 868 l 550 770 l 231 770 l 231 584 l 482 584 l 482 486 l 231 486 l 231 98 l 550 98 l 550 0 l 122 0 m 336 -243 q 300 -234 316 -243 q 275 -209 285 -225 q 266 -174 266 -193 q 275 -138 266 -153 q 300 -113 285 -122 q 336 -104 316 -104 q 371 -113 356 -104 q 396 -138 387 -122 q 405 -174 405 -153 q 396 -209 405 -193 q 371 -234 387 -225 q 336 -243 356 -243 m 153 955 l 335 1166 l 337 1166 l 518 955 l 408 955 q 371 997 388 975 q 334 1048 355 1019 q 296 997 313 1019 q 259 955 280 975 l 153 955 z "},"Ề":{"ha":608,"x_min":122,"x_max":615,"o":"m 122 0 l 122 868 l 550 868 l 550 770 l 231 770 l 231 584 l 482 584 l 482 486 l 231 486 l 231 98 l 550 98 l 550 0 l 122 0 m 534 1079 l 434 1224 l 542 1224 l 615 1079 l 534 1079 m 153 955 l 335 1166 l 337 1166 l 518 955 l 408 955 q 371 997 388 975 q 334 1048 355 1019 q 296 997 313 1019 q 259 955 280 975 l 153 955 z "},"Ể":{"ha":608,"x_min":122,"x_max":625,"o":"m 122 0 l 122 868 l 550 868 l 550 770 l 231 770 l 231 584 l 482 584 l 482 486 l 231 486 l 231 98 l 550 98 l 550 0 l 122 0 m 498 1079 q 531 1118 519 1101 q 544 1150 544 1135 q 531 1180 544 1168 q 498 1192 519 1192 q 463 1182 479 1192 q 437 1160 448 1173 l 419 1233 q 462 1255 438 1248 q 509 1262 486 1262 q 591 1235 557 1262 q 625 1160 625 1208 q 613 1116 625 1136 q 584 1079 601 1096 l 498 1079 m 153 955 l 335 1166 l 337 1166 l 518 955 l 408 955 q 371 997 388 975 q 334 1048 355 1019 q 296 997 313 1019 q 259 955 280 975 l 153 955 z "},"Ễ":{"ha":608,"x_min":122,"x_max":550,"o":"m 122 0 l 122 868 l 550 868 l 550 770 l 231 770 l 231 584 l 482 584 l 482 486 l 231 486 l 231 98 l 550 98 l 550 0 l 122 0 m 153 955 l 335 1155 l 337 1155 l 518 955 l 408 955 q 371 994 388 974 q 334 1041 355 1014 q 296 994 313 1014 q 259 955 280 974 l 153 955 m 193 1150 l 168 1220 q 208 1267 184 1251 q 262 1284 232 1284 q 313 1273 288 1284 q 359 1252 337 1263 q 404 1241 382 1241 q 448 1257 430 1241 q 478 1300 467 1273 l 503 1230 q 464 1183 488 1199 q 409 1167 440 1167 q 359 1178 383 1167 q 312 1198 335 1188 q 267 1209 289 1209 q 193 1150 217 1209 z "},"Ȅ":{"ha":608,"x_min":91,"x_max":550,"o":"m 122 0 l 122 868 l 550 868 l 550 770 l 231 770 l 231 584 l 482 584 l 482 486 l 231 486 l 231 98 l 550 98 l 550 0 l 122 0 m 402 955 l 305 1128 l 421 1128 l 484 955 l 402 955 m 188 955 l 91 1128 l 206 1128 l 270 955 l 188 955 z "},"Ë":{"ha":608,"x_min":122,"x_max":550,"o":"m 122 0 l 122 868 l 550 868 l 550 770 l 231 770 l 231 584 l 482 584 l 482 486 l 231 486 l 231 98 l 550 98 l 550 0 l 122 0 m 451 975 q 405 995 424 975 q 385 1042 385 1015 q 405 1089 385 1070 q 451 1108 424 1108 q 499 1089 479 1108 q 518 1042 518 1070 q 499 995 518 1015 q 451 975 479 975 m 220 975 q 173 995 193 975 q 153 1042 153 1015 q 173 1089 153 1070 q 220 1108 193 1108 q 267 1089 248 1108 q 286 1042 286 1070 q 267 995 286 1015 q 220 975 248 975 z "},"Ė":{"ha":608,"x_min":122,"x_max":550,"o":"m 122 0 l 122 868 l 550 868 l 550 770 l 231 770 l 231 584 l 482 584 l 482 486 l 231 486 l 231 98 l 550 98 l 550 0 l 122 0 m 336 972 q 300 981 316 972 q 275 1006 285 991 q 266 1042 266 1022 q 275 1077 266 1062 q 300 1102 285 1093 q 336 1111 316 1111 q 371 1102 356 1111 q 396 1077 387 1093 q 405 1042 405 1062 q 396 1006 405 1022 q 371 981 387 991 q 336 972 356 972 z "},"Ẹ":{"ha":608,"x_min":122,"x_max":550,"o":"m 122 0 l 122 868 l 550 868 l 550 770 l 231 770 l 231 584 l 482 584 l 482 486 l 231 486 l 231 98 l 550 98 l 550 0 l 122 0 m 336 -243 q 300 -234 316 -243 q 275 -209 285 -225 q 266 -174 266 -193 q 275 -138 266 -153 q 300 -113 285 -122 q 336 -104 316 -104 q 371 -113 356 -104 q 396 -138 387 -122 q 405 -174 405 -153 q 396 -209 405 -193 q 371 -234 387 -225 q 336 -243 356 -243 z "},"È":{"ha":608,"x_min":110,"x_max":550,"o":"m 122 0 l 122 868 l 550 868 l 550 770 l 231 770 l 231 584 l 482 584 l 482 486 l 231 486 l 231 98 l 550 98 l 550 0 l 122 0 m 284 955 l 110 1128 l 249 1128 l 388 955 l 284 955 z "},"Ẻ":{"ha":608,"x_min":122,"x_max":550,"o":"m 122 0 l 122 868 l 550 868 l 550 770 l 231 770 l 231 584 l 482 584 l 482 486 l 231 486 l 231 98 l 550 98 l 550 0 l 122 0 m 305 955 q 342 1005 329 983 q 355 1045 355 1026 q 341 1078 355 1065 q 305 1091 327 1091 q 267 1080 285 1091 q 239 1056 250 1070 l 219 1135 q 266 1159 240 1152 q 317 1166 292 1166 q 406 1137 368 1166 q 443 1056 443 1107 q 429 999 443 1023 q 399 955 416 974 l 305 955 z "},"Ȇ":{"ha":608,"x_min":122,"x_max":550,"o":"m 122 0 l 122 868 l 550 868 l 550 770 l 231 770 l 231 584 l 482 584 l 482 486 l 231 486 l 231 98 l 550 98 l 550 0 l 122 0 m 162 940 q 185 1027 162 989 q 248 1087 208 1065 q 336 1108 287 1108 q 423 1086 384 1108 q 486 1026 463 1064 q 509 940 509 989 l 424 940 q 398 1003 424 977 q 336 1029 371 1029 q 273 1003 300 1029 q 247 940 247 977 l 162 940 z "},"Ē":{"ha":608,"x_min":122,"x_max":550,"o":"m 122 0 l 122 868 l 550 868 l 550 770 l 231 770 l 231 584 l 482 584 l 482 486 l 231 486 l 231 98 l 550 98 l 550 0 l 122 0 m 165 1001 l 165 1082 l 506 1082 l 506 1001 l 165 1001 z "},"Ę":{"ha":608,"x_min":122,"x_max":576,"o":"m 555 -301 q 444 -261 492 -301 q 395 -148 395 -221 q 411 -72 395 -109 q 453 0 426 -36 l 122 0 l 122 868 l 550 868 l 550 770 l 231 770 l 231 584 l 482 584 l 482 486 l 231 486 l 231 98 l 550 98 l 550 0 q 507 -63 523 -33 q 492 -129 492 -93 q 516 -192 492 -174 q 576 -211 539 -211 l 555 -301 z "},"Ẽ":{"ha":608,"x_min":122,"x_max":550,"o":"m 122 0 l 122 868 l 550 868 l 550 770 l 231 770 l 231 584 l 482 584 l 482 486 l 231 486 l 231 98 l 550 98 l 550 0 l 122 0 m 146 958 l 123 1050 q 175 1105 146 1087 q 240 1124 204 1124 q 309 1106 278 1124 q 370 1070 340 1088 q 431 1052 400 1052 q 486 1072 462 1052 q 526 1126 509 1091 l 548 1033 q 497 978 527 997 q 431 960 468 960 q 362 978 394 960 q 301 1013 331 995 q 240 1031 272 1031 q 186 1012 209 1031 q 146 958 162 992 z "},"Ə":{"ha":1013,"x_min":52,"x_max":955,"o":"m 502 -17 q 327 18 409 -17 q 184 115 246 53 q 87 260 122 177 q 52 439 52 343 q 52 466 52 452 q 52 492 52 479 l 727 492 q 783 489 755 492 q 838 483 810 487 q 801 601 829 547 q 727 695 772 655 q 625 759 682 736 q 502 781 567 781 q 337 738 411 781 q 217 624 262 695 l 185 757 q 276 826 227 797 q 383 870 326 855 q 502 885 440 885 q 678 850 596 885 q 822 753 760 815 q 920 610 884 692 q 955 434 955 528 q 920 258 955 340 q 822 115 884 177 q 678 18 760 53 q 502 -17 596 -17 m 502 87 q 628 111 569 87 q 733 178 687 135 q 806 279 778 222 q 840 403 834 337 q 784 396 812 399 q 727 394 755 394 l 168 394 q 204 273 176 329 q 276 176 231 217 q 379 110 321 134 q 502 87 436 87 z "},"Ʒ":{"ha":637,"x_min":29,"x_max":596,"o":"m 291 -12 q 138 28 207 -12 q 29 136 68 68 l 95 265 q 129 177 101 216 q 199 115 157 138 q 291 93 241 93 q 390 119 346 93 q 460 190 434 146 q 486 289 486 234 q 460 388 486 343 q 390 460 434 433 q 291 486 345 486 q 244 480 266 486 q 204 462 221 474 l 202 464 l 360 770 l 81 770 l 81 868 l 526 868 l 526 866 l 368 574 q 458 538 417 563 q 530 475 499 512 q 579 391 561 438 q 596 289 596 343 q 572 171 596 226 q 507 76 549 117 q 409 12 465 35 q 291 -12 354 -12 z "},"Ǯ":{"ha":637,"x_min":29,"x_max":596,"o":"m 291 -12 q 138 28 207 -12 q 29 136 68 68 l 95 265 q 129 177 101 216 q 199 115 157 138 q 291 93 241 93 q 390 119 346 93 q 460 190 434 146 q 486 289 486 234 q 460 388 486 343 q 390 460 434 433 q 291 486 345 486 q 244 480 266 486 q 204 462 221 474 l 202 464 l 360 770 l 81 770 l 81 868 l 526 868 l 526 866 l 368 574 q 458 538 417 563 q 530 475 499 512 q 579 391 561 438 q 596 289 596 343 q 572 171 596 226 q 507 76 549 117 q 409 12 465 35 q 291 -12 354 -12 m 301 946 l 120 1157 l 230 1157 q 266 1115 250 1137 q 304 1064 283 1094 q 341 1115 325 1094 q 378 1157 358 1137 l 484 1157 l 303 946 l 301 946 z "},"F":{"ha":579,"x_min":122,"x_max":550,"o":"m 122 0 l 122 868 l 550 868 l 550 770 l 231 770 l 231 584 l 521 584 l 521 486 l 231 486 l 231 0 l 122 0 z "},"G":{"ha":907,"x_min":58,"x_max":828,"o":"m 510 -17 q 334 18 416 -17 q 190 115 252 53 q 93 259 127 177 q 58 434 58 340 q 93 609 58 528 q 190 753 128 691 q 335 850 253 815 q 511 885 417 885 q 685 851 604 885 q 828 757 766 817 l 796 624 q 677 738 751 695 q 511 781 602 781 q 378 754 440 781 q 270 679 316 727 q 198 569 224 632 q 172 434 172 506 q 197 300 172 364 q 269 190 223 237 q 377 114 315 142 q 510 87 438 87 q 613 100 564 87 q 702 137 662 113 l 702 365 l 463 365 l 463 463 l 808 463 l 808 81 q 672 7 749 32 q 510 -17 594 -17 z "},"Ğ":{"ha":907,"x_min":58,"x_max":828,"o":"m 510 -17 q 334 18 416 -17 q 190 115 252 53 q 93 259 127 177 q 58 434 58 340 q 93 609 58 528 q 190 753 128 691 q 335 850 253 815 q 511 885 417 885 q 685 851 604 885 q 828 757 766 817 l 796 624 q 677 738 751 695 q 511 781 602 781 q 378 754 440 781 q 270 679 316 727 q 198 569 224 632 q 172 434 172 506 q 197 300 172 364 q 269 190 223 237 q 377 114 315 142 q 510 87 438 87 q 613 100 564 87 q 702 137 662 113 l 702 365 l 463 365 l 463 463 l 808 463 l 808 81 q 672 7 749 32 q 510 -17 594 -17 m 511 940 q 423 963 463 940 q 361 1023 384 985 q 338 1108 338 1061 l 422 1108 q 449 1046 422 1072 q 511 1019 476 1019 q 573 1046 547 1019 q 600 1108 600 1072 l 685 1108 q 662 1022 685 1060 q 599 962 639 984 q 511 940 560 940 z "},"Ǧ":{"ha":907,"x_min":58,"x_max":828,"o":"m 510 -17 q 334 18 416 -17 q 190 115 252 53 q 93 259 127 177 q 58 434 58 340 q 93 609 58 528 q 190 753 128 691 q 335 850 253 815 q 511 885 417 885 q 685 851 604 885 q 828 757 766 817 l 796 624 q 677 738 751 695 q 511 781 602 781 q 378 754 440 781 q 270 679 316 727 q 198 569 224 632 q 172 434 172 506 q 197 300 172 364 q 269 190 223 237 q 377 114 315 142 q 510 87 438 87 q 613 100 564 87 q 702 137 662 113 l 702 365 l 463 365 l 463 463 l 808 463 l 808 81 q 672 7 749 32 q 510 -17 594 -17 m 510 946 l 329 1157 l 439 1157 q 476 1115 459 1137 q 513 1064 492 1094 q 551 1115 534 1094 q 587 1157 567 1137 l 693 1157 l 512 946 l 510 946 z "},"Ĝ":{"ha":907,"x_min":58,"x_max":828,"o":"m 510 -17 q 334 18 416 -17 q 190 115 252 53 q 93 259 127 177 q 58 434 58 340 q 93 609 58 528 q 190 753 128 691 q 335 850 253 815 q 511 885 417 885 q 685 851 604 885 q 828 757 766 817 l 796 624 q 677 738 751 695 q 511 781 602 781 q 378 754 440 781 q 270 679 316 727 q 198 569 224 632 q 172 434 172 506 q 197 300 172 364 q 269 190 223 237 q 377 114 315 142 q 510 87 438 87 q 613 100 564 87 q 702 137 662 113 l 702 365 l 463 365 l 463 463 l 808 463 l 808 81 q 672 7 749 32 q 510 -17 594 -17 m 329 955 l 510 1166 l 512 1166 l 693 955 l 584 955 q 547 997 563 975 q 509 1048 530 1019 q 472 997 488 1019 q 435 955 455 975 l 329 955 z "},"Ģ":{"ha":907,"x_min":58,"x_max":828,"o":"m 510 -17 q 334 18 416 -17 q 190 115 252 53 q 93 259 127 177 q 58 434 58 340 q 93 609 58 528 q 190 753 128 691 q 335 850 253 815 q 511 885 417 885 q 685 851 604 885 q 828 757 766 817 l 796 624 q 677 738 751 695 q 511 781 602 781 q 378 754 440 781 q 270 679 316 727 q 198 569 224 632 q 172 434 172 506 q 197 300 172 364 q 269 190 223 237 q 377 114 315 142 q 510 87 438 87 q 613 100 564 87 q 702 137 662 113 l 702 365 l 463 365 l 463 463 l 808 463 l 808 81 q 672 7 749 32 q 510 -17 594 -17 m 377 -318 q 433 -228 410 -278 q 460 -116 455 -177 l 560 -116 q 537 -222 557 -172 q 489 -318 518 -273 l 377 -318 z "},"Ġ":{"ha":907,"x_min":58,"x_max":828,"o":"m 510 -17 q 334 18 416 -17 q 190 115 252 53 q 93 259 127 177 q 58 434 58 340 q 93 609 58 528 q 190 753 128 691 q 335 850 253 815 q 511 885 417 885 q 685 851 604 885 q 828 757 766 817 l 796 624 q 677 738 751 695 q 511 781 602 781 q 378 754 440 781 q 270 679 316 727 q 198 569 224 632 q 172 434 172 506 q 197 300 172 364 q 269 190 223 237 q 377 114 315 142 q 510 87 438 87 q 613 100 564 87 q 702 137 662 113 l 702 365 l 463 365 l 463 463 l 808 463 l 808 81 q 672 7 749 32 q 510 -17 594 -17 m 511 972 q 476 981 492 972 q 451 1006 460 991 q 442 1042 442 1022 q 451 1077 442 1062 q 476 1102 460 1093 q 511 1111 492 1111 q 547 1102 531 1111 q 571 1077 562 1093 q 581 1042 581 1062 q 571 1006 581 1022 q 547 981 562 991 q 511 972 531 972 z "},"Ǥ":{"ha":907,"x_min":58,"x_max":878,"o":"m 510 -17 q 334 18 416 -17 q 190 115 252 53 q 93 259 127 177 q 58 434 58 340 q 93 609 58 528 q 190 753 128 691 q 335 850 253 815 q 511 885 417 885 q 685 851 604 885 q 828 757 766 817 l 796 624 q 677 738 751 695 q 511 781 602 781 q 378 754 440 781 q 270 679 316 727 q 198 569 224 632 q 172 434 172 506 q 197 300 172 364 q 269 190 223 237 q 377 114 315 142 q 510 87 438 87 q 613 100 564 87 q 702 137 662 113 l 702 307 l 473 307 l 473 388 l 702 388 l 702 521 l 808 521 l 808 388 l 878 388 l 878 307 l 808 307 l 808 81 q 672 7 749 32 q 510 -17 594 -17 z "},"H":{"ha":772,"x_min":122,"x_max":650,"o":"m 122 0 l 122 868 l 231 868 l 231 584 l 540 584 l 540 868 l 650 868 l 650 0 l 540 0 l 540 486 l 231 486 l 231 0 l 122 0 z "},"Ħ":{"ha":772,"x_min":29,"x_max":743,"o":"m 122 0 l 122 654 l 29 654 l 29 735 l 122 735 l 122 868 l 231 868 l 231 735 l 540 735 l 540 868 l 650 868 l 650 735 l 743 735 l 743 654 l 650 654 l 650 0 l 540 0 l 540 428 l 231 428 l 231 0 l 122 0 m 231 527 l 540 527 l 540 654 l 231 654 l 231 527 z "},"Ĥ":{"ha":772,"x_min":122,"x_max":650,"o":"m 122 0 l 122 868 l 231 868 l 231 584 l 540 584 l 540 868 l 650 868 l 650 0 l 540 0 l 540 486 l 231 486 l 231 0 l 122 0 m 204 955 l 385 1166 l 387 1166 l 568 955 l 458 955 q 421 997 438 975 q 384 1048 405 1019 q 346 997 363 1019 q 310 955 330 975 l 204 955 z "},"I":{"ha":376,"x_min":133,"x_max":243,"o":"m 133 0 l 133 868 l 243 868 l 243 0 l 133 0 z "},"Ĳ":{"ha":897,"x_min":133,"x_max":793,"o":"m 133 0 l 133 868 l 243 868 l 243 0 l 133 0 m 557 -12 q 496 -5 527 -12 q 437 15 465 1 q 388 52 410 29 l 420 168 q 477 109 442 130 q 557 87 512 87 q 645 122 608 87 q 683 247 683 158 l 683 868 l 793 868 l 793 238 q 760 97 793 152 q 674 15 727 41 q 557 -12 620 -12 z "},"Í":{"ha":376,"x_min":133,"x_max":414,"o":"m 133 0 l 133 868 l 243 868 l 243 0 l 133 0 m 136 955 l 275 1128 l 414 1128 l 240 955 l 136 955 z "},"Ĭ":{"ha":376,"x_min":14,"x_max":362,"o":"m 133 0 l 133 868 l 243 868 l 243 0 l 133 0 m 188 940 q 100 963 140 940 q 38 1023 61 985 q 14 1108 14 1061 l 99 1108 q 126 1046 99 1072 q 188 1019 152 1019 q 250 1046 224 1019 q 277 1108 277 1072 l 362 1108 q 339 1022 362 1060 q 276 962 315 984 q 188 940 237 940 z "},"Î":{"ha":376,"x_min":6,"x_max":370,"o":"m 133 0 l 133 868 l 243 868 l 243 0 l 133 0 m 6 955 l 187 1166 l 189 1166 l 370 955 l 260 955 q 224 997 240 975 q 186 1048 207 1019 q 149 997 165 1019 q 112 955 132 975 l 6 955 z "},"Ȉ":{"ha":376,"x_min":-57,"x_max":337,"o":"m 133 0 l 133 868 l 243 868 l 243 0 l 133 0 m 255 955 l 157 1128 l 273 1128 l 337 955 l 255 955 m 41 955 l -57 1128 l 59 1128 l 122 955 l 41 955 z "},"Ï":{"ha":376,"x_min":6,"x_max":370,"o":"m 133 0 l 133 868 l 243 868 l 243 0 l 133 0 m 304 975 q 257 995 277 975 q 237 1042 237 1015 q 257 1089 237 1070 q 304 1108 277 1108 q 351 1089 332 1108 q 370 1042 370 1070 q 351 995 370 1015 q 304 975 332 975 m 72 975 q 26 995 45 975 q 6 1042 6 1015 q 26 1089 6 1070 q 72 1108 45 1108 q 120 1089 100 1108 q 139 1042 139 1070 q 120 995 139 1015 q 72 975 100 975 z "},"İ":{"ha":376,"x_min":119,"x_max":258,"o":"m 133 0 l 133 868 l 243 868 l 243 0 l 133 0 m 188 972 q 153 981 169 972 q 128 1006 137 991 q 119 1042 119 1022 q 128 1077 119 1062 q 153 1102 137 1093 q 188 1111 169 1111 q 224 1102 208 1111 q 248 1077 239 1093 q 258 1042 258 1062 q 248 1006 258 1022 q 224 981 239 991 q 188 972 208 972 z "},"Ị":{"ha":376,"x_min":119,"x_max":258,"o":"m 133 0 l 133 868 l 243 868 l 243 0 l 133 0 m 188 -243 q 153 -234 169 -243 q 128 -209 137 -225 q 119 -174 119 -193 q 128 -138 119 -153 q 153 -113 137 -122 q 188 -104 169 -104 q 224 -113 208 -104 q 248 -138 239 -122 q 258 -174 258 -153 q 248 -209 258 -193 q 224 -234 239 -225 q 188 -243 208 -243 z "},"Ì":{"ha":376,"x_min":-38,"x_max":243,"o":"m 133 0 l 133 868 l 243 868 l 243 0 l 133 0 m 136 955 l -38 1128 l 101 1128 l 240 955 l 136 955 z "},"Ỉ":{"ha":376,"x_min":62,"x_max":295,"o":"m 133 0 l 133 868 l 243 868 l 243 0 l 133 0 m 153 955 q 190 1005 177 983 q 204 1045 204 1026 q 190 1078 204 1065 q 150 1091 176 1091 q 111 1080 128 1091 q 83 1056 94 1070 l 62 1138 q 111 1162 83 1155 q 167 1169 140 1169 q 232 1156 204 1169 q 278 1118 261 1143 q 295 1059 295 1094 q 282 1000 295 1026 q 252 955 268 974 l 153 955 z "},"Ȋ":{"ha":376,"x_min":14,"x_max":362,"o":"m 133 0 l 133 868 l 243 868 l 243 0 l 133 0 m 14 940 q 38 1027 14 989 q 100 1087 61 1065 q 188 1108 140 1108 q 276 1086 236 1108 q 339 1026 315 1064 q 362 940 362 989 l 277 940 q 250 1003 277 977 q 188 1029 224 1029 q 126 1003 152 1029 q 99 940 99 977 l 14 940 z "},"Ī":{"ha":376,"x_min":17,"x_max":359,"o":"m 133 0 l 133 868 l 243 868 l 243 0 l 133 0 m 17 1001 l 17 1082 l 359 1082 l 359 1001 l 17 1001 z "},"Į":{"ha":376,"x_min":82,"x_max":262,"o":"m 241 -301 q 130 -261 178 -301 q 82 -148 82 -221 q 95 -72 82 -109 q 133 0 109 -36 l 133 868 l 243 868 l 243 0 q 195 -60 212 -28 q 178 -129 178 -93 q 202 -192 178 -174 q 262 -211 226 -211 l 241 -301 z "},"Ĩ":{"ha":376,"x_min":-24,"x_max":400,"o":"m 133 0 l 133 868 l 243 868 l 243 0 l 133 0 m -2 958 l -24 1050 q 27 1105 -2 1087 q 93 1124 57 1124 q 162 1106 130 1124 q 223 1070 193 1088 q 284 1052 253 1052 q 338 1072 314 1052 q 378 1126 362 1091 l 400 1033 q 350 978 379 997 q 284 960 320 960 q 215 978 246 960 q 154 1013 183 995 q 93 1031 124 1031 q 38 1012 62 1031 q -2 958 14 992 z "},"J":{"ha":521,"x_min":12,"x_max":417,"o":"m 181 -12 q 120 -5 150 -12 q 61 15 89 1 q 12 52 34 29 l 43 168 q 101 109 66 130 q 180 87 136 87 q 269 122 231 87 q 307 247 307 158 l 307 868 l 417 868 l 417 238 q 384 97 417 152 q 298 15 351 41 q 181 -12 244 -12 z "},"Ĵ":{"ha":521,"x_min":12,"x_max":544,"o":"m 181 -12 q 120 -5 150 -12 q 61 15 89 1 q 12 52 34 29 l 43 168 q 101 109 66 130 q 180 87 136 87 q 269 122 231 87 q 307 247 307 158 l 307 868 l 417 868 l 417 238 q 384 97 417 152 q 298 15 351 41 q 181 -12 244 -12 m 179 955 l 361 1166 l 363 1166 l 544 955 l 434 955 q 397 997 414 975 q 360 1048 381 1019 q 322 997 339 1019 q 285 955 306 975 l 179 955 z "},"K":{"ha":752,"x_min":122,"x_max":747,"o":"m 612 0 l 243 535 l 540 868 l 669 868 l 374 536 l 747 0 l 612 0 m 122 0 l 122 868 l 231 868 l 231 0 l 122 0 z "},"Ǩ":{"ha":752,"x_min":122,"x_max":747,"o":"m 612 0 l 243 535 l 540 868 l 669 868 l 374 536 l 747 0 l 612 0 m 122 0 l 122 868 l 231 868 l 231 0 l 122 0 m 356 946 l 175 1157 l 285 1157 q 321 1115 305 1137 q 359 1064 338 1094 q 396 1115 380 1094 q 433 1157 413 1137 l 539 1157 l 358 946 l 356 946 z "},"Ķ":{"ha":752,"x_min":122,"x_max":747,"o":"m 612 0 l 243 535 l 540 868 l 669 868 l 374 536 l 747 0 l 612 0 m 122 0 l 122 868 l 231 868 l 231 0 l 122 0 m 289 -318 q 345 -228 322 -278 q 372 -116 367 -177 l 473 -116 q 449 -222 469 -172 q 401 -318 430 -273 l 289 -318 z "},"L":{"ha":579,"x_min":122,"x_max":532,"o":"m 122 0 l 122 868 l 231 868 l 231 98 l 532 98 l 532 0 l 122 0 z "},"Ǉ":{"ha":1100,"x_min":122,"x_max":995,"o":"m 122 0 l 122 868 l 231 868 l 231 98 l 532 98 l 532 0 l 122 0 m 760 -12 q 698 -5 729 -12 q 640 15 667 1 q 590 52 612 29 l 622 168 q 679 109 644 130 q 759 87 715 87 q 848 122 810 87 q 885 247 885 158 l 885 868 l 995 868 l 995 238 q 963 97 995 152 q 876 15 930 41 q 760 -12 823 -12 z "},"Ĺ":{"ha":579,"x_min":122,"x_max":532,"o":"m 122 0 l 122 868 l 231 868 l 231 98 l 532 98 l 532 0 l 122 0 m 124 955 l 263 1128 l 402 1128 l 229 955 l 124 955 z "},"Ľ":{"ha":579,"x_min":122,"x_max":532,"o":"m 122 0 l 122 868 l 231 868 l 231 98 l 532 98 l 532 0 l 122 0 m 297 579 q 367 704 340 633 q 394 868 394 775 l 486 868 q 463 713 486 785 q 401 579 441 640 l 297 579 z "},"Ļ":{"ha":579,"x_min":122,"x_max":532,"o":"m 122 0 l 122 868 l 231 868 l 231 98 l 532 98 l 532 0 l 122 0 m 194 -318 q 249 -228 227 -278 q 277 -116 272 -177 l 377 -116 q 354 -222 373 -172 q 306 -318 335 -273 l 194 -318 z "},"Ŀ":{"ha":579,"x_min":122,"x_max":532,"o":"m 122 0 l 122 868 l 231 868 l 231 98 l 532 98 l 532 0 l 122 0 m 405 394 q 356 414 376 394 q 336 463 336 434 q 356 513 336 493 q 405 532 376 532 q 455 513 435 532 q 475 463 475 493 q 455 414 475 434 q 405 394 435 394 z "},"ǈ":{"ha":868,"x_min":122,"x_max":793,"o":"m 122 0 l 122 868 l 231 868 l 231 98 l 532 98 l 532 0 l 122 0 m 609 -301 l 587 -211 q 647 -191 623 -211 q 671 -118 671 -171 l 671 579 l 775 579 l 775 -120 q 728 -254 775 -206 q 609 -301 680 -301 m 723 683 q 688 692 704 683 q 663 717 672 701 q 654 752 654 733 q 663 788 654 773 q 688 813 672 803 q 723 822 704 822 q 759 813 744 822 q 784 788 774 803 q 793 752 793 773 q 784 717 793 733 q 759 692 774 701 q 723 683 744 683 z "},"Ł":{"ha":608,"x_min":23,"x_max":561,"o":"m 150 0 l 150 356 l 64 299 l 23 361 l 150 444 l 150 868 l 260 868 l 260 516 l 457 644 l 498 583 l 260 427 l 260 98 l 561 98 l 561 0 l 150 0 z "},"M":{"ha":1042,"x_min":122,"x_max":920,"o":"m 122 0 l 122 897 l 123 897 l 525 341 l 918 897 l 920 897 l 920 0 l 810 0 l 810 401 q 811 488 810 441 q 818 594 812 534 q 760 501 788 541 q 708 427 731 461 l 521 162 l 328 427 q 276 501 304 461 q 218 594 249 541 q 225 488 224 534 q 226 401 226 441 l 226 0 l 122 0 z "},"N":{"ha":955,"x_min":122,"x_max":833,"o":"m 831 -29 l 226 622 l 226 0 l 122 0 l 122 897 l 123 897 l 729 246 l 729 868 l 833 868 l 833 -29 l 831 -29 z "},"Ǌ":{"ha":1476,"x_min":122,"x_max":1372,"o":"m 831 -29 l 226 622 l 226 0 l 122 0 l 122 897 l 123 897 l 729 246 l 729 868 l 833 868 l 833 -29 l 831 -29 m 1136 -12 q 1074 -5 1105 -12 q 1016 15 1044 1 q 966 52 989 29 l 998 168 q 1056 109 1020 130 q 1135 87 1091 87 q 1224 122 1186 87 q 1262 247 1262 158 l 1262 868 l 1372 868 l 1372 238 q 1339 97 1372 152 q 1252 15 1306 41 q 1136 -12 1199 -12 z "},"Ń":{"ha":955,"x_min":122,"x_max":833,"o":"m 831 -29 l 226 622 l 226 0 l 122 0 l 122 897 l 123 897 l 729 246 l 729 868 l 833 868 l 833 -29 l 831 -29 m 396 897 l 535 1071 l 674 1071 l 501 897 l 396 897 z "},"Ň":{"ha":955,"x_min":122,"x_max":833,"o":"m 831 -29 l 226 622 l 226 0 l 122 0 l 122 897 l 123 897 l 729 246 l 729 868 l 833 868 l 833 -29 l 831 -29 m 448 888 l 266 1100 l 376 1100 q 413 1058 396 1079 q 450 1006 429 1036 q 488 1058 472 1036 q 525 1100 504 1079 l 631 1100 l 449 888 l 448 888 z "},"Ņ":{"ha":955,"x_min":122,"x_max":833,"o":"m 831 -29 l 226 622 l 226 0 l 122 0 l 122 897 l 123 897 l 729 246 l 729 868 l 833 868 l 833 -29 l 831 -29 m 344 -318 q 400 -228 377 -278 q 427 -116 422 -177 l 528 -116 q 504 -222 524 -172 q 456 -318 485 -273 l 344 -318 z "},"ǋ":{"ha":1244,"x_min":122,"x_max":1169,"o":"m 831 -29 l 226 622 l 226 0 l 122 0 l 122 897 l 123 897 l 729 246 l 729 868 l 833 868 l 833 -29 l 831 -29 m 985 -301 l 964 -211 q 1023 -191 999 -211 q 1047 -118 1047 -171 l 1047 579 l 1152 579 l 1152 -120 q 1104 -254 1152 -206 q 985 -301 1056 -301 m 1100 683 q 1064 692 1080 683 q 1039 717 1048 701 q 1030 752 1030 733 q 1039 788 1030 773 q 1064 813 1048 803 q 1100 822 1080 822 q 1135 813 1120 822 q 1160 788 1151 803 q 1169 752 1169 773 q 1160 717 1169 733 q 1135 692 1151 701 q 1100 683 1120 683 z "},"Ñ":{"ha":955,"x_min":122,"x_max":833,"o":"m 831 -29 l 226 622 l 226 0 l 122 0 l 122 897 l 123 897 l 729 246 l 729 868 l 833 868 l 833 -29 l 831 -29 m 258 900 l 236 992 q 288 1047 258 1029 q 353 1066 317 1066 q 422 1048 391 1066 q 483 1012 453 1030 q 544 994 513 994 q 598 1014 575 994 q 639 1068 622 1033 l 661 975 q 610 921 639 939 q 544 902 581 902 q 475 920 506 902 q 414 955 444 938 q 353 973 385 973 q 299 954 322 973 q 258 900 275 935 z "},"Ŋ":{"ha":955,"x_min":122,"x_max":833,"o":"m 604 -185 q 512 -171 557 -185 q 434 -122 467 -156 l 466 -6 q 523 -65 488 -43 q 603 -87 558 -87 q 692 -51 654 -87 q 729 73 729 -15 l 729 83 l 226 622 l 226 0 l 122 0 l 122 897 l 123 897 l 729 246 l 729 868 l 833 868 l 833 59 q 802 -79 833 -25 q 717 -159 770 -133 q 604 -185 665 -185 z "},"O":{"ha":1022,"x_min":58,"x_max":965,"o":"m 511 -17 q 335 18 418 -17 q 190 115 253 53 q 93 258 128 177 q 58 434 58 340 q 93 610 58 528 q 190 753 128 692 q 335 850 253 815 q 511 885 418 885 q 688 850 606 885 q 832 753 770 815 q 929 610 894 692 q 965 434 965 528 q 929 258 965 340 q 832 115 894 177 q 688 18 770 53 q 511 -17 606 -17 m 511 87 q 644 114 583 87 q 752 189 706 141 q 825 299 799 236 q 851 434 851 362 q 825 569 851 506 q 752 679 799 632 q 644 754 706 727 q 511 781 583 781 q 378 754 440 781 q 270 679 316 727 q 198 569 224 632 q 172 434 172 506 q 198 299 172 362 q 270 189 224 236 q 378 114 316 141 q 511 87 440 87 z "},"Ó":{"ha":1022,"x_min":58,"x_max":965,"o":"m 511 -17 q 335 18 418 -17 q 190 115 253 53 q 93 258 128 177 q 58 434 58 340 q 93 610 58 528 q 190 753 128 692 q 335 850 253 815 q 511 885 418 885 q 688 850 606 885 q 832 753 770 815 q 929 610 894 692 q 965 434 965 528 q 929 258 965 340 q 832 115 894 177 q 688 18 770 53 q 511 -17 606 -17 m 511 87 q 644 114 583 87 q 752 189 706 141 q 825 299 799 236 q 851 434 851 362 q 825 569 851 506 q 752 679 799 632 q 644 754 706 727 q 511 781 583 781 q 378 754 440 781 q 270 679 316 727 q 198 569 224 632 q 172 434 172 506 q 198 299 172 362 q 270 189 224 236 q 378 114 316 141 q 511 87 440 87 m 459 955 l 598 1128 l 737 1128 l 563 955 l 459 955 z "},"Ŏ":{"ha":1022,"x_min":58,"x_max":965,"o":"m 511 -17 q 335 18 418 -17 q 190 115 253 53 q 93 258 128 177 q 58 434 58 340 q 93 610 58 528 q 190 753 128 692 q 335 850 253 815 q 511 885 418 885 q 688 850 606 885 q 832 753 770 815 q 929 610 894 692 q 965 434 965 528 q 929 258 965 340 q 832 115 894 177 q 688 18 770 53 q 511 -17 606 -17 m 511 87 q 644 114 583 87 q 752 189 706 141 q 825 299 799 236 q 851 434 851 362 q 825 569 851 506 q 752 679 799 632 q 644 754 706 727 q 511 781 583 781 q 378 754 440 781 q 270 679 316 727 q 198 569 224 632 q 172 434 172 506 q 198 299 172 362 q 270 189 224 236 q 378 114 316 141 q 511 87 440 87 m 511 940 q 423 963 463 940 q 361 1023 384 985 q 338 1108 338 1061 l 422 1108 q 449 1046 422 1072 q 511 1019 476 1019 q 573 1046 547 1019 q 600 1108 600 1072 l 685 1108 q 662 1022 685 1060 q 599 962 639 984 q 511 940 560 940 z "},"Ô":{"ha":1022,"x_min":58,"x_max":965,"o":"m 511 -17 q 335 18 418 -17 q 190 115 253 53 q 93 258 128 177 q 58 434 58 340 q 93 610 58 528 q 190 753 128 692 q 335 850 253 815 q 511 885 418 885 q 688 850 606 885 q 832 753 770 815 q 929 610 894 692 q 965 434 965 528 q 929 258 965 340 q 832 115 894 177 q 688 18 770 53 q 511 -17 606 -17 m 511 87 q 644 114 583 87 q 752 189 706 141 q 825 299 799 236 q 851 434 851 362 q 825 569 851 506 q 752 679 799 632 q 644 754 706 727 q 511 781 583 781 q 378 754 440 781 q 270 679 316 727 q 198 569 224 632 q 172 434 172 506 q 198 299 172 362 q 270 189 224 236 q 378 114 316 141 q 511 87 440 87 m 329 955 l 510 1166 l 512 1166 l 693 955 l 584 955 q 547 997 563 975 q 509 1048 530 1019 q 472 997 488 1019 q 435 955 455 975 l 329 955 z "},"Ố":{"ha":1022,"x_min":58,"x_max":965,"o":"m 511 -17 q 335 18 418 -17 q 190 115 253 53 q 93 258 128 177 q 58 434 58 340 q 93 610 58 528 q 190 753 128 692 q 335 850 253 815 q 511 885 418 885 q 688 850 606 885 q 832 753 770 815 q 929 610 894 692 q 965 434 965 528 q 929 258 965 340 q 832 115 894 177 q 688 18 770 53 q 511 -17 606 -17 m 511 87 q 644 114 583 87 q 752 189 706 141 q 825 299 799 236 q 851 434 851 362 q 825 569 851 506 q 752 679 799 632 q 644 754 706 727 q 511 781 583 781 q 378 754 440 781 q 270 679 316 727 q 198 569 224 632 q 172 434 172 506 q 198 299 172 362 q 270 189 224 236 q 378 114 316 141 q 511 87 440 87 m 639 1079 l 712 1224 l 820 1224 l 720 1079 l 639 1079 m 329 955 l 510 1166 l 512 1166 l 693 955 l 584 955 q 547 997 563 975 q 509 1048 530 1019 q 472 997 488 1019 q 435 955 455 975 l 329 955 z "},"Ộ":{"ha":1022,"x_min":58,"x_max":965,"o":"m 511 -17 q 335 18 418 -17 q 190 115 253 53 q 93 258 128 177 q 58 434 58 340 q 93 610 58 528 q 190 753 128 692 q 335 850 253 815 q 511 885 418 885 q 688 850 606 885 q 832 753 770 815 q 929 610 894 692 q 965 434 965 528 q 929 258 965 340 q 832 115 894 177 q 688 18 770 53 q 511 -17 606 -17 m 511 87 q 644 114 583 87 q 752 189 706 141 q 825 299 799 236 q 851 434 851 362 q 825 569 851 506 q 752 679 799 632 q 644 754 706 727 q 511 781 583 781 q 378 754 440 781 q 270 679 316 727 q 198 569 224 632 q 172 434 172 506 q 198 299 172 362 q 270 189 224 236 q 378 114 316 141 q 511 87 440 87 m 511 -243 q 476 -234 492 -243 q 451 -209 460 -225 q 442 -174 442 -193 q 451 -138 442 -153 q 476 -113 460 -122 q 511 -104 492 -104 q 547 -113 531 -104 q 571 -138 562 -122 q 581 -174 581 -153 q 571 -209 581 -193 q 547 -234 562 -225 q 511 -243 531 -243 m 329 955 l 510 1166 l 512 1166 l 693 955 l 584 955 q 547 997 563 975 q 509 1048 530 1019 q 472 997 488 1019 q 435 955 455 975 l 329 955 z "},"Ồ":{"ha":1022,"x_min":58,"x_max":965,"o":"m 511 -17 q 335 18 418 -17 q 190 115 253 53 q 93 258 128 177 q 58 434 58 340 q 93 610 58 528 q 190 753 128 692 q 335 850 253 815 q 511 885 418 885 q 688 850 606 885 q 832 753 770 815 q 929 610 894 692 q 965 434 965 528 q 929 258 965 340 q 832 115 894 177 q 688 18 770 53 q 511 -17 606 -17 m 511 87 q 644 114 583 87 q 752 189 706 141 q 825 299 799 236 q 851 434 851 362 q 825 569 851 506 q 752 679 799 632 q 644 754 706 727 q 511 781 583 781 q 378 754 440 781 q 270 679 316 727 q 198 569 224 632 q 172 434 172 506 q 198 299 172 362 q 270 189 224 236 q 378 114 316 141 q 511 87 440 87 m 710 1079 l 610 1224 l 718 1224 l 791 1079 l 710 1079 m 329 955 l 510 1166 l 512 1166 l 693 955 l 584 955 q 547 997 563 975 q 509 1048 530 1019 q 472 997 488 1019 q 435 955 455 975 l 329 955 z "},"Ổ":{"ha":1022,"x_min":58,"x_max":965,"o":"m 511 -17 q 335 18 418 -17 q 190 115 253 53 q 93 258 128 177 q 58 434 58 340 q 93 610 58 528 q 190 753 128 692 q 335 850 253 815 q 511 885 418 885 q 688 850 606 885 q 832 753 770 815 q 929 610 894 692 q 965 434 965 528 q 929 258 965 340 q 832 115 894 177 q 688 18 770 53 q 511 -17 606 -17 m 511 87 q 644 114 583 87 q 752 189 706 141 q 825 299 799 236 q 851 434 851 362 q 825 569 851 506 q 752 679 799 632 q 644 754 706 727 q 511 781 583 781 q 378 754 440 781 q 270 679 316 727 q 198 569 224 632 q 172 434 172 506 q 198 299 172 362 q 270 189 224 236 q 378 114 316 141 q 511 87 440 87 m 673 1079 q 707 1118 694 1101 q 720 1150 720 1135 q 707 1180 720 1168 q 673 1192 694 1192 q 639 1182 655 1192 q 612 1160 623 1173 l 594 1233 q 638 1255 613 1248 q 685 1262 662 1262 q 766 1235 732 1262 q 801 1160 801 1208 q 788 1116 801 1136 q 760 1079 776 1096 l 673 1079 m 329 955 l 510 1166 l 512 1166 l 693 955 l 584 955 q 547 997 563 975 q 509 1048 530 1019 q 472 997 488 1019 q 435 955 455 975 l 329 955 z "},"Ỗ":{"ha":1022,"x_min":58,"x_max":965,"o":"m 511 -17 q 335 18 418 -17 q 190 115 253 53 q 93 258 128 177 q 58 434 58 340 q 93 610 58 528 q 190 753 128 692 q 335 850 253 815 q 511 885 418 885 q 688 850 606 885 q 832 753 770 815 q 929 610 894 692 q 965 434 965 528 q 929 258 965 340 q 832 115 894 177 q 688 18 770 53 q 511 -17 606 -17 m 511 87 q 644 114 583 87 q 752 189 706 141 q 825 299 799 236 q 851 434 851 362 q 825 569 851 506 q 752 679 799 632 q 644 754 706 727 q 511 781 583 781 q 378 754 440 781 q 270 679 316 727 q 198 569 224 632 q 172 434 172 506 q 198 299 172 362 q 270 189 224 236 q 378 114 316 141 q 511 87 440 87 m 329 955 l 510 1155 l 512 1155 l 693 955 l 584 955 q 547 994 563 974 q 509 1041 530 1014 q 472 994 488 1014 q 435 955 455 974 l 329 955 m 368 1150 l 343 1220 q 384 1267 360 1251 q 438 1284 408 1284 q 488 1273 464 1284 q 535 1252 512 1263 q 580 1241 557 1241 q 624 1257 606 1241 q 654 1300 642 1273 l 679 1230 q 639 1183 664 1199 q 584 1167 615 1167 q 534 1178 558 1167 q 488 1198 510 1188 q 443 1209 465 1209 q 368 1150 393 1209 z "},"Ȍ":{"ha":1022,"x_min":58,"x_max":965,"o":"m 511 -17 q 335 18 418 -17 q 190 115 253 53 q 93 258 128 177 q 58 434 58 340 q 93 610 58 528 q 190 753 128 692 q 335 850 253 815 q 511 885 418 885 q 688 850 606 885 q 832 753 770 815 q 929 610 894 692 q 965 434 965 528 q 929 258 965 340 q 832 115 894 177 q 688 18 770 53 q 511 -17 606 -17 m 511 87 q 644 114 583 87 q 752 189 706 141 q 825 299 799 236 q 851 434 851 362 q 825 569 851 506 q 752 679 799 632 q 644 754 706 727 q 511 781 583 781 q 378 754 440 781 q 270 679 316 727 q 198 569 224 632 q 172 434 172 506 q 198 299 172 362 q 270 189 224 236 q 378 114 316 141 q 511 87 440 87 m 578 955 l 480 1128 l 596 1128 l 660 955 l 578 955 m 364 955 l 266 1128 l 382 1128 l 446 955 l 364 955 z "},"Ö":{"ha":1022,"x_min":58,"x_max":965,"o":"m 511 -17 q 335 18 418 -17 q 190 115 253 53 q 93 258 128 177 q 58 434 58 340 q 93 610 58 528 q 190 753 128 692 q 335 850 253 815 q 511 885 418 885 q 688 850 606 885 q 832 753 770 815 q 929 610 894 692 q 965 434 965 528 q 929 258 965 340 q 832 115 894 177 q 688 18 770 53 q 511 -17 606 -17 m 511 87 q 644 114 583 87 q 752 189 706 141 q 825 299 799 236 q 851 434 851 362 q 825 569 851 506 q 752 679 799 632 q 644 754 706 727 q 511 781 583 781 q 378 754 440 781 q 270 679 316 727 q 198 569 224 632 q 172 434 172 506 q 198 299 172 362 q 270 189 224 236 q 378 114 316 141 q 511 87 440 87 m 772 885 q 736 895 752 885 q 711 920 720 904 q 702 955 702 936 q 711 991 702 975 q 736 1015 720 1006 q 772 1024 752 1024 q 807 1015 792 1024 q 832 991 823 1006 q 841 955 841 975 q 832 920 841 936 q 807 895 823 904 q 772 885 792 885 m 251 885 q 216 895 231 885 q 190 920 200 904 q 181 955 181 936 q 190 991 181 975 q 216 1015 200 1006 q 251 1024 231 1024 q 286 1015 271 1024 q 311 991 302 1006 q 320 955 320 975 q 311 920 320 936 q 286 895 302 904 q 251 885 271 885 z "},"Ȫ":{"ha":1022,"x_min":58,"x_max":965,"o":"m 511 -17 q 335 18 418 -17 q 190 115 253 53 q 93 258 128 177 q 58 434 58 340 q 93 610 58 528 q 190 753 128 692 q 335 850 253 815 q 511 885 418 885 q 688 850 606 885 q 832 753 770 815 q 929 610 894 692 q 965 434 965 528 q 929 258 965 340 q 832 115 894 177 q 688 18 770 53 q 511 -17 606 -17 m 511 87 q 644 114 583 87 q 752 189 706 141 q 825 299 799 236 q 851 434 851 362 q 825 569 851 506 q 752 679 799 632 q 644 754 706 727 q 511 781 583 781 q 378 754 440 781 q 270 679 316 727 q 198 569 224 632 q 172 434 172 506 q 198 299 172 362 q 270 189 224 236 q 378 114 316 141 q 511 87 440 87 m 346 1178 l 346 1253 l 676 1253 l 676 1178 l 346 1178 m 395 975 q 362 984 377 975 q 338 1008 347 993 q 329 1042 329 1023 q 338 1076 329 1061 q 362 1100 347 1091 q 395 1108 377 1108 q 430 1100 415 1108 q 453 1076 445 1091 q 462 1042 462 1061 q 453 1008 462 1023 q 430 984 445 993 q 395 975 415 975 m 627 975 q 594 984 609 975 q 570 1008 579 993 q 560 1042 560 1023 q 570 1076 560 1061 q 594 1100 579 1091 q 627 1108 609 1108 q 661 1100 646 1108 q 685 1076 676 1091 q 693 1042 693 1061 q 685 1008 693 1023 q 661 984 676 993 q 627 975 646 975 z "},"Ȱ":{"ha":1022,"x_min":58,"x_max":965,"o":"m 511 -17 q 335 18 418 -17 q 190 115 253 53 q 93 258 128 177 q 58 434 58 340 q 93 610 58 528 q 190 753 128 692 q 335 850 253 815 q 511 885 418 885 q 688 850 606 885 q 832 753 770 815 q 929 610 894 692 q 965 434 965 528 q 929 258 965 340 q 832 115 894 177 q 688 18 770 53 q 511 -17 606 -17 m 511 87 q 644 114 583 87 q 752 189 706 141 q 825 299 799 236 q 851 434 851 362 q 825 569 851 506 q 752 679 799 632 q 644 754 706 727 q 511 781 583 781 q 378 754 440 781 q 270 679 316 727 q 198 569 224 632 q 172 434 172 506 q 198 299 172 362 q 270 189 224 236 q 378 114 316 141 q 511 87 440 87 m 511 975 q 478 984 493 975 q 454 1008 463 993 q 445 1042 445 1023 q 454 1076 445 1061 q 478 1100 463 1091 q 511 1108 493 1108 q 545 1100 530 1108 q 569 1076 560 1091 q 578 1042 578 1061 q 569 1008 578 1023 q 545 984 560 993 q 511 975 530 975 m 346 1178 l 346 1253 l 676 1253 l 676 1178 l 346 1178 z "},"Ọ":{"ha":1022,"x_min":58,"x_max":965,"o":"m 511 -17 q 335 18 418 -17 q 190 115 253 53 q 93 258 128 177 q 58 434 58 340 q 93 610 58 528 q 190 753 128 692 q 335 850 253 815 q 511 885 418 885 q 688 850 606 885 q 832 753 770 815 q 929 610 894 692 q 965 434 965 528 q 929 258 965 340 q 832 115 894 177 q 688 18 770 53 q 511 -17 606 -17 m 511 87 q 644 114 583 87 q 752 189 706 141 q 825 299 799 236 q 851 434 851 362 q 825 569 851 506 q 752 679 799 632 q 644 754 706 727 q 511 781 583 781 q 378 754 440 781 q 270 679 316 727 q 198 569 224 632 q 172 434 172 506 q 198 299 172 362 q 270 189 224 236 q 378 114 316 141 q 511 87 440 87 m 511 -243 q 476 -234 492 -243 q 451 -209 460 -225 q 442 -174 442 -193 q 451 -138 442 -153 q 476 -113 460 -122 q 511 -104 492 -104 q 547 -113 531 -104 q 571 -138 562 -122 q 581 -174 581 -153 q 571 -209 581 -193 q 547 -234 562 -225 q 511 -243 531 -243 z "},"Ò":{"ha":1022,"x_min":58,"x_max":965,"o":"m 511 -17 q 335 18 418 -17 q 190 115 253 53 q 93 258 128 177 q 58 434 58 340 q 93 610 58 528 q 190 753 128 692 q 335 850 253 815 q 511 885 418 885 q 688 850 606 885 q 832 753 770 815 q 929 610 894 692 q 965 434 965 528 q 929 258 965 340 q 832 115 894 177 q 688 18 770 53 q 511 -17 606 -17 m 511 87 q 644 114 583 87 q 752 189 706 141 q 825 299 799 236 q 851 434 851 362 q 825 569 851 506 q 752 679 799 632 q 644 754 706 727 q 511 781 583 781 q 378 754 440 781 q 270 679 316 727 q 198 569 224 632 q 172 434 172 506 q 198 299 172 362 q 270 189 224 236 q 378 114 316 141 q 511 87 440 87 m 459 955 l 285 1128 l 424 1128 l 563 955 l 459 955 z "},"Ỏ":{"ha":1022,"x_min":58,"x_max":965,"o":"m 511 -17 q 335 18 418 -17 q 190 115 253 53 q 93 258 128 177 q 58 434 58 340 q 93 610 58 528 q 190 753 128 692 q 335 850 253 815 q 511 885 418 885 q 688 850 606 885 q 832 753 770 815 q 929 610 894 692 q 965 434 965 528 q 929 258 965 340 q 832 115 894 177 q 688 18 770 53 q 511 -17 606 -17 m 511 87 q 644 114 583 87 q 752 189 706 141 q 825 299 799 236 q 851 434 851 362 q 825 569 851 506 q 752 679 799 632 q 644 754 706 727 q 511 781 583 781 q 378 754 440 781 q 270 679 316 727 q 198 569 224 632 q 172 434 172 506 q 198 299 172 362 q 270 189 224 236 q 378 114 316 141 q 511 87 440 87 m 476 955 q 514 1005 501 983 q 527 1045 527 1026 q 513 1078 527 1065 q 474 1091 499 1091 q 434 1080 451 1091 q 406 1056 417 1070 l 385 1138 q 435 1162 406 1155 q 490 1169 463 1169 q 556 1156 527 1169 q 601 1118 584 1143 q 618 1059 618 1094 q 605 1000 618 1026 q 575 955 591 974 l 476 955 z "},"Ơ":{"ha":1022,"x_min":58,"x_max":970,"o":"m 511 -17 q 335 18 418 -17 q 190 115 253 53 q 93 258 128 177 q 58 434 58 340 q 93 610 58 528 q 190 753 128 692 q 335 850 253 815 q 511 885 418 885 q 688 850 606 885 q 831 754 770 815 q 857 772 847 760 q 872 801 867 784 q 878 837 878 818 q 873 878 878 855 q 855 926 868 902 l 947 926 q 965 881 961 903 q 970 837 970 858 q 959 770 970 800 q 930 719 948 740 q 887 687 911 698 q 944 569 924 634 q 965 434 965 504 q 929 258 965 340 q 832 115 894 177 q 688 18 770 53 q 511 -17 606 -17 m 511 87 q 644 114 583 87 q 752 189 706 141 q 825 299 799 236 q 851 434 851 362 q 825 569 851 506 q 752 679 799 632 q 644 754 706 727 q 511 781 583 781 q 378 754 440 781 q 270 679 316 727 q 198 569 224 632 q 172 434 172 506 q 198 299 172 362 q 270 189 224 236 q 378 114 316 141 q 511 87 440 87 z "},"Ớ":{"ha":1022,"x_min":58,"x_max":970,"o":"m 511 -17 q 335 18 418 -17 q 190 115 253 53 q 93 258 128 177 q 58 434 58 340 q 93 610 58 528 q 190 753 128 692 q 335 850 253 815 q 511 885 418 885 q 688 850 606 885 q 831 754 770 815 q 857 772 847 760 q 872 801 867 784 q 878 837 878 818 q 873 878 878 855 q 855 926 868 902 l 947 926 q 965 881 961 903 q 970 837 970 858 q 959 770 970 800 q 930 719 948 740 q 887 687 911 698 q 944 569 924 634 q 965 434 965 504 q 929 258 965 340 q 832 115 894 177 q 688 18 770 53 q 511 -17 606 -17 m 511 87 q 644 114 583 87 q 752 189 706 141 q 825 299 799 236 q 851 434 851 362 q 825 569 851 506 q 752 679 799 632 q 644 754 706 727 q 511 781 583 781 q 378 754 440 781 q 270 679 316 727 q 198 569 224 632 q 172 434 172 506 q 198 299 172 362 q 270 189 224 236 q 378 114 316 141 q 511 87 440 87 m 459 955 l 598 1128 l 737 1128 l 563 955 l 459 955 z "},"Ợ":{"ha":1022,"x_min":58,"x_max":970,"o":"m 511 -17 q 335 18 418 -17 q 190 115 253 53 q 93 258 128 177 q 58 434 58 340 q 93 610 58 528 q 190 753 128 692 q 335 850 253 815 q 511 885 418 885 q 688 850 606 885 q 831 754 770 815 q 857 772 847 760 q 872 801 867 784 q 878 837 878 818 q 873 878 878 855 q 855 926 868 902 l 947 926 q 965 881 961 903 q 970 837 970 858 q 959 770 970 800 q 930 719 948 740 q 887 687 911 698 q 944 569 924 634 q 965 434 965 504 q 929 258 965 340 q 832 115 894 177 q 688 18 770 53 q 511 -17 606 -17 m 511 87 q 644 114 583 87 q 752 189 706 141 q 825 299 799 236 q 851 434 851 362 q 825 569 851 506 q 752 679 799 632 q 644 754 706 727 q 511 781 583 781 q 378 754 440 781 q 270 679 316 727 q 198 569 224 632 q 172 434 172 506 q 198 299 172 362 q 270 189 224 236 q 378 114 316 141 q 511 87 440 87 m 511 -243 q 476 -234 492 -243 q 451 -209 460 -225 q 442 -174 442 -193 q 451 -138 442 -153 q 476 -113 460 -122 q 511 -104 492 -104 q 547 -113 531 -104 q 571 -138 562 -122 q 581 -174 581 -153 q 571 -209 581 -193 q 547 -234 562 -225 q 511 -243 531 -243 z "},"Ờ":{"ha":1022,"x_min":58,"x_max":970,"o":"m 511 -17 q 335 18 418 -17 q 190 115 253 53 q 93 258 128 177 q 58 434 58 340 q 93 610 58 528 q 190 753 128 692 q 335 850 253 815 q 511 885 418 885 q 688 850 606 885 q 831 754 770 815 q 857 772 847 760 q 872 801 867 784 q 878 837 878 818 q 873 878 878 855 q 855 926 868 902 l 947 926 q 965 881 961 903 q 970 837 970 858 q 959 770 970 800 q 930 719 948 740 q 887 687 911 698 q 944 569 924 634 q 965 434 965 504 q 929 258 965 340 q 832 115 894 177 q 688 18 770 53 q 511 -17 606 -17 m 511 87 q 644 114 583 87 q 752 189 706 141 q 825 299 799 236 q 851 434 851 362 q 825 569 851 506 q 752 679 799 632 q 644 754 706 727 q 511 781 583 781 q 378 754 440 781 q 270 679 316 727 q 198 569 224 632 q 172 434 172 506 q 198 299 172 362 q 270 189 224 236 q 378 114 316 141 q 511 87 440 87 m 459 955 l 285 1128 l 424 1128 l 563 955 l 459 955 z "},"Ở":{"ha":1022,"x_min":58,"x_max":970,"o":"m 511 -17 q 335 18 418 -17 q 190 115 253 53 q 93 258 128 177 q 58 434 58 340 q 93 610 58 528 q 190 753 128 692 q 335 850 253 815 q 511 885 418 885 q 688 850 606 885 q 831 754 770 815 q 857 772 847 760 q 872 801 867 784 q 878 837 878 818 q 873 878 878 855 q 855 926 868 902 l 947 926 q 965 881 961 903 q 970 837 970 858 q 959 770 970 800 q 930 719 948 740 q 887 687 911 698 q 944 569 924 634 q 965 434 965 504 q 929 258 965 340 q 832 115 894 177 q 688 18 770 53 q 511 -17 606 -17 m 511 87 q 644 114 583 87 q 752 189 706 141 q 825 299 799 236 q 851 434 851 362 q 825 569 851 506 q 752 679 799 632 q 644 754 706 727 q 511 781 583 781 q 378 754 440 781 q 270 679 316 727 q 198 569 224 632 q 172 434 172 506 q 198 299 172 362 q 270 189 224 236 q 378 114 316 141 q 511 87 440 87 m 476 955 q 514 1005 501 983 q 527 1045 527 1026 q 513 1078 527 1065 q 474 1091 499 1091 q 434 1080 451 1091 q 406 1056 417 1070 l 385 1138 q 435 1162 406 1155 q 490 1169 463 1169 q 556 1156 527 1169 q 601 1118 584 1143 q 618 1059 618 1094 q 605 1000 618 1026 q 575 955 591 974 l 476 955 z "},"Ỡ":{"ha":1022,"x_min":58,"x_max":970,"o":"m 511 -17 q 335 18 418 -17 q 190 115 253 53 q 93 258 128 177 q 58 434 58 340 q 93 610 58 528 q 190 753 128 692 q 335 850 253 815 q 511 885 418 885 q 688 850 606 885 q 831 754 770 815 q 857 772 847 760 q 872 801 867 784 q 878 837 878 818 q 873 878 878 855 q 855 926 868 902 l 947 926 q 965 881 961 903 q 970 837 970 858 q 959 770 970 800 q 930 719 948 740 q 887 687 911 698 q 944 569 924 634 q 965 434 965 504 q 929 258 965 340 q 832 115 894 177 q 688 18 770 53 q 511 -17 606 -17 m 511 87 q 644 114 583 87 q 752 189 706 141 q 825 299 799 236 q 851 434 851 362 q 825 569 851 506 q 752 679 799 632 q 644 754 706 727 q 511 781 583 781 q 378 754 440 781 q 270 679 316 727 q 198 569 224 632 q 172 434 172 506 q 198 299 172 362 q 270 189 224 236 q 378 114 316 141 q 511 87 440 87 m 321 958 l 299 1050 q 351 1105 321 1087 q 416 1124 380 1124 q 485 1106 453 1124 q 546 1070 516 1088 q 607 1052 576 1052 q 661 1072 638 1052 q 701 1126 685 1091 l 723 1033 q 673 978 702 997 q 607 960 643 960 q 538 978 569 960 q 477 1013 506 995 q 416 1031 448 1031 q 361 1012 385 1031 q 321 958 338 992 z "},"Ő":{"ha":1022,"x_min":58,"x_max":965,"o":"m 511 -17 q 335 18 418 -17 q 190 115 253 53 q 93 258 128 177 q 58 434 58 340 q 93 610 58 528 q 190 753 128 692 q 335 850 253 815 q 511 885 418 885 q 688 850 606 885 q 832 753 770 815 q 929 610 894 692 q 965 434 965 528 q 929 258 965 340 q 832 115 894 177 q 688 18 770 53 q 511 -17 606 -17 m 511 87 q 644 114 583 87 q 752 189 706 141 q 825 299 799 236 q 851 434 851 362 q 825 569 851 506 q 752 679 799 632 q 644 754 706 727 q 511 781 583 781 q 378 754 440 781 q 270 679 316 727 q 198 569 224 632 q 172 434 172 506 q 198 299 172 362 q 270 189 224 236 q 378 114 316 141 q 511 87 440 87 m 577 955 l 640 1128 l 756 1128 l 659 955 l 577 955 m 363 955 l 426 1128 l 542 1128 l 445 955 l 363 955 z "},"Ȏ":{"ha":1022,"x_min":58,"x_max":965,"o":"m 511 -17 q 335 18 418 -17 q 190 115 253 53 q 93 258 128 177 q 58 434 58 340 q 93 610 58 528 q 190 753 128 692 q 335 850 253 815 q 511 885 418 885 q 688 850 606 885 q 832 753 770 815 q 929 610 894 692 q 965 434 965 528 q 929 258 965 340 q 832 115 894 177 q 688 18 770 53 q 511 -17 606 -17 m 511 87 q 644 114 583 87 q 752 189 706 141 q 825 299 799 236 q 851 434 851 362 q 825 569 851 506 q 752 679 799 632 q 644 754 706 727 q 511 781 583 781 q 378 754 440 781 q 270 679 316 727 q 198 569 224 632 q 172 434 172 506 q 198 299 172 362 q 270 189 224 236 q 378 114 316 141 q 511 87 440 87 m 338 940 q 361 1027 338 989 q 423 1087 384 1065 q 511 1108 463 1108 q 599 1086 559 1108 q 662 1026 639 1064 q 685 940 685 989 l 600 940 q 573 1003 600 977 q 511 1029 547 1029 q 449 1003 476 1029 q 422 940 422 977 l 338 940 z "},"Ō":{"ha":1022,"x_min":58,"x_max":965,"o":"m 511 -17 q 335 18 418 -17 q 190 115 253 53 q 93 258 128 177 q 58 434 58 340 q 93 610 58 528 q 190 753 128 692 q 335 850 253 815 q 511 885 418 885 q 688 850 606 885 q 832 753 770 815 q 929 610 894 692 q 965 434 965 528 q 929 258 965 340 q 832 115 894 177 q 688 18 770 53 q 511 -17 606 -17 m 511 87 q 644 114 583 87 q 752 189 706 141 q 825 299 799 236 q 851 434 851 362 q 825 569 851 506 q 752 679 799 632 q 644 754 706 727 q 511 781 583 781 q 378 754 440 781 q 270 679 316 727 q 198 569 224 632 q 172 434 172 506 q 198 299 172 362 q 270 189 224 236 q 378 114 316 141 q 511 87 440 87 m 340 1001 l 340 1082 l 682 1082 l 682 1001 l 340 1001 z "},"Ǫ":{"ha":1022,"x_min":58,"x_max":965,"o":"m 593 -301 q 482 -261 530 -301 q 434 -148 434 -221 q 446 -81 434 -114 q 480 -16 458 -48 q 315 27 392 -11 q 180 125 238 64 q 90 265 122 186 q 58 434 58 344 q 93 610 58 528 q 190 753 128 692 q 335 850 253 815 q 511 885 418 885 q 688 850 606 885 q 832 753 770 815 q 929 610 894 692 q 965 434 965 528 q 935 273 965 349 q 853 137 906 198 q 731 38 801 77 q 579 -13 661 -1 q 543 -68 557 -41 q 530 -129 530 -95 q 554 -192 530 -174 q 614 -211 578 -211 l 593 -301 m 511 87 q 644 114 583 87 q 752 189 706 141 q 825 299 799 236 q 851 434 851 362 q 825 569 851 506 q 752 679 799 632 q 644 754 706 727 q 511 781 583 781 q 378 754 440 781 q 270 679 316 727 q 198 569 224 632 q 172 434 172 506 q 198 299 172 362 q 270 189 224 236 q 378 114 316 141 q 511 87 440 87 z "},"Ø":{"ha":1022,"x_min":58,"x_max":965,"o":"m 511 -17 q 379 2 442 -17 q 261 57 315 21 l 194 -24 l 125 33 l 192 113 q 121 205 150 154 q 74 313 91 256 q 58 434 58 371 q 93 610 58 528 q 190 753 128 692 q 335 850 253 815 q 511 885 418 885 q 648 865 583 885 q 769 806 714 844 l 829 879 l 897 822 l 836 748 q 905 658 876 708 q 949 552 934 609 q 965 434 965 496 q 929 258 965 340 q 832 115 894 177 q 688 18 770 53 q 511 -17 606 -17 m 261 197 l 700 723 q 612 766 660 751 q 511 781 564 781 q 378 754 440 781 q 270 679 316 727 q 198 569 224 632 q 172 434 172 506 q 182 346 172 389 q 213 266 193 304 q 261 197 233 229 m 511 87 q 644 114 583 87 q 752 189 706 141 q 825 299 799 236 q 851 434 851 362 q 829 559 851 501 q 767 665 806 618 l 330 140 q 415 101 369 115 q 511 87 461 87 z "},"Ǿ":{"ha":1022,"x_min":58,"x_max":965,"o":"m 511 -17 q 379 2 442 -17 q 261 57 315 21 l 194 -24 l 125 33 l 192 113 q 121 205 150 154 q 74 313 91 256 q 58 434 58 371 q 93 610 58 528 q 190 753 128 692 q 335 850 253 815 q 511 885 418 885 q 648 865 583 885 q 769 806 714 844 l 829 879 l 897 822 l 836 748 q 905 658 876 708 q 949 552 934 609 q 965 434 965 496 q 929 258 965 340 q 832 115 894 177 q 688 18 770 53 q 511 -17 606 -17 m 261 197 l 700 723 q 612 766 660 751 q 511 781 564 781 q 378 754 440 781 q 270 679 316 727 q 198 569 224 632 q 172 434 172 506 q 182 346 172 389 q 213 266 193 304 q 261 197 233 229 m 511 87 q 644 114 583 87 q 752 189 706 141 q 825 299 799 236 q 851 434 851 362 q 829 559 851 501 q 767 665 806 618 l 330 140 q 415 101 369 115 q 511 87 461 87 m 459 955 l 598 1128 l 737 1128 l 563 955 l 459 955 z "},"Õ":{"ha":1022,"x_min":58,"x_max":965,"o":"m 511 -17 q 335 18 418 -17 q 190 115 253 53 q 93 258 128 177 q 58 434 58 340 q 93 610 58 528 q 190 753 128 692 q 335 850 253 815 q 511 885 418 885 q 688 850 606 885 q 832 753 770 815 q 929 610 894 692 q 965 434 965 528 q 929 258 965 340 q 832 115 894 177 q 688 18 770 53 q 511 -17 606 -17 m 511 87 q 644 114 583 87 q 752 189 706 141 q 825 299 799 236 q 851 434 851 362 q 825 569 851 506 q 752 679 799 632 q 644 754 706 727 q 511 781 583 781 q 378 754 440 781 q 270 679 316 727 q 198 569 224 632 q 172 434 172 506 q 198 299 172 362 q 270 189 224 236 q 378 114 316 141 q 511 87 440 87 m 321 958 l 299 1050 q 351 1105 321 1087 q 416 1124 380 1124 q 485 1106 453 1124 q 546 1070 516 1088 q 607 1052 576 1052 q 661 1072 638 1052 q 701 1126 685 1091 l 723 1033 q 673 978 702 997 q 607 960 643 960 q 538 978 569 960 q 477 1013 506 995 q 416 1031 448 1031 q 361 1012 385 1031 q 321 958 338 992 z "},"Ȭ":{"ha":1022,"x_min":58,"x_max":965,"o":"m 511 -17 q 335 18 418 -17 q 190 115 253 53 q 93 258 128 177 q 58 434 58 340 q 93 610 58 528 q 190 753 128 692 q 335 850 253 815 q 511 885 418 885 q 688 850 606 885 q 832 753 770 815 q 929 610 894 692 q 965 434 965 528 q 929 258 965 340 q 832 115 894 177 q 688 18 770 53 q 511 -17 606 -17 m 511 87 q 644 114 583 87 q 752 189 706 141 q 825 299 799 236 q 851 434 851 362 q 825 569 851 506 q 752 679 799 632 q 644 754 706 727 q 511 781 583 781 q 378 754 440 781 q 270 679 316 727 q 198 569 224 632 q 172 434 172 506 q 198 299 172 362 q 270 189 224 236 q 378 114 316 141 q 511 87 440 87 m 351 963 l 323 1042 q 368 1094 341 1076 q 429 1112 395 1112 q 486 1101 459 1112 q 538 1077 512 1089 q 588 1065 563 1065 q 638 1083 617 1065 q 671 1131 659 1101 l 699 1052 q 655 1000 682 1018 q 593 982 628 982 q 537 993 564 982 q 485 1017 510 1005 q 435 1028 460 1028 q 351 963 378 1028 m 346 1178 l 346 1253 l 676 1253 l 676 1178 l 346 1178 z "},"Œ":{"ha":1331,"x_min":58,"x_max":1273,"o":"m 510 -17 q 336 18 418 -17 q 192 115 255 53 q 94 258 129 177 q 58 434 58 340 q 93 610 58 528 q 190 753 128 692 q 334 850 252 815 q 510 885 417 885 q 645 864 582 885 q 761 805 709 843 q 851 715 814 767 l 851 868 l 1273 868 l 1273 770 l 955 770 l 955 584 l 1206 584 l 1206 486 l 955 486 l 955 98 l 1273 98 l 1273 0 l 851 0 l 851 153 q 761 64 814 102 q 645 4 709 25 q 510 -17 582 -17 m 511 87 q 644 114 583 87 q 752 189 706 141 q 825 299 799 236 q 851 434 851 362 q 825 569 851 506 q 752 679 799 632 q 644 754 706 727 q 511 781 583 781 q 378 754 440 781 q 270 679 316 727 q 198 569 224 632 q 172 434 172 506 q 198 299 172 362 q 270 189 224 236 q 378 114 316 141 q 511 87 440 87 z "},"P":{"ha":694,"x_min":122,"x_max":648,"o":"m 122 0 l 122 868 l 337 868 q 482 842 422 868 q 578 774 541 816 q 631 683 614 732 q 648 586 648 634 q 632 491 648 540 q 579 399 615 442 q 482 331 542 357 q 337 305 422 305 l 231 305 l 231 0 l 122 0 m 231 403 l 331 403 q 454 431 409 403 q 519 500 500 458 q 538 586 538 542 q 519 671 538 629 q 456 742 501 714 q 331 770 411 770 l 231 770 l 231 403 z "},"Þ":{"ha":694,"x_min":122,"x_max":648,"o":"m 122 0 l 122 868 l 231 868 l 231 752 l 337 752 q 482 726 422 752 q 578 658 541 700 q 631 567 614 616 q 648 471 648 518 q 632 375 648 424 q 579 284 615 326 q 482 215 542 241 q 337 189 422 189 l 231 189 l 231 0 l 122 0 m 231 287 l 331 287 q 454 315 409 287 q 519 384 500 342 q 538 471 538 426 q 519 556 538 513 q 456 626 501 598 q 331 654 411 654 l 231 654 l 231 287 z "},"Q":{"ha":1022,"x_min":58,"x_max":965,"o":"m 832 -29 l 761 57 q 644 2 708 21 q 511 -17 581 -17 q 335 18 418 -17 q 190 115 253 53 q 93 258 128 177 q 58 434 58 340 q 93 610 58 528 q 190 753 128 692 q 335 850 253 815 q 511 885 418 885 q 688 850 606 885 q 832 753 770 815 q 929 610 894 692 q 965 434 965 528 q 930 260 965 341 q 835 119 895 179 l 958 -29 l 832 -29 m 511 87 q 606 100 561 87 q 690 138 651 114 l 444 434 l 573 434 l 766 203 q 828 308 805 249 q 851 434 851 367 q 825 569 851 506 q 752 679 799 632 q 644 754 706 727 q 511 781 583 781 q 378 754 440 781 q 270 679 316 727 q 198 569 224 632 q 172 434 172 506 q 198 299 172 362 q 270 189 224 236 q 378 114 316 141 q 511 87 440 87 z "},"R":{"ha":752,"x_min":124,"x_max":747,"o":"m 124 0 l 124 868 l 342 868 q 483 835 424 868 q 574 749 542 802 q 607 632 607 695 q 588 543 607 584 q 536 469 570 501 q 455 420 503 438 l 747 0 l 618 0 l 342 399 l 234 399 l 234 0 l 124 0 m 234 492 l 342 492 q 434 513 398 492 q 486 566 469 533 q 503 632 503 598 q 483 704 503 672 q 427 752 463 735 q 342 770 391 770 l 234 770 l 234 492 z "},"Ŕ":{"ha":752,"x_min":124,"x_max":747,"o":"m 124 0 l 124 868 l 342 868 q 483 835 424 868 q 574 749 542 802 q 607 632 607 695 q 588 543 607 584 q 536 469 570 501 q 455 420 503 438 l 747 0 l 618 0 l 342 399 l 234 399 l 234 0 l 124 0 m 234 492 l 342 492 q 434 513 398 492 q 486 566 469 533 q 503 632 503 598 q 483 704 503 672 q 427 752 463 735 q 342 770 391 770 l 234 770 l 234 492 m 261 955 l 400 1128 l 539 1128 l 366 955 l 261 955 z "},"Ř":{"ha":752,"x_min":124,"x_max":747,"o":"m 124 0 l 124 868 l 342 868 q 483 835 424 868 q 574 749 542 802 q 607 632 607 695 q 588 543 607 584 q 536 469 570 501 q 455 420 503 438 l 747 0 l 618 0 l 342 399 l 234 399 l 234 0 l 124 0 m 234 492 l 342 492 q 434 513 398 492 q 486 566 469 533 q 503 632 503 598 q 483 704 503 672 q 427 752 463 735 q 342 770 391 770 l 234 770 l 234 492 m 313 946 l 131 1157 l 241 1157 q 278 1115 261 1137 q 315 1064 294 1094 q 353 1115 337 1094 q 390 1157 369 1137 l 496 1157 l 314 946 l 313 946 z "},"Ŗ":{"ha":752,"x_min":124,"x_max":747,"o":"m 124 0 l 124 868 l 342 868 q 483 835 424 868 q 574 749 542 802 q 607 632 607 695 q 588 543 607 584 q 536 469 570 501 q 455 420 503 438 l 747 0 l 618 0 l 342 399 l 234 399 l 234 0 l 124 0 m 234 492 l 342 492 q 434 513 398 492 q 486 566 469 533 q 503 632 503 598 q 483 704 503 672 q 427 752 463 735 q 342 770 391 770 l 234 770 l 234 492 m 290 -318 q 346 -228 323 -278 q 373 -116 368 -177 l 474 -116 q 450 -222 470 -172 q 402 -318 431 -273 l 290 -318 z "},"Ȑ":{"ha":752,"x_min":68,"x_max":747,"o":"m 124 0 l 124 868 l 342 868 q 483 835 424 868 q 574 749 542 802 q 607 632 607 695 q 588 543 607 584 q 536 469 570 501 q 455 420 503 438 l 747 0 l 618 0 l 342 399 l 234 399 l 234 0 l 124 0 m 234 492 l 342 492 q 434 513 398 492 q 486 566 469 533 q 503 632 503 598 q 483 704 503 672 q 427 752 463 735 q 342 770 391 770 l 234 770 l 234 492 m 380 955 l 283 1128 l 398 1128 l 462 955 l 380 955 m 166 955 l 68 1128 l 184 1128 l 248 955 l 166 955 z "},"Ȓ":{"ha":752,"x_min":124,"x_max":747,"o":"m 124 0 l 124 868 l 342 868 q 483 835 424 868 q 574 749 542 802 q 607 632 607 695 q 588 543 607 584 q 536 469 570 501 q 455 420 503 438 l 747 0 l 618 0 l 342 399 l 234 399 l 234 0 l 124 0 m 234 492 l 342 492 q 434 513 398 492 q 486 566 469 533 q 503 632 503 598 q 483 704 503 672 q 427 752 463 735 q 342 770 391 770 l 234 770 l 234 492 m 140 940 q 163 1027 140 989 q 226 1087 186 1065 q 313 1108 265 1108 q 401 1086 362 1108 q 464 1026 441 1064 q 487 940 487 989 l 402 940 q 376 1003 402 977 q 313 1029 349 1029 q 251 1003 278 1029 q 225 940 225 977 l 140 940 z "},"S":{"ha":637,"x_min":70,"x_max":579,"o":"m 309 -12 q 212 3 258 -12 q 131 41 167 17 q 70 95 95 66 l 102 228 q 150 160 121 192 q 221 107 180 127 q 313 87 262 87 q 394 107 359 87 q 450 161 430 126 q 471 237 471 195 q 448 313 471 284 q 398 361 426 343 q 354 386 370 378 l 248 440 q 186 477 223 453 q 121 544 149 502 q 93 654 93 586 q 110 745 93 703 q 160 816 127 786 q 236 863 192 846 q 333 880 280 880 q 455 855 402 880 q 538 804 508 830 l 506 671 q 464 724 491 698 q 402 766 437 749 q 328 783 367 783 q 261 767 289 783 q 217 725 232 751 q 201 665 201 698 q 218 601 201 626 q 259 561 236 576 q 296 539 282 547 l 404 485 q 453 458 423 476 q 511 412 482 441 q 559 343 540 384 q 579 244 579 302 q 543 112 579 170 q 448 21 508 54 q 309 -12 387 -12 z "},"Ś":{"ha":637,"x_min":70,"x_max":579,"o":"m 309 -12 q 212 3 258 -12 q 131 41 167 17 q 70 95 95 66 l 102 228 q 150 160 121 192 q 221 107 180 127 q 313 87 262 87 q 394 107 359 87 q 450 161 430 126 q 471 237 471 195 q 448 313 471 284 q 398 361 426 343 q 354 386 370 378 l 248 440 q 186 477 223 453 q 121 544 149 502 q 93 654 93 586 q 110 745 93 703 q 160 816 127 786 q 236 863 192 846 q 333 880 280 880 q 455 855 402 880 q 538 804 508 830 l 506 671 q 464 724 491 698 q 402 766 437 749 q 328 783 367 783 q 261 767 289 783 q 217 725 232 751 q 201 665 201 698 q 218 601 201 626 q 259 561 236 576 q 296 539 282 547 l 404 485 q 453 458 423 476 q 511 412 482 441 q 559 343 540 384 q 579 244 579 302 q 543 112 579 170 q 448 21 508 54 q 309 -12 387 -12 m 279 955 l 418 1128 l 557 1128 l 383 955 l 279 955 z "},"Š":{"ha":637,"x_min":70,"x_max":579,"o":"m 309 -12 q 212 3 258 -12 q 131 41 167 17 q 70 95 95 66 l 102 228 q 150 160 121 192 q 221 107 180 127 q 313 87 262 87 q 394 107 359 87 q 450 161 430 126 q 471 237 471 195 q 448 313 471 284 q 398 361 426 343 q 354 386 370 378 l 248 440 q 186 477 223 453 q 121 544 149 502 q 93 654 93 586 q 110 745 93 703 q 160 816 127 786 q 236 863 192 846 q 333 880 280 880 q 455 855 402 880 q 538 804 508 830 l 506 671 q 464 724 491 698 q 402 766 437 749 q 328 783 367 783 q 261 767 289 783 q 217 725 232 751 q 201 665 201 698 q 218 601 201 626 q 259 561 236 576 q 296 539 282 547 l 404 485 q 453 458 423 476 q 511 412 482 441 q 559 343 540 384 q 579 244 579 302 q 543 112 579 170 q 448 21 508 54 q 309 -12 387 -12 m 330 946 l 149 1157 l 258 1157 q 295 1115 279 1137 q 333 1064 312 1094 q 370 1115 354 1094 q 407 1157 387 1137 l 513 1157 l 332 946 l 330 946 z "},"Ş":{"ha":637,"x_min":70,"x_max":579,"o":"m 87 -174 l 252 -7 q 147 31 194 4 q 70 95 100 59 l 102 228 q 150 160 121 192 q 221 107 180 127 q 313 87 262 87 q 394 107 359 87 q 450 161 430 126 q 471 237 471 195 q 448 313 471 284 q 398 361 426 343 q 354 386 370 378 l 248 440 q 186 477 223 453 q 121 544 149 502 q 93 654 93 586 q 110 745 93 703 q 160 816 127 786 q 236 863 192 846 q 333 880 280 880 q 455 855 402 880 q 538 804 508 830 l 506 671 q 464 724 491 698 q 402 766 437 749 q 328 783 367 783 q 261 767 289 783 q 217 725 232 751 q 201 665 201 698 q 218 601 201 626 q 259 561 236 576 q 296 539 282 547 l 404 485 q 453 458 423 476 q 511 412 482 441 q 559 343 540 384 q 579 244 579 302 q 550 124 579 177 q 472 36 522 70 q 356 -8 421 2 l 225 -174 l 87 -174 z "},"Ŝ":{"ha":637,"x_min":70,"x_max":579,"o":"m 309 -12 q 212 3 258 -12 q 131 41 167 17 q 70 95 95 66 l 102 228 q 150 160 121 192 q 221 107 180 127 q 313 87 262 87 q 394 107 359 87 q 450 161 430 126 q 471 237 471 195 q 448 313 471 284 q 398 361 426 343 q 354 386 370 378 l 248 440 q 186 477 223 453 q 121 544 149 502 q 93 654 93 586 q 110 745 93 703 q 160 816 127 786 q 236 863 192 846 q 333 880 280 880 q 455 855 402 880 q 538 804 508 830 l 506 671 q 464 724 491 698 q 402 766 437 749 q 328 783 367 783 q 261 767 289 783 q 217 725 232 751 q 201 665 201 698 q 218 601 201 626 q 259 561 236 576 q 296 539 282 547 l 404 485 q 453 458 423 476 q 511 412 482 441 q 559 343 540 384 q 579 244 579 302 q 543 112 579 170 q 448 21 508 54 q 309 -12 387 -12 m 149 955 l 330 1166 l 332 1166 l 513 955 l 403 955 q 367 997 383 975 q 329 1048 350 1019 q 291 997 308 1019 q 255 955 275 975 l 149 955 z "},"Ș":{"ha":637,"x_min":70,"x_max":579,"o":"m 309 -12 q 212 3 258 -12 q 131 41 167 17 q 70 95 95 66 l 102 228 q 150 160 121 192 q 221 107 180 127 q 313 87 262 87 q 394 107 359 87 q 450 161 430 126 q 471 237 471 195 q 448 313 471 284 q 398 361 426 343 q 354 386 370 378 l 248 440 q 186 477 223 453 q 121 544 149 502 q 93 654 93 586 q 110 745 93 703 q 160 816 127 786 q 236 863 192 846 q 333 880 280 880 q 455 855 402 880 q 538 804 508 830 l 506 671 q 464 724 491 698 q 402 766 437 749 q 328 783 367 783 q 261 767 289 783 q 217 725 232 751 q 201 665 201 698 q 218 601 201 626 q 259 561 236 576 q 296 539 282 547 l 404 485 q 453 458 423 476 q 511 412 482 441 q 559 343 540 384 q 579 244 579 302 q 543 112 579 170 q 448 21 508 54 q 309 -12 387 -12 m 177 -318 q 233 -228 210 -278 q 260 -116 256 -177 l 361 -116 q 338 -222 357 -172 q 289 -318 318 -273 l 177 -318 z "},"ẞ":{"ha":936,"x_min":122,"x_max":878,"o":"m 579 -12 q 427 27 496 -12 q 318 133 358 66 l 382 259 q 417 171 389 210 q 487 109 445 132 q 579 87 529 87 q 678 113 634 87 q 747 184 721 140 q 774 284 774 229 q 747 382 774 338 q 677 454 721 427 q 579 480 633 480 q 529 474 552 480 q 486 456 505 467 l 485 457 l 650 775 l 231 775 l 231 0 l 122 0 l 122 868 l 810 868 l 810 867 l 647 564 q 737 530 695 555 q 811 467 779 504 q 860 384 842 430 q 878 284 878 338 q 855 168 878 222 q 790 74 831 114 q 694 11 748 34 q 579 -12 640 -12 z "},"T":{"ha":666,"x_min":46,"x_max":619,"o":"m 278 0 l 278 770 l 46 770 l 46 868 l 619 868 l 619 770 l 388 770 l 388 0 l 278 0 z "},"Ŧ":{"ha":666,"x_min":46,"x_max":619,"o":"m 278 0 l 278 394 l 101 394 l 101 475 l 278 475 l 278 770 l 46 770 l 46 868 l 619 868 l 619 770 l 388 770 l 388 475 l 564 475 l 564 394 l 388 394 l 388 0 l 278 0 z "},"Ť":{"ha":666,"x_min":46,"x_max":619,"o":"m 278 0 l 278 770 l 46 770 l 46 868 l 619 868 l 619 770 l 388 770 l 388 0 l 278 0 m 332 946 l 150 1157 l 260 1157 q 297 1115 281 1137 q 335 1064 313 1094 q 372 1115 356 1094 q 409 1157 389 1137 l 515 1157 l 334 946 l 332 946 z "},"Ţ":{"ha":666,"x_min":46,"x_max":619,"o":"m 109 -174 l 278 0 l 278 770 l 46 770 l 46 868 l 619 868 l 619 770 l 388 770 l 388 0 l 247 -174 l 109 -174 z "},"Ț":{"ha":666,"x_min":46,"x_max":619,"o":"m 278 0 l 278 770 l 46 770 l 46 868 l 619 868 l 619 770 l 388 770 l 388 0 l 278 0 m 200 -318 q 255 -228 232 -278 q 283 -116 278 -177 l 383 -116 q 360 -222 379 -172 q 312 -318 340 -273 l 200 -318 z "},"U":{"ha":772,"x_min":104,"x_max":667,"o":"m 386 -12 q 240 25 304 -12 q 140 125 177 61 q 104 273 104 189 l 104 868 l 214 868 l 214 277 q 237 177 214 220 q 299 110 259 134 q 388 87 338 87 q 477 110 438 87 q 539 176 516 134 q 561 273 561 218 l 561 868 l 667 868 l 667 277 q 631 127 667 192 q 532 25 595 62 q 386 -12 469 -12 z "},"Ú":{"ha":772,"x_min":104,"x_max":667,"o":"m 386 -12 q 240 25 304 -12 q 140 125 177 61 q 104 273 104 189 l 104 868 l 214 868 l 214 277 q 237 177 214 220 q 299 110 259 134 q 388 87 338 87 q 477 110 438 87 q 539 176 516 134 q 561 273 561 218 l 561 868 l 667 868 l 667 277 q 631 127 667 192 q 532 25 595 62 q 386 -12 469 -12 m 334 955 l 473 1128 l 611 1128 l 438 955 l 334 955 z "},"Ŭ":{"ha":772,"x_min":104,"x_max":667,"o":"m 386 -12 q 240 25 304 -12 q 140 125 177 61 q 104 273 104 189 l 104 868 l 214 868 l 214 277 q 237 177 214 220 q 299 110 259 134 q 388 87 338 87 q 477 110 438 87 q 539 176 516 134 q 561 273 561 218 l 561 868 l 667 868 l 667 277 q 631 127 667 192 q 532 25 595 62 q 386 -12 469 -12 m 386 940 q 298 963 338 940 q 235 1023 258 985 q 212 1108 212 1061 l 297 1108 q 324 1046 297 1072 q 386 1019 350 1019 q 448 1046 421 1019 q 475 1108 475 1072 l 559 1108 q 536 1022 559 1060 q 474 962 513 984 q 386 940 435 940 z "},"Û":{"ha":772,"x_min":104,"x_max":667,"o":"m 386 -12 q 240 25 304 -12 q 140 125 177 61 q 104 273 104 189 l 104 868 l 214 868 l 214 277 q 237 177 214 220 q 299 110 259 134 q 388 87 338 87 q 477 110 438 87 q 539 176 516 134 q 561 273 561 218 l 561 868 l 667 868 l 667 277 q 631 127 667 192 q 532 25 595 62 q 386 -12 469 -12 m 204 955 l 385 1166 l 387 1166 l 568 955 l 458 955 q 421 997 438 975 q 384 1048 405 1019 q 346 997 363 1019 q 310 955 330 975 l 204 955 z "},"Ȕ":{"ha":772,"x_min":104,"x_max":667,"o":"m 386 -12 q 240 25 304 -12 q 140 125 177 61 q 104 273 104 189 l 104 868 l 214 868 l 214 277 q 237 177 214 220 q 299 110 259 134 q 388 87 338 87 q 477 110 438 87 q 539 176 516 134 q 561 273 561 218 l 561 868 l 667 868 l 667 277 q 631 127 667 192 q 532 25 595 62 q 386 -12 469 -12 m 452 955 l 355 1128 l 471 1128 l 534 955 l 452 955 m 238 955 l 141 1128 l 257 1128 l 320 955 l 238 955 z "},"Ü":{"ha":772,"x_min":104,"x_max":667,"o":"m 386 -12 q 240 25 304 -12 q 140 125 177 61 q 104 273 104 189 l 104 868 l 214 868 l 214 277 q 237 177 214 220 q 299 110 259 134 q 388 87 338 87 q 477 110 438 87 q 539 176 516 134 q 561 273 561 218 l 561 868 l 667 868 l 667 277 q 631 127 667 192 q 532 25 595 62 q 386 -12 469 -12 m 502 975 q 455 995 475 975 q 435 1042 435 1015 q 455 1089 435 1070 q 502 1108 475 1108 q 549 1089 530 1108 q 568 1042 568 1070 q 549 995 568 1015 q 502 975 530 975 m 270 975 q 223 995 243 975 q 204 1042 204 1015 q 223 1089 204 1070 q 270 1108 243 1108 q 317 1089 298 1108 q 337 1042 337 1070 q 317 995 337 1015 q 270 975 298 975 z "},"Ụ":{"ha":772,"x_min":104,"x_max":667,"o":"m 386 -12 q 240 25 304 -12 q 140 125 177 61 q 104 273 104 189 l 104 868 l 214 868 l 214 277 q 237 177 214 220 q 299 110 259 134 q 388 87 338 87 q 477 110 438 87 q 539 176 516 134 q 561 273 561 218 l 561 868 l 667 868 l 667 277 q 631 127 667 192 q 532 25 595 62 q 386 -12 469 -12 m 386 -243 q 351 -234 367 -243 q 326 -209 335 -225 q 316 -174 316 -193 q 326 -138 316 -153 q 351 -113 335 -122 q 386 -104 367 -104 q 421 -113 406 -104 q 446 -138 437 -122 q 455 -174 455 -153 q 446 -209 455 -193 q 421 -234 437 -225 q 386 -243 406 -243 z "},"Ù":{"ha":772,"x_min":104,"x_max":667,"o":"m 386 -12 q 240 25 304 -12 q 140 125 177 61 q 104 273 104 189 l 104 868 l 214 868 l 214 277 q 237 177 214 220 q 299 110 259 134 q 388 87 338 87 q 477 110 438 87 q 539 176 516 134 q 561 273 561 218 l 561 868 l 667 868 l 667 277 q 631 127 667 192 q 532 25 595 62 q 386 -12 469 -12 m 334 955 l 160 1128 l 299 1128 l 438 955 l 334 955 z "},"Ủ":{"ha":772,"x_min":104,"x_max":667,"o":"m 386 -12 q 240 25 304 -12 q 140 125 177 61 q 104 273 104 189 l 104 868 l 214 868 l 214 277 q 237 177 214 220 q 299 110 259 134 q 388 87 338 87 q 477 110 438 87 q 539 176 516 134 q 561 273 561 218 l 561 868 l 667 868 l 667 277 q 631 127 667 192 q 532 25 595 62 q 386 -12 469 -12 m 351 955 q 388 1005 375 983 q 401 1045 401 1026 q 387 1078 401 1065 q 348 1091 373 1091 q 309 1080 326 1091 q 281 1056 291 1070 l 259 1138 q 309 1162 281 1155 q 365 1169 338 1169 q 430 1156 401 1169 q 476 1118 459 1143 q 493 1059 493 1094 q 479 1000 493 1026 q 449 955 466 974 l 351 955 z "},"Ư":{"ha":887,"x_min":104,"x_max":864,"o":"m 386 -12 q 240 25 304 -12 q 140 125 177 61 q 104 273 104 189 l 104 868 l 215 868 l 215 277 q 237 177 215 220 q 298 110 259 134 q 386 87 337 87 q 474 110 435 87 q 534 176 512 134 q 557 273 557 218 l 557 868 l 662 868 l 662 757 q 678 751 669 753 q 696 748 687 748 q 737 760 720 748 q 763 792 754 772 q 772 837 772 812 q 767 878 772 855 q 748 926 762 902 l 841 926 q 859 881 855 903 q 864 837 864 858 q 844 748 864 785 q 791 693 824 712 q 720 673 758 673 q 693 676 706 673 q 667 683 680 678 l 667 277 q 631 127 667 192 q 532 25 595 62 q 386 -12 469 -12 z "},"Ứ":{"ha":887,"x_min":104,"x_max":864,"o":"m 386 -12 q 240 25 304 -12 q 140 125 177 61 q 104 273 104 189 l 104 868 l 215 868 l 215 277 q 237 177 215 220 q 298 110 259 134 q 386 87 337 87 q 474 110 435 87 q 534 176 512 134 q 557 273 557 218 l 557 868 l 662 868 l 662 757 q 678 751 669 753 q 696 748 687 748 q 737 760 720 748 q 763 792 754 772 q 772 837 772 812 q 767 878 772 855 q 748 926 762 902 l 841 926 q 859 881 855 903 q 864 837 864 858 q 844 748 864 785 q 791 693 824 712 q 720 673 758 673 q 693 676 706 673 q 667 683 680 678 l 667 277 q 631 127 667 192 q 532 25 595 62 q 386 -12 469 -12 m 334 955 l 473 1128 l 611 1128 l 438 955 l 334 955 z "},"Ự":{"ha":887,"x_min":104,"x_max":864,"o":"m 386 -12 q 240 25 304 -12 q 140 125 177 61 q 104 273 104 189 l 104 868 l 215 868 l 215 277 q 237 177 215 220 q 298 110 259 134 q 386 87 337 87 q 474 110 435 87 q 534 176 512 134 q 557 273 557 218 l 557 868 l 662 868 l 662 757 q 678 751 669 753 q 696 748 687 748 q 737 760 720 748 q 763 792 754 772 q 772 837 772 812 q 767 878 772 855 q 748 926 762 902 l 841 926 q 859 881 855 903 q 864 837 864 858 q 844 748 864 785 q 791 693 824 712 q 720 673 758 673 q 693 676 706 673 q 667 683 680 678 l 667 277 q 631 127 667 192 q 532 25 595 62 q 386 -12 469 -12 m 386 -243 q 351 -234 367 -243 q 326 -209 335 -225 q 316 -174 316 -193 q 326 -138 316 -153 q 351 -113 335 -122 q 386 -104 367 -104 q 421 -113 406 -104 q 446 -138 437 -122 q 455 -174 455 -153 q 446 -209 455 -193 q 421 -234 437 -225 q 386 -243 406 -243 z "},"Ừ":{"ha":887,"x_min":104,"x_max":864,"o":"m 386 -12 q 240 25 304 -12 q 140 125 177 61 q 104 273 104 189 l 104 868 l 215 868 l 215 277 q 237 177 215 220 q 298 110 259 134 q 386 87 337 87 q 474 110 435 87 q 534 176 512 134 q 557 273 557 218 l 557 868 l 662 868 l 662 757 q 678 751 669 753 q 696 748 687 748 q 737 760 720 748 q 763 792 754 772 q 772 837 772 812 q 767 878 772 855 q 748 926 762 902 l 841 926 q 859 881 855 903 q 864 837 864 858 q 844 748 864 785 q 791 693 824 712 q 720 673 758 673 q 693 676 706 673 q 667 683 680 678 l 667 277 q 631 127 667 192 q 532 25 595 62 q 386 -12 469 -12 m 334 955 l 160 1128 l 299 1128 l 438 955 l 334 955 z "},"Ử":{"ha":887,"x_min":104,"x_max":864,"o":"m 386 -12 q 240 25 304 -12 q 140 125 177 61 q 104 273 104 189 l 104 868 l 215 868 l 215 277 q 237 177 215 220 q 298 110 259 134 q 386 87 337 87 q 474 110 435 87 q 534 176 512 134 q 557 273 557 218 l 557 868 l 662 868 l 662 757 q 678 751 669 753 q 696 748 687 748 q 737 760 720 748 q 763 792 754 772 q 772 837 772 812 q 767 878 772 855 q 748 926 762 902 l 841 926 q 859 881 855 903 q 864 837 864 858 q 844 748 864 785 q 791 693 824 712 q 720 673 758 673 q 693 676 706 673 q 667 683 680 678 l 667 277 q 631 127 667 192 q 532 25 595 62 q 386 -12 469 -12 m 351 955 q 388 1005 375 983 q 401 1045 401 1026 q 387 1078 401 1065 q 348 1091 373 1091 q 309 1080 326 1091 q 281 1056 291 1070 l 259 1138 q 309 1162 281 1155 q 365 1169 338 1169 q 430 1156 401 1169 q 476 1118 459 1143 q 493 1059 493 1094 q 479 1000 493 1026 q 449 955 466 974 l 351 955 z "},"Ữ":{"ha":887,"x_min":104,"x_max":864,"o":"m 386 -12 q 240 25 304 -12 q 140 125 177 61 q 104 273 104 189 l 104 868 l 215 868 l 215 277 q 237 177 215 220 q 298 110 259 134 q 386 87 337 87 q 474 110 435 87 q 534 176 512 134 q 557 273 557 218 l 557 868 l 662 868 l 662 757 q 678 751 669 753 q 696 748 687 748 q 737 760 720 748 q 763 792 754 772 q 772 837 772 812 q 767 878 772 855 q 748 926 762 902 l 841 926 q 859 881 855 903 q 864 837 864 858 q 844 748 864 785 q 791 693 824 712 q 720 673 758 673 q 693 676 706 673 q 667 683 680 678 l 667 277 q 631 127 667 192 q 532 25 595 62 q 386 -12 469 -12 m 196 958 l 174 1050 q 225 1105 196 1087 q 290 1124 255 1124 q 359 1106 328 1124 q 421 1070 391 1088 q 481 1052 450 1052 q 536 1072 512 1052 q 576 1126 559 1091 l 598 1033 q 547 978 577 997 q 481 960 518 960 q 412 978 444 960 q 352 1013 381 995 q 290 1031 322 1031 q 236 1012 259 1031 q 196 958 212 992 z "},"Ű":{"ha":772,"x_min":104,"x_max":667,"o":"m 386 -12 q 240 25 304 -12 q 140 125 177 61 q 104 273 104 189 l 104 868 l 214 868 l 214 277 q 237 177 214 220 q 299 110 259 134 q 388 87 338 87 q 477 110 438 87 q 539 176 516 134 q 561 273 561 218 l 561 868 l 667 868 l 667 277 q 631 127 667 192 q 532 25 595 62 q 386 -12 469 -12 m 451 955 l 515 1128 l 631 1128 l 533 955 l 451 955 m 237 955 l 301 1128 l 417 1128 l 319 955 l 237 955 z "},"Ȗ":{"ha":772,"x_min":104,"x_max":667,"o":"m 386 -12 q 240 25 304 -12 q 140 125 177 61 q 104 273 104 189 l 104 868 l 214 868 l 214 277 q 237 177 214 220 q 299 110 259 134 q 388 87 338 87 q 477 110 438 87 q 539 176 516 134 q 561 273 561 218 l 561 868 l 667 868 l 667 277 q 631 127 667 192 q 532 25 595 62 q 386 -12 469 -12 m 212 940 q 235 1027 212 989 q 298 1087 258 1065 q 386 1108 338 1108 q 474 1086 434 1108 q 536 1026 513 1064 q 559 940 559 989 l 475 940 q 448 1003 475 977 q 386 1029 421 1029 q 324 1003 350 1029 q 297 940 297 977 l 212 940 z "},"Ū":{"ha":772,"x_min":104,"x_max":667,"o":"m 386 -12 q 240 25 304 -12 q 140 125 177 61 q 104 273 104 189 l 104 868 l 214 868 l 214 277 q 237 177 214 220 q 299 110 259 134 q 388 87 338 87 q 477 110 438 87 q 539 176 516 134 q 561 273 561 218 l 561 868 l 667 868 l 667 277 q 631 127 667 192 q 532 25 595 62 q 386 -12 469 -12 m 215 1001 l 215 1082 l 557 1082 l 557 1001 l 215 1001 z "},"Ų":{"ha":772,"x_min":104,"x_max":667,"o":"m 468 -301 q 357 -261 405 -301 q 309 -148 309 -221 q 318 -87 309 -120 q 358 -11 328 -55 q 226 33 284 -4 q 136 132 169 70 q 104 273 104 194 l 104 868 l 214 868 l 214 277 q 237 177 214 220 q 299 110 259 134 q 388 87 338 87 q 477 110 438 87 q 539 176 516 134 q 561 273 561 218 l 561 868 l 667 868 l 667 277 q 641 148 667 205 q 569 51 615 90 q 461 -3 523 12 q 420 -64 435 -35 q 405 -129 405 -93 q 429 -192 405 -174 q 489 -211 452 -211 l 468 -301 z "},"Ů":{"ha":772,"x_min":104,"x_max":667,"o":"m 386 -12 q 240 25 304 -12 q 140 125 177 61 q 104 273 104 189 l 104 868 l 214 868 l 214 277 q 237 177 214 220 q 299 110 259 134 q 388 87 338 87 q 477 110 438 87 q 539 176 516 134 q 561 273 561 218 l 561 868 l 667 868 l 667 277 q 631 127 667 192 q 532 25 595 62 q 386 -12 469 -12 m 386 917 q 322 934 351 917 q 276 978 293 950 q 258 1042 258 1007 q 276 1105 258 1077 q 322 1150 293 1133 q 386 1166 351 1166 q 449 1150 421 1166 q 496 1105 478 1133 q 513 1042 513 1077 q 496 978 513 1006 q 450 934 479 950 q 386 917 421 917 m 386 981 q 429 999 411 981 q 447 1042 447 1017 q 429 1085 447 1067 q 386 1102 411 1102 q 343 1085 361 1102 q 325 1042 325 1067 q 343 999 325 1017 q 386 981 361 981 z "},"Ũ":{"ha":772,"x_min":104,"x_max":667,"o":"m 386 -12 q 240 25 304 -12 q 140 125 177 61 q 104 273 104 189 l 104 868 l 214 868 l 214 277 q 237 177 214 220 q 299 110 259 134 q 388 87 338 87 q 477 110 438 87 q 539 176 516 134 q 561 273 561 218 l 561 868 l 667 868 l 667 277 q 631 127 667 192 q 532 25 595 62 q 386 -12 469 -12 m 196 958 l 174 1050 q 225 1105 196 1087 q 290 1124 255 1124 q 359 1106 328 1124 q 421 1070 391 1088 q 481 1052 450 1052 q 536 1072 512 1052 q 576 1126 559 1091 l 598 1033 q 547 978 577 997 q 481 960 518 960 q 412 978 444 960 q 352 1013 381 995 q 290 1031 322 1031 q 236 1012 259 1031 q 196 958 212 992 z "},"V":{"ha":723,"x_min":12,"x_max":712,"o":"m 361 -29 l 12 868 l 127 868 l 332 345 q 350 298 341 320 q 366 245 358 275 q 381 298 373 275 q 399 345 390 320 l 603 868 l 712 868 l 363 -29 l 361 -29 z "},"W":{"ha":1157,"x_min":12,"x_max":1146,"o":"m 345 -29 l 12 868 l 123 868 l 320 347 q 338 296 331 320 q 352 237 344 271 q 367 296 360 271 q 384 347 374 320 l 582 897 l 584 897 l 780 347 q 797 299 789 323 q 812 237 805 274 q 828 299 820 274 q 845 347 835 323 l 1042 868 l 1146 868 l 813 -29 l 811 -29 l 611 534 q 595 583 603 559 q 580 643 587 607 q 564 583 572 607 q 548 534 557 559 l 347 -29 l 345 -29 z "},"Ẃ":{"ha":1157,"x_min":12,"x_max":1146,"o":"m 345 -29 l 12 868 l 123 868 l 320 347 q 338 296 331 320 q 352 237 344 271 q 367 296 360 271 q 384 347 374 320 l 582 897 l 584 897 l 780 347 q 797 299 789 323 q 812 237 805 274 q 828 299 820 274 q 845 347 835 323 l 1042 868 l 1146 868 l 813 -29 l 811 -29 l 611 534 q 595 583 603 559 q 580 643 587 607 q 564 583 572 607 q 548 534 557 559 l 347 -29 l 345 -29 m 530 955 l 669 1128 l 808 1128 l 635 955 l 530 955 z "},"Ŵ":{"ha":1157,"x_min":12,"x_max":1146,"o":"m 345 -29 l 12 868 l 123 868 l 320 347 q 338 296 331 320 q 352 237 344 271 q 367 296 360 271 q 384 347 374 320 l 582 897 l 584 897 l 780 347 q 797 299 789 323 q 812 237 805 274 q 828 299 820 274 q 845 347 835 323 l 1042 868 l 1146 868 l 813 -29 l 811 -29 l 611 534 q 595 583 603 559 q 580 643 587 607 q 564 583 572 607 q 548 534 557 559 l 347 -29 l 345 -29 m 400 955 l 582 1166 l 584 1166 l 765 955 l 655 955 q 618 997 635 975 q 581 1048 602 1019 q 543 997 559 1019 q 506 955 527 975 l 400 955 z "},"Ẅ":{"ha":1157,"x_min":12,"x_max":1146,"o":"m 345 -29 l 12 868 l 123 868 l 320 347 q 338 296 331 320 q 352 237 344 271 q 367 296 360 271 q 384 347 374 320 l 582 897 l 584 897 l 780 347 q 797 299 789 323 q 812 237 805 274 q 828 299 820 274 q 845 347 835 323 l 1042 868 l 1146 868 l 813 -29 l 811 -29 l 611 534 q 595 583 603 559 q 580 643 587 607 q 564 583 572 607 q 548 534 557 559 l 347 -29 l 345 -29 m 733 885 q 683 905 703 885 q 664 955 664 925 q 683 1005 664 985 q 733 1024 703 1024 q 783 1005 763 1024 q 802 955 802 985 q 783 905 802 925 q 733 885 763 885 m 432 885 q 382 905 402 885 q 363 955 363 925 q 382 1005 363 985 q 432 1024 402 1024 q 482 1005 462 1024 q 502 955 502 985 q 482 905 502 925 q 432 885 462 885 z "},"Ẁ":{"ha":1157,"x_min":12,"x_max":1146,"o":"m 345 -29 l 12 868 l 123 868 l 320 347 q 338 296 331 320 q 352 237 344 271 q 367 296 360 271 q 384 347 374 320 l 582 897 l 584 897 l 780 347 q 797 299 789 323 q 812 237 805 274 q 828 299 820 274 q 845 347 835 323 l 1042 868 l 1146 868 l 813 -29 l 811 -29 l 611 534 q 595 583 603 559 q 580 643 587 607 q 564 583 572 607 q 548 534 557 559 l 347 -29 l 345 -29 m 530 955 l 357 1128 l 496 1128 l 635 955 l 530 955 z "},"X":{"ha":839,"x_min":6,"x_max":833,"o":"m 6 0 l 354 503 l 104 868 l 234 868 l 351 694 q 387 639 369 667 q 421 576 404 611 q 456 639 439 611 q 492 694 474 667 l 611 868 l 735 868 l 485 507 l 833 0 l 699 0 l 504 289 q 463 353 484 320 q 418 430 442 385 q 372 353 394 385 q 331 289 351 320 l 134 0 l 6 0 z "},"Y":{"ha":666,"x_min":17,"x_max":648,"o":"m 278 0 l 278 420 l 17 868 l 145 868 l 287 615 q 313 568 301 591 q 338 513 325 544 q 363 568 350 544 q 389 615 375 591 l 532 868 l 648 868 l 388 420 l 388 0 l 278 0 z "},"Ý":{"ha":666,"x_min":17,"x_max":648,"o":"m 278 0 l 278 420 l 17 868 l 145 868 l 287 615 q 313 568 301 591 q 338 513 325 544 q 363 568 350 544 q 389 615 375 591 l 532 868 l 648 868 l 388 420 l 388 0 l 278 0 m 282 955 l 421 1128 l 559 1128 l 386 955 l 282 955 z "},"Ŷ":{"ha":666,"x_min":17,"x_max":648,"o":"m 278 0 l 278 420 l 17 868 l 145 868 l 287 615 q 313 568 301 591 q 338 513 325 544 q 363 568 350 544 q 389 615 375 591 l 532 868 l 648 868 l 388 420 l 388 0 l 278 0 m 151 955 l 333 1166 l 335 1166 l 516 955 l 406 955 q 369 997 386 975 q 332 1048 353 1019 q 294 997 311 1019 q 258 955 278 975 l 151 955 z "},"Ÿ":{"ha":666,"x_min":17,"x_max":648,"o":"m 278 0 l 278 420 l 17 868 l 145 868 l 287 615 q 313 568 301 591 q 338 513 325 544 q 363 568 350 544 q 389 615 375 591 l 532 868 l 648 868 l 388 420 l 388 0 l 278 0 m 449 975 q 403 995 422 975 q 383 1042 383 1015 q 403 1089 383 1070 q 449 1108 422 1108 q 497 1089 477 1108 q 516 1042 516 1070 q 497 995 516 1015 q 449 975 477 975 m 218 975 q 171 995 191 975 q 151 1042 151 1015 q 171 1089 151 1070 q 218 1108 191 1108 q 265 1089 246 1108 q 285 1042 285 1070 q 265 995 285 1015 q 218 975 246 975 z "},"Ỵ":{"ha":666,"x_min":17,"x_max":648,"o":"m 278 0 l 278 420 l 17 868 l 145 868 l 287 615 q 313 568 301 591 q 338 513 325 544 q 363 568 350 544 q 389 615 375 591 l 532 868 l 648 868 l 388 420 l 388 0 l 278 0 m 334 -243 q 299 -234 314 -243 q 273 -209 283 -225 q 264 -174 264 -193 q 273 -138 264 -153 q 299 -113 283 -122 q 334 -104 314 -104 q 369 -113 354 -104 q 394 -138 385 -122 q 403 -174 403 -153 q 394 -209 403 -193 q 369 -234 385 -225 q 334 -243 354 -243 z "},"Ỳ":{"ha":666,"x_min":17,"x_max":648,"o":"m 278 0 l 278 420 l 17 868 l 145 868 l 287 615 q 313 568 301 591 q 338 513 325 544 q 363 568 350 544 q 389 615 375 591 l 532 868 l 648 868 l 388 420 l 388 0 l 278 0 m 282 955 l 108 1128 l 247 1128 l 386 955 l 282 955 z "},"Ỷ":{"ha":666,"x_min":17,"x_max":648,"o":"m 278 0 l 278 420 l 17 868 l 145 868 l 287 615 q 313 568 301 591 q 338 513 325 544 q 363 568 350 544 q 389 615 375 591 l 532 868 l 648 868 l 388 420 l 388 0 l 278 0 m 299 955 q 336 1005 323 983 q 349 1045 349 1026 q 335 1078 349 1065 q 296 1091 321 1091 q 257 1080 274 1091 q 229 1056 239 1070 l 207 1138 q 257 1162 229 1155 q 313 1169 285 1169 q 378 1156 349 1169 q 424 1118 407 1143 q 441 1059 441 1094 q 427 1000 441 1026 q 397 955 414 974 l 299 955 z "},"Ȳ":{"ha":666,"x_min":17,"x_max":648,"o":"m 278 0 l 278 420 l 17 868 l 145 868 l 287 615 q 313 568 301 591 q 338 513 325 544 q 363 568 350 544 q 389 615 375 591 l 532 868 l 648 868 l 388 420 l 388 0 l 278 0 m 163 1001 l 163 1082 l 504 1082 l 504 1001 l 163 1001 z "},"Ỹ":{"ha":666,"x_min":17,"x_max":648,"o":"m 278 0 l 278 420 l 17 868 l 145 868 l 287 615 q 313 568 301 591 q 338 513 325 544 q 363 568 350 544 q 389 615 375 591 l 532 868 l 648 868 l 388 420 l 388 0 l 278 0 m 144 958 l 122 1050 q 173 1105 144 1087 q 238 1124 203 1124 q 307 1106 276 1124 q 368 1070 339 1088 q 429 1052 398 1052 q 484 1072 460 1052 q 524 1126 507 1091 l 546 1033 q 495 978 525 997 q 429 960 466 960 q 360 978 392 960 q 299 1013 329 995 q 238 1031 270 1031 q 184 1012 207 1031 q 144 958 160 992 z "},"Z":{"ha":637,"x_min":41,"x_max":584,"o":"m 41 0 l 41 2 l 421 770 l 81 770 l 81 868 l 584 868 l 584 866 l 204 98 l 567 98 l 567 0 l 41 0 z "},"Ź":{"ha":637,"x_min":41,"x_max":584,"o":"m 41 0 l 41 2 l 421 770 l 81 770 l 81 868 l 584 868 l 584 866 l 204 98 l 567 98 l 567 0 l 41 0 m 281 955 l 420 1128 l 558 1128 l 385 955 l 281 955 z "},"Ž":{"ha":637,"x_min":41,"x_max":584,"o":"m 41 0 l 41 2 l 421 770 l 81 770 l 81 868 l 584 868 l 584 866 l 204 98 l 567 98 l 567 0 l 41 0 m 332 946 l 150 1157 l 260 1157 q 297 1115 281 1137 q 335 1064 313 1094 q 372 1115 356 1094 q 409 1157 389 1137 l 515 1157 l 334 946 l 332 946 z "},"Ż":{"ha":637,"x_min":41,"x_max":584,"o":"m 41 0 l 41 2 l 421 770 l 81 770 l 81 868 l 584 868 l 584 866 l 204 98 l 567 98 l 567 0 l 41 0 m 333 972 q 298 981 313 972 q 272 1006 282 991 q 263 1042 263 1022 q 272 1077 263 1062 q 298 1102 282 1093 q 333 1111 313 1111 q 368 1102 353 1111 q 393 1077 384 1093 q 402 1042 402 1062 q 393 1006 402 1022 q 368 981 384 991 q 333 972 353 972 z "},"a":{"ha":733,"x_min":52,"x_max":640,"o":"m 340 -8 q 229 15 281 -8 q 136 80 177 39 q 74 174 96 121 q 52 289 52 228 q 74 405 52 351 q 136 499 96 458 q 229 563 177 540 q 340 586 281 586 q 453 564 400 586 q 544 503 505 542 l 544 579 l 640 579 l 640 0 l 544 0 l 544 76 q 453 15 505 38 q 340 -8 400 -8 m 354 87 q 454 114 409 87 q 525 188 499 142 q 552 289 552 233 q 525 391 552 345 q 454 464 499 437 q 354 492 409 492 q 254 464 299 492 q 183 391 209 437 q 156 289 156 345 q 183 188 156 233 q 254 114 209 142 q 354 87 299 87 z "},"á":{"ha":733,"x_min":52,"x_max":640,"o":"m 340 -8 q 229 15 281 -8 q 136 80 177 39 q 74 174 96 121 q 52 289 52 228 q 74 405 52 351 q 136 499 96 458 q 229 563 177 540 q 340 586 281 586 q 453 564 400 586 q 544 503 505 542 l 544 579 l 640 579 l 640 0 l 544 0 l 544 76 q 453 15 505 38 q 340 -8 400 -8 m 354 87 q 454 114 409 87 q 525 188 499 142 q 552 289 552 233 q 525 391 552 345 q 454 464 499 437 q 354 492 409 492 q 254 464 299 492 q 183 391 209 437 q 156 289 156 345 q 183 188 156 233 q 254 114 209 142 q 354 87 299 87 m 313 666 l 400 839 l 522 839 l 401 666 l 313 666 z "},"ă":{"ha":733,"x_min":52,"x_max":640,"o":"m 340 -8 q 229 15 281 -8 q 136 80 177 39 q 74 174 96 121 q 52 289 52 228 q 74 405 52 351 q 136 499 96 458 q 229 563 177 540 q 340 586 281 586 q 453 564 400 586 q 544 503 505 542 l 544 579 l 640 579 l 640 0 l 544 0 l 544 76 q 453 15 505 38 q 340 -8 400 -8 m 354 87 q 454 114 409 87 q 525 188 499 142 q 552 289 552 233 q 525 391 552 345 q 454 464 499 437 q 354 492 409 492 q 254 464 299 492 q 183 391 209 437 q 156 289 156 345 q 183 188 156 233 q 254 114 209 142 q 354 87 299 87 m 358 651 q 270 673 310 651 q 207 734 231 695 q 184 819 184 772 l 269 819 q 296 756 269 782 q 358 730 322 730 q 420 756 394 730 q 447 819 447 782 l 531 819 q 508 733 531 771 q 446 673 485 694 q 358 651 407 651 z "},"ắ":{"ha":733,"x_min":52,"x_max":640,"o":"m 340 -8 q 229 15 281 -8 q 136 80 177 39 q 74 174 96 121 q 52 289 52 228 q 74 405 52 351 q 136 499 96 458 q 229 563 177 540 q 340 586 281 586 q 453 564 400 586 q 544 503 505 542 l 544 579 l 640 579 l 640 0 l 544 0 l 544 76 q 453 15 505 38 q 340 -8 400 -8 m 354 87 q 454 114 409 87 q 525 188 499 142 q 552 289 552 233 q 525 391 552 345 q 454 464 499 437 q 354 492 409 492 q 254 464 299 492 q 183 391 209 437 q 156 289 156 345 q 183 188 156 233 q 254 114 209 142 q 354 87 299 87 m 358 651 q 270 673 310 651 q 207 734 231 695 q 184 819 184 772 l 265 819 q 293 753 265 780 q 358 726 321 726 q 422 753 394 726 q 450 819 450 780 l 531 819 q 508 733 531 771 q 446 673 485 694 q 358 651 407 651 m 306 848 l 379 992 l 487 992 l 387 848 l 306 848 z "},"ặ":{"ha":733,"x_min":52,"x_max":640,"o":"m 340 -8 q 229 15 281 -8 q 136 80 177 39 q 74 174 96 121 q 52 289 52 228 q 74 405 52 351 q 136 499 96 458 q 229 563 177 540 q 340 586 281 586 q 453 564 400 586 q 544 503 505 542 l 544 579 l 640 579 l 640 0 l 544 0 l 544 76 q 453 15 505 38 q 340 -8 400 -8 m 354 87 q 454 114 409 87 q 525 188 499 142 q 552 289 552 233 q 525 391 552 345 q 454 464 499 437 q 354 492 409 492 q 254 464 299 492 q 183 391 209 437 q 156 289 156 345 q 183 188 156 233 q 254 114 209 142 q 354 87 299 87 m 358 -243 q 323 -234 339 -243 q 298 -209 307 -225 q 288 -174 288 -193 q 298 -138 288 -153 q 323 -113 307 -122 q 358 -104 339 -104 q 394 -113 378 -104 q 418 -138 409 -122 q 427 -174 427 -153 q 418 -209 427 -193 q 394 -234 409 -225 q 358 -243 378 -243 m 358 651 q 270 673 310 651 q 207 734 231 695 q 184 819 184 772 l 269 819 q 296 756 269 782 q 358 730 322 730 q 420 756 394 730 q 447 819 447 782 l 531 819 q 508 733 531 771 q 446 673 485 694 q 358 651 407 651 z "},"ằ":{"ha":733,"x_min":52,"x_max":640,"o":"m 340 -8 q 229 15 281 -8 q 136 80 177 39 q 74 174 96 121 q 52 289 52 228 q 74 405 52 351 q 136 499 96 458 q 229 563 177 540 q 340 586 281 586 q 453 564 400 586 q 544 503 505 542 l 544 579 l 640 579 l 640 0 l 544 0 l 544 76 q 453 15 505 38 q 340 -8 400 -8 m 354 87 q 454 114 409 87 q 525 188 499 142 q 552 289 552 233 q 525 391 552 345 q 454 464 499 437 q 354 492 409 492 q 254 464 299 492 q 183 391 209 437 q 156 289 156 345 q 183 188 156 233 q 254 114 209 142 q 354 87 299 87 m 358 651 q 270 673 310 651 q 207 733 231 694 q 184 819 184 771 l 265 819 q 293 753 265 780 q 358 726 321 726 q 422 753 394 726 q 450 819 450 780 l 531 819 q 508 734 531 772 q 446 673 485 695 q 358 651 406 651 m 329 848 l 229 992 l 337 992 l 410 848 l 329 848 z "},"ẳ":{"ha":733,"x_min":52,"x_max":640,"o":"m 340 -8 q 229 15 281 -8 q 136 80 177 39 q 74 174 96 121 q 52 289 52 228 q 74 405 52 351 q 136 499 96 458 q 229 563 177 540 q 340 586 281 586 q 453 564 400 586 q 544 503 505 542 l 544 579 l 640 579 l 640 0 l 544 0 l 544 76 q 453 15 505 38 q 340 -8 400 -8 m 354 87 q 454 114 409 87 q 525 188 499 142 q 552 289 552 233 q 525 391 552 345 q 454 464 499 437 q 354 492 409 492 q 254 464 299 492 q 183 391 209 437 q 156 289 156 345 q 183 188 156 233 q 254 114 209 142 q 354 87 299 87 m 358 651 q 270 673 310 651 q 207 733 231 694 q 184 819 184 771 l 265 819 q 293 753 265 780 q 358 726 321 726 q 422 753 394 726 q 450 819 450 780 l 531 819 q 508 734 531 772 q 446 673 485 695 q 358 651 406 651 m 317 848 q 351 886 339 869 q 364 918 364 904 q 351 949 364 937 q 317 961 339 961 q 283 951 299 961 q 257 929 267 941 l 238 1001 q 282 1023 258 1017 q 329 1030 306 1030 q 410 1003 376 1030 q 445 929 445 976 q 433 884 445 905 q 404 848 421 864 l 317 848 z "},"ẵ":{"ha":733,"x_min":52,"x_max":640,"o":"m 340 -8 q 229 15 281 -8 q 136 80 177 39 q 74 174 96 121 q 52 289 52 228 q 74 405 52 351 q 136 499 96 458 q 229 563 177 540 q 340 586 281 586 q 453 564 400 586 q 544 503 505 542 l 544 579 l 640 579 l 640 0 l 544 0 l 544 76 q 453 15 505 38 q 340 -8 400 -8 m 354 87 q 454 114 409 87 q 525 188 499 142 q 552 289 552 233 q 525 391 552 345 q 454 464 499 437 q 354 492 409 492 q 254 464 299 492 q 183 391 209 437 q 156 289 156 345 q 183 188 156 233 q 254 114 209 142 q 354 87 299 87 m 358 651 q 270 673 310 651 q 207 734 231 695 q 184 819 184 772 l 265 819 q 293 753 265 780 q 358 726 321 726 q 422 753 394 726 q 450 819 450 780 l 531 819 q 508 733 531 771 q 446 673 485 694 q 358 651 407 651 m 215 860 l 190 931 q 231 978 206 962 q 285 994 255 994 q 335 984 311 994 q 381 963 359 973 q 426 952 404 952 q 471 968 452 952 q 501 1011 489 984 l 526 940 q 486 894 510 910 q 431 878 462 878 q 381 888 405 878 q 334 909 357 899 q 289 919 312 919 q 215 860 239 919 z "},"â":{"ha":733,"x_min":52,"x_max":640,"o":"m 340 -8 q 229 15 281 -8 q 136 80 177 39 q 74 174 96 121 q 52 289 52 228 q 74 405 52 351 q 136 499 96 458 q 229 563 177 540 q 340 586 281 586 q 453 564 400 586 q 544 503 505 542 l 544 579 l 640 579 l 640 0 l 544 0 l 544 76 q 453 15 505 38 q 340 -8 400 -8 m 354 87 q 454 114 409 87 q 525 188 499 142 q 552 289 552 233 q 525 391 552 345 q 454 464 499 437 q 354 492 409 492 q 254 464 299 492 q 183 391 209 437 q 156 289 156 345 q 183 188 156 233 q 254 114 209 142 q 354 87 299 87 m 176 666 l 357 877 l 359 877 l 540 666 l 430 666 q 394 707 410 686 q 356 759 377 729 q 318 707 335 729 q 282 666 302 686 l 176 666 z "},"ấ":{"ha":733,"x_min":52,"x_max":666,"o":"m 340 -8 q 229 15 281 -8 q 136 80 177 39 q 74 174 96 121 q 52 289 52 228 q 74 405 52 351 q 136 499 96 458 q 229 563 177 540 q 340 586 281 586 q 453 564 400 586 q 544 503 505 542 l 544 579 l 640 579 l 640 0 l 544 0 l 544 76 q 453 15 505 38 q 340 -8 400 -8 m 354 87 q 454 114 409 87 q 525 188 499 142 q 552 289 552 233 q 525 391 552 345 q 454 464 499 437 q 354 492 409 492 q 254 464 299 492 q 183 391 209 437 q 156 289 156 345 q 183 188 156 233 q 254 114 209 142 q 354 87 299 87 m 485 790 l 558 935 l 666 935 l 566 790 l 485 790 m 176 666 l 357 877 l 359 877 l 540 666 l 430 666 q 394 707 410 686 q 356 759 377 729 q 318 707 335 729 q 282 666 302 686 l 176 666 z "},"ậ":{"ha":733,"x_min":52,"x_max":640,"o":"m 340 -8 q 229 15 281 -8 q 136 80 177 39 q 74 174 96 121 q 52 289 52 228 q 74 405 52 351 q 136 499 96 458 q 229 563 177 540 q 340 586 281 586 q 453 564 400 586 q 544 503 505 542 l 544 579 l 640 579 l 640 0 l 544 0 l 544 76 q 453 15 505 38 q 340 -8 400 -8 m 354 87 q 454 114 409 87 q 525 188 499 142 q 552 289 552 233 q 525 391 552 345 q 454 464 499 437 q 354 492 409 492 q 254 464 299 492 q 183 391 209 437 q 156 289 156 345 q 183 188 156 233 q 254 114 209 142 q 354 87 299 87 m 358 -243 q 323 -234 339 -243 q 298 -209 307 -225 q 288 -174 288 -193 q 298 -138 288 -153 q 323 -113 307 -122 q 358 -104 339 -104 q 394 -113 378 -104 q 418 -138 409 -122 q 427 -174 427 -153 q 418 -209 427 -193 q 394 -234 409 -225 q 358 -243 378 -243 m 176 666 l 357 877 l 359 877 l 540 666 l 430 666 q 394 707 410 686 q 356 759 377 729 q 318 707 335 729 q 282 666 302 686 l 176 666 z "},"ầ":{"ha":733,"x_min":52,"x_max":640,"o":"m 340 -8 q 229 15 281 -8 q 136 80 177 39 q 74 174 96 121 q 52 289 52 228 q 74 405 52 351 q 136 499 96 458 q 229 563 177 540 q 340 586 281 586 q 453 564 400 586 q 544 503 505 542 l 544 579 l 640 579 l 640 0 l 544 0 l 544 76 q 453 15 505 38 q 340 -8 400 -8 m 354 87 q 454 114 409 87 q 525 188 499 142 q 552 289 552 233 q 525 391 552 345 q 454 464 499 437 q 354 492 409 492 q 254 464 299 492 q 183 391 209 437 q 156 289 156 345 q 183 188 156 233 q 254 114 209 142 q 354 87 299 87 m 557 790 l 456 935 l 564 935 l 638 790 l 557 790 m 176 666 l 357 877 l 359 877 l 540 666 l 430 666 q 394 707 410 686 q 356 759 377 729 q 318 707 335 729 q 282 666 302 686 l 176 666 z "},"ẩ":{"ha":733,"x_min":52,"x_max":647,"o":"m 340 -8 q 229 15 281 -8 q 136 80 177 39 q 74 174 96 121 q 52 289 52 228 q 74 405 52 351 q 136 499 96 458 q 229 563 177 540 q 340 586 281 586 q 453 564 400 586 q 544 503 505 542 l 544 579 l 640 579 l 640 0 l 544 0 l 544 76 q 453 15 505 38 q 340 -8 400 -8 m 354 87 q 454 114 409 87 q 525 188 499 142 q 552 289 552 233 q 525 391 552 345 q 454 464 499 437 q 354 492 409 492 q 254 464 299 492 q 183 391 209 437 q 156 289 156 345 q 183 188 156 233 q 254 114 209 142 q 354 87 299 87 m 520 790 q 554 829 541 811 q 566 860 566 846 q 554 891 566 879 q 520 903 541 903 q 486 893 502 903 q 459 871 470 883 l 441 943 q 484 965 460 959 q 531 972 508 972 q 613 945 579 972 q 647 871 647 918 q 635 827 647 847 q 607 790 623 806 l 520 790 m 176 666 l 357 877 l 359 877 l 540 666 l 430 666 q 394 707 410 686 q 356 759 377 729 q 318 707 335 729 q 282 666 302 686 l 176 666 z "},"ẫ":{"ha":733,"x_min":52,"x_max":640,"o":"m 340 -8 q 229 15 281 -8 q 136 80 177 39 q 74 174 96 121 q 52 289 52 228 q 74 405 52 351 q 136 499 96 458 q 229 563 177 540 q 340 586 281 586 q 453 564 400 586 q 544 503 505 542 l 544 579 l 640 579 l 640 0 l 544 0 l 544 76 q 453 15 505 38 q 340 -8 400 -8 m 354 87 q 454 114 409 87 q 525 188 499 142 q 552 289 552 233 q 525 391 552 345 q 454 464 499 437 q 354 492 409 492 q 254 464 299 492 q 183 391 209 437 q 156 289 156 345 q 183 188 156 233 q 254 114 209 142 q 354 87 299 87 m 176 666 l 357 865 l 359 865 l 540 666 l 430 666 q 394 705 410 685 q 356 751 377 724 q 318 705 335 724 q 282 666 302 685 l 176 666 m 215 860 l 190 931 q 231 978 206 962 q 285 994 255 994 q 335 984 311 994 q 381 963 359 973 q 426 952 404 952 q 471 968 452 952 q 501 1011 489 984 l 526 940 q 486 894 510 910 q 431 878 462 878 q 381 888 405 878 q 334 909 357 899 q 289 919 312 919 q 215 860 239 919 z "},"ȁ":{"ha":733,"x_min":52,"x_max":640,"o":"m 340 -8 q 229 15 281 -8 q 136 80 177 39 q 74 174 96 121 q 52 289 52 228 q 74 405 52 351 q 136 499 96 458 q 229 563 177 540 q 340 586 281 586 q 453 564 400 586 q 544 503 505 542 l 544 579 l 640 579 l 640 0 l 544 0 l 544 76 q 453 15 505 38 q 340 -8 400 -8 m 354 87 q 454 114 409 87 q 525 188 499 142 q 552 289 552 233 q 525 391 552 345 q 454 464 499 437 q 354 492 409 492 q 254 464 299 492 q 183 391 209 437 q 156 289 156 345 q 183 188 156 233 q 254 114 209 142 q 354 87 299 87 m 424 666 l 327 839 l 443 839 l 506 666 l 424 666 m 210 666 l 113 839 l 229 839 l 292 666 l 210 666 z "},"ä":{"ha":733,"x_min":52,"x_max":640,"o":"m 340 -8 q 229 15 281 -8 q 136 80 177 39 q 74 174 96 121 q 52 289 52 228 q 74 405 52 351 q 136 499 96 458 q 229 563 177 540 q 340 586 281 586 q 453 564 400 586 q 544 503 505 542 l 544 579 l 640 579 l 640 0 l 544 0 l 544 76 q 453 15 505 38 q 340 -8 400 -8 m 354 87 q 454 114 409 87 q 525 188 499 142 q 552 289 552 233 q 525 391 552 345 q 454 464 499 437 q 354 492 409 492 q 254 464 299 492 q 183 391 209 437 q 156 289 156 345 q 183 188 156 233 q 254 114 209 142 q 354 87 299 87 m 242 686 q 209 695 224 686 q 185 719 194 704 q 176 752 176 734 q 185 787 176 772 q 209 810 194 802 q 242 819 224 819 q 276 810 261 819 q 300 787 291 802 q 309 752 309 772 q 300 719 309 734 q 276 695 291 704 q 242 686 261 686 m 474 686 q 440 695 455 686 q 416 719 425 704 q 407 752 407 734 q 416 787 407 772 q 440 810 425 802 q 474 819 455 819 q 508 810 493 819 q 531 787 523 802 q 540 752 540 772 q 531 719 540 734 q 508 695 523 704 q 474 686 493 686 z "},"ạ":{"ha":733,"x_min":52,"x_max":640,"o":"m 340 -8 q 229 15 281 -8 q 136 80 177 39 q 74 174 96 121 q 52 289 52 228 q 74 405 52 351 q 136 499 96 458 q 229 563 177 540 q 340 586 281 586 q 453 564 400 586 q 544 503 505 542 l 544 579 l 640 579 l 640 0 l 544 0 l 544 76 q 453 15 505 38 q 340 -8 400 -8 m 354 87 q 454 114 409 87 q 525 188 499 142 q 552 289 552 233 q 525 391 552 345 q 454 464 499 437 q 354 492 409 492 q 254 464 299 492 q 183 391 209 437 q 156 289 156 345 q 183 188 156 233 q 254 114 209 142 q 354 87 299 87 m 358 -243 q 323 -234 339 -243 q 298 -209 307 -225 q 288 -174 288 -193 q 298 -138 288 -153 q 323 -113 307 -122 q 358 -104 339 -104 q 394 -113 378 -104 q 418 -138 409 -122 q 427 -174 427 -153 q 418 -209 427 -193 q 394 -234 409 -225 q 358 -243 378 -243 z "},"à":{"ha":733,"x_min":52,"x_max":640,"o":"m 340 -8 q 229 15 281 -8 q 136 80 177 39 q 74 174 96 121 q 52 289 52 228 q 74 405 52 351 q 136 499 96 458 q 229 563 177 540 q 340 586 281 586 q 453 564 400 586 q 544 503 505 542 l 544 579 l 640 579 l 640 0 l 544 0 l 544 76 q 453 15 505 38 q 340 -8 400 -8 m 354 87 q 454 114 409 87 q 525 188 499 142 q 552 289 552 233 q 525 391 552 345 q 454 464 499 437 q 354 492 409 492 q 254 464 299 492 q 183 391 209 437 q 156 289 156 345 q 183 188 156 233 q 254 114 209 142 q 354 87 299 87 m 314 666 l 194 839 l 315 839 l 402 666 l 314 666 z "},"ả":{"ha":733,"x_min":52,"x_max":640,"o":"m 340 -8 q 229 15 281 -8 q 136 80 177 39 q 74 174 96 121 q 52 289 52 228 q 74 405 52 351 q 136 499 96 458 q 229 563 177 540 q 340 586 281 586 q 453 564 400 586 q 544 503 505 542 l 544 579 l 640 579 l 640 0 l 544 0 l 544 76 q 453 15 505 38 q 340 -8 400 -8 m 354 87 q 454 114 409 87 q 525 188 499 142 q 552 289 552 233 q 525 391 552 345 q 454 464 499 437 q 354 492 409 492 q 254 464 299 492 q 183 391 209 437 q 156 289 156 345 q 183 188 156 233 q 254 114 209 142 q 354 87 299 87 m 327 666 q 364 715 351 693 q 377 755 377 737 q 363 788 377 775 q 327 802 349 802 q 289 791 307 802 q 261 767 272 780 l 241 846 q 288 870 262 862 q 340 877 314 877 q 428 847 391 877 q 465 767 465 818 q 451 709 465 734 q 421 666 438 685 l 327 666 z "},"ȃ":{"ha":733,"x_min":52,"x_max":640,"o":"m 340 -8 q 229 15 281 -8 q 136 80 177 39 q 74 174 96 121 q 52 289 52 228 q 74 405 52 351 q 136 499 96 458 q 229 563 177 540 q 340 586 281 586 q 453 564 400 586 q 544 503 505 542 l 544 579 l 640 579 l 640 0 l 544 0 l 544 76 q 453 15 505 38 q 340 -8 400 -8 m 354 87 q 454 114 409 87 q 525 188 499 142 q 552 289 552 233 q 525 391 552 345 q 454 464 499 437 q 354 492 409 492 q 254 464 299 492 q 183 391 209 437 q 156 289 156 345 q 183 188 156 233 q 254 114 209 142 q 354 87 299 87 m 184 651 q 207 737 184 699 q 270 797 231 775 q 358 819 310 819 q 446 797 406 819 q 508 737 485 774 q 531 651 531 699 l 447 651 q 420 714 447 688 q 358 740 394 740 q 296 714 322 740 q 269 651 269 688 l 184 651 z "},"ā":{"ha":733,"x_min":52,"x_max":640,"o":"m 340 -8 q 229 15 281 -8 q 136 80 177 39 q 74 174 96 121 q 52 289 52 228 q 74 405 52 351 q 136 499 96 458 q 229 563 177 540 q 340 586 281 586 q 453 564 400 586 q 544 503 505 542 l 544 579 l 640 579 l 640 0 l 544 0 l 544 76 q 453 15 505 38 q 340 -8 400 -8 m 354 87 q 454 114 409 87 q 525 188 499 142 q 552 289 552 233 q 525 391 552 345 q 454 464 499 437 q 354 492 409 492 q 254 464 299 492 q 183 391 209 437 q 156 289 156 345 q 183 188 156 233 q 254 114 209 142 q 354 87 299 87 m 187 712 l 187 793 l 529 793 l 529 712 l 187 712 z "},"ą":{"ha":733,"x_min":52,"x_max":666,"o":"m 645 -301 q 534 -261 583 -301 q 486 -148 486 -221 q 502 -72 486 -109 q 544 0 517 -36 l 544 76 q 453 15 505 38 q 340 -8 400 -8 q 229 15 281 -8 q 136 80 177 39 q 74 174 96 121 q 52 289 52 228 q 74 405 52 351 q 136 499 96 458 q 229 563 177 540 q 340 586 281 586 q 453 564 400 586 q 544 503 505 542 l 544 579 l 640 579 l 640 0 q 598 -63 613 -33 q 583 -129 583 -93 q 606 -192 583 -174 q 666 -211 630 -211 l 645 -301 m 354 87 q 454 114 409 87 q 525 188 499 142 q 552 289 552 233 q 525 391 552 345 q 454 464 499 437 q 354 492 409 492 q 254 464 299 492 q 183 391 209 437 q 156 289 156 345 q 183 188 156 233 q 254 114 209 142 q 354 87 299 87 z "},"å":{"ha":733,"x_min":52,"x_max":640,"o":"m 340 -8 q 229 15 281 -8 q 136 80 177 39 q 74 174 96 121 q 52 289 52 228 q 74 405 52 351 q 136 499 96 458 q 229 563 177 540 q 340 586 281 586 q 453 564 400 586 q 544 503 505 542 l 544 579 l 640 579 l 640 0 l 544 0 l 544 76 q 453 15 505 38 q 340 -8 400 -8 m 354 87 q 454 114 409 87 q 525 188 499 142 q 552 289 552 233 q 525 391 552 345 q 454 464 499 437 q 354 492 409 492 q 254 464 299 492 q 183 391 209 437 q 156 289 156 345 q 183 188 156 233 q 254 114 209 142 q 354 87 299 87 m 358 628 q 294 644 323 628 q 248 689 265 661 q 231 752 231 718 q 248 816 231 788 q 294 860 265 844 q 358 877 323 877 q 421 860 393 877 q 468 816 450 844 q 485 752 485 788 q 468 689 485 717 q 422 644 451 661 q 358 628 394 628 m 358 692 q 401 709 383 692 q 419 752 419 727 q 401 795 419 777 q 358 813 383 813 q 315 795 333 813 q 297 752 297 777 q 315 709 297 727 q 358 692 333 692 z "},"ǻ":{"ha":733,"x_min":52,"x_max":640,"o":"m 340 -8 q 229 15 281 -8 q 136 80 177 39 q 74 174 96 121 q 52 289 52 228 q 74 405 52 351 q 136 499 96 458 q 229 563 177 540 q 340 586 281 586 q 453 564 400 586 q 544 503 505 542 l 544 579 l 640 579 l 640 0 l 544 0 l 544 76 q 453 15 505 38 q 340 -8 400 -8 m 354 87 q 454 114 409 87 q 525 188 499 142 q 552 289 552 233 q 525 391 552 345 q 454 464 499 437 q 354 492 409 492 q 254 464 299 492 q 183 391 209 437 q 156 289 156 345 q 183 188 156 233 q 254 114 209 142 q 354 87 299 87 m 358 628 q 294 644 323 628 q 248 689 265 661 q 231 752 231 718 q 248 816 231 788 q 294 860 265 844 q 358 877 323 877 q 421 860 393 877 q 468 816 450 844 q 485 752 485 788 q 468 689 485 717 q 422 644 451 661 q 358 628 394 628 m 358 692 q 401 709 383 692 q 419 752 419 727 q 401 795 419 777 q 358 813 383 813 q 315 795 333 813 q 297 752 297 777 q 315 709 297 727 q 358 692 333 692 m 323 923 l 377 1042 l 478 1042 l 404 923 l 323 923 z "},"ã":{"ha":733,"x_min":52,"x_max":640,"o":"m 340 -8 q 229 15 281 -8 q 136 80 177 39 q 74 174 96 121 q 52 289 52 228 q 74 405 52 351 q 136 499 96 458 q 229 563 177 540 q 340 586 281 586 q 453 564 400 586 q 544 503 505 542 l 544 579 l 640 579 l 640 0 l 544 0 l 544 76 q 453 15 505 38 q 340 -8 400 -8 m 354 87 q 454 114 409 87 q 525 188 499 142 q 552 289 552 233 q 525 391 552 345 q 454 464 499 437 q 354 492 409 492 q 254 464 299 492 q 183 391 209 437 q 156 289 156 345 q 183 188 156 233 q 254 114 209 142 q 354 87 299 87 m 180 659 l 149 747 q 199 805 169 785 q 267 825 229 825 q 329 812 300 825 q 387 786 359 799 q 443 773 416 773 q 498 792 476 773 q 535 846 521 811 l 566 758 q 517 700 547 720 q 448 680 487 680 q 387 693 417 680 q 329 719 357 706 q 273 732 301 732 q 217 713 240 732 q 180 659 195 693 z "},"æ":{"ha":1100,"x_min":52,"x_max":1053,"o":"m 276 -12 q 162 13 213 -12 q 82 79 111 37 q 52 177 52 122 q 85 278 52 236 q 174 342 118 320 q 303 365 231 365 q 396 354 352 365 q 477 324 441 343 q 481 346 479 335 q 485 367 483 357 q 432 458 476 421 q 312 494 388 494 q 205 472 253 494 q 125 414 158 449 l 98 522 q 195 568 140 550 q 316 586 251 586 q 450 560 391 586 q 544 487 509 534 q 640 562 584 534 q 762 590 696 590 q 908 552 842 590 q 1014 449 974 514 q 1053 303 1053 385 l 1053 260 l 675 260 q 624 262 650 260 q 573 268 598 264 q 609 176 580 217 q 684 110 639 134 q 784 87 729 87 q 886 112 839 87 q 963 178 934 137 l 992 60 q 897 7 950 26 q 783 -12 843 -12 q 637 23 702 -12 q 530 117 571 58 q 463 47 503 75 q 376 3 423 18 q 276 -12 329 -12 m 284 79 q 371 95 329 79 q 444 140 413 112 q 488 206 476 169 l 481 240 q 398 268 444 258 q 310 278 353 278 q 199 252 242 278 q 156 177 156 226 q 189 108 156 137 q 284 79 222 79 m 570 339 q 623 345 596 343 q 675 347 649 347 l 867 347 q 909 346 888 347 q 951 342 930 344 q 914 422 942 388 q 847 477 886 457 q 761 498 807 498 q 674 476 714 498 q 607 419 635 454 q 570 339 580 383 z "},"ǽ":{"ha":1100,"x_min":52,"x_max":1053,"o":"m 276 -12 q 162 13 213 -12 q 82 79 111 37 q 52 177 52 122 q 85 278 52 236 q 174 342 118 320 q 303 365 231 365 q 396 354 352 365 q 477 324 441 343 q 481 346 479 335 q 485 367 483 357 q 432 458 476 421 q 312 494 388 494 q 205 472 253 494 q 125 414 158 449 l 98 522 q 195 568 140 550 q 316 586 251 586 q 450 560 391 586 q 544 487 509 534 q 640 562 584 534 q 762 590 696 590 q 908 552 842 590 q 1014 449 974 514 q 1053 303 1053 385 l 1053 260 l 675 260 q 624 262 650 260 q 573 268 598 264 q 609 176 580 217 q 684 110 639 134 q 784 87 729 87 q 886 112 839 87 q 963 178 934 137 l 992 60 q 897 7 950 26 q 783 -12 843 -12 q 637 23 702 -12 q 530 117 571 58 q 463 47 503 75 q 376 3 423 18 q 276 -12 329 -12 m 284 79 q 371 95 329 79 q 444 140 413 112 q 488 206 476 169 l 481 240 q 398 268 444 258 q 310 278 353 278 q 199 252 242 278 q 156 177 156 226 q 189 108 156 137 q 284 79 222 79 m 570 339 q 623 345 596 343 q 675 347 649 347 l 867 347 q 909 346 888 347 q 951 342 930 344 q 914 422 942 388 q 847 477 886 457 q 761 498 807 498 q 674 476 714 498 q 607 419 635 454 q 570 339 580 383 m 505 666 l 592 839 l 714 839 l 593 666 l 505 666 z "},"b":{"ha":733,"x_min":93,"x_max":681,"o":"m 393 -8 q 281 15 333 -8 q 189 76 229 38 l 189 0 l 93 0 l 93 926 l 197 926 l 197 510 q 285 566 235 546 q 393 586 336 586 q 504 563 452 586 q 597 499 557 540 q 659 405 637 458 q 681 289 681 351 q 659 174 681 228 q 597 80 637 121 q 504 15 557 39 q 393 -8 452 -8 m 379 87 q 479 114 434 87 q 550 188 524 142 q 577 289 577 233 q 550 391 577 345 q 479 464 524 437 q 379 492 434 492 q 279 464 324 492 q 208 391 234 437 q 181 289 181 345 q 208 188 181 233 q 279 114 234 142 q 379 87 324 87 z "},"c":{"ha":608,"x_min":52,"x_max":573,"o":"m 359 -12 q 240 12 295 -12 q 142 77 184 36 q 76 173 99 118 q 52 289 52 228 q 76 407 52 352 q 142 502 99 461 q 240 567 184 543 q 359 590 295 590 q 476 568 421 590 q 573 509 531 546 l 541 378 q 468 459 517 426 q 358 492 420 492 q 256 464 302 492 q 183 391 210 437 q 156 289 156 345 q 183 188 156 234 q 256 114 210 142 q 358 87 302 87 q 468 119 420 87 q 541 201 517 150 l 573 69 q 476 11 531 33 q 359 -12 421 -12 z "},"ć":{"ha":608,"x_min":52,"x_max":573,"o":"m 359 -12 q 240 12 295 -12 q 142 77 184 36 q 76 173 99 118 q 52 289 52 228 q 76 407 52 352 q 142 502 99 461 q 240 567 184 543 q 359 590 295 590 q 476 568 421 590 q 573 509 531 546 l 541 378 q 468 459 517 426 q 358 492 420 492 q 256 464 302 492 q 183 391 210 437 q 156 289 156 345 q 183 188 156 234 q 256 114 210 142 q 358 87 302 87 q 468 119 420 87 q 541 201 517 150 l 573 69 q 476 11 531 33 q 359 -12 421 -12 m 313 666 l 400 839 l 522 839 l 401 666 l 313 666 z "},"č":{"ha":608,"x_min":52,"x_max":573,"o":"m 359 -12 q 240 12 295 -12 q 142 77 184 36 q 76 173 99 118 q 52 289 52 228 q 76 407 52 352 q 142 502 99 461 q 240 567 184 543 q 359 590 295 590 q 476 568 421 590 q 573 509 531 546 l 541 378 q 468 459 517 426 q 358 492 420 492 q 256 464 302 492 q 183 391 210 437 q 156 289 156 345 q 183 188 156 234 q 256 114 210 142 q 358 87 302 87 q 468 119 420 87 q 541 201 517 150 l 573 69 q 476 11 531 33 q 359 -12 421 -12 m 357 657 l 176 868 l 285 868 q 322 826 306 848 q 360 774 339 804 q 397 826 381 804 q 434 868 414 848 l 540 868 l 359 657 l 357 657 z "},"ç":{"ha":608,"x_min":52,"x_max":573,"o":"m 134 -174 l 300 -6 q 173 50 230 8 q 84 154 117 92 q 52 289 52 216 q 76 407 52 352 q 142 502 99 461 q 240 567 184 543 q 359 590 295 590 q 476 568 421 590 q 573 509 531 546 l 541 378 q 468 459 517 426 q 358 492 420 492 q 256 464 302 492 q 183 391 210 437 q 156 289 156 345 q 183 188 156 234 q 256 114 210 142 q 358 87 302 87 q 468 119 420 87 q 541 201 517 150 l 573 69 q 496 19 539 40 q 403 -9 452 -2 l 272 -174 l 134 -174 z "},"ĉ":{"ha":608,"x_min":52,"x_max":573,"o":"m 359 -12 q 240 12 295 -12 q 142 77 184 36 q 76 173 99 118 q 52 289 52 228 q 76 407 52 352 q 142 502 99 461 q 240 567 184 543 q 359 590 295 590 q 476 568 421 590 q 573 509 531 546 l 541 378 q 468 459 517 426 q 358 492 420 492 q 256 464 302 492 q 183 391 210 437 q 156 289 156 345 q 183 188 156 234 q 256 114 210 142 q 358 87 302 87 q 468 119 420 87 q 541 201 517 150 l 573 69 q 476 11 531 33 q 359 -12 421 -12 m 176 666 l 357 877 l 359 877 l 540 666 l 430 666 q 394 707 410 686 q 356 759 377 729 q 318 707 335 729 q 282 666 302 686 l 176 666 z "},"ċ":{"ha":608,"x_min":52,"x_max":573,"o":"m 359 -12 q 240 12 295 -12 q 142 77 184 36 q 76 173 99 118 q 52 289 52 228 q 76 407 52 352 q 142 502 99 461 q 240 567 184 543 q 359 590 295 590 q 476 568 421 590 q 573 509 531 546 l 541 378 q 468 459 517 426 q 358 492 420 492 q 256 464 302 492 q 183 391 210 437 q 156 289 156 345 q 183 188 156 234 q 256 114 210 142 q 358 87 302 87 q 468 119 420 87 q 541 201 517 150 l 573 69 q 476 11 531 33 q 359 -12 421 -12 m 358 683 q 323 692 339 683 q 298 717 307 701 q 288 752 288 733 q 298 788 288 773 q 323 813 307 803 q 358 822 339 822 q 394 813 378 822 q 418 788 409 803 q 427 752 427 773 q 418 717 427 733 q 394 692 409 701 q 358 683 378 683 z "},"d":{"ha":733,"x_min":52,"x_max":640,"o":"m 340 -8 q 229 15 281 -8 q 136 80 177 39 q 74 174 96 121 q 52 289 52 228 q 74 405 52 351 q 136 499 96 458 q 229 563 177 540 q 340 586 281 586 q 448 566 397 586 q 536 510 498 546 l 536 926 l 640 926 l 640 0 l 544 0 l 544 76 q 453 15 505 38 q 340 -8 400 -8 m 354 87 q 454 114 409 87 q 525 188 499 142 q 552 289 552 233 q 525 391 552 345 q 454 464 499 437 q 354 492 409 492 q 254 464 299 492 q 183 391 209 437 q 156 289 156 345 q 183 188 156 233 q 254 114 209 142 q 354 87 299 87 z "},"ð":{"ha":714,"x_min":52,"x_max":662,"o":"m 358 -12 q 239 12 294 -12 q 141 76 183 35 q 76 173 99 118 q 52 290 52 228 q 74 405 52 351 q 136 499 96 458 q 227 562 176 539 q 338 584 279 584 q 418 572 380 584 q 487 532 456 560 q 414 634 452 584 q 334 735 375 685 l 201 648 l 164 706 l 289 788 q 250 834 270 811 q 211 880 231 857 q 172 926 192 903 l 290 926 q 327 883 309 905 q 365 837 346 860 l 487 916 l 524 859 l 408 784 q 502 663 459 720 q 568 570 545 606 q 639 428 617 494 q 662 299 662 362 q 639 175 662 231 q 573 77 615 119 q 476 12 531 35 q 358 -12 421 -12 m 356 87 q 458 114 412 87 q 530 188 503 142 q 557 290 557 234 q 530 392 557 346 q 458 464 503 437 q 356 492 412 492 q 256 464 301 492 q 183 392 210 437 q 156 290 156 346 q 183 188 156 234 q 256 114 210 142 q 356 87 301 87 z "},"ď":{"ha":907,"x_min":52,"x_max":883,"o":"m 340 -8 q 229 15 281 -8 q 136 80 177 39 q 74 174 96 121 q 52 289 52 228 q 74 405 52 351 q 136 499 96 458 q 229 563 177 540 q 340 586 281 586 q 448 566 397 586 q 536 510 498 546 l 536 926 l 640 926 l 640 0 l 544 0 l 544 76 q 453 15 505 38 q 340 -8 400 -8 m 354 87 q 454 114 409 87 q 525 188 499 142 q 552 289 552 233 q 525 391 552 345 q 454 464 499 437 q 354 492 409 492 q 254 464 299 492 q 183 391 209 437 q 156 289 156 345 q 183 188 156 233 q 254 114 209 142 q 354 87 299 87 m 694 637 q 764 762 738 691 q 791 926 791 833 l 883 926 q 861 771 883 843 q 799 637 838 698 l 694 637 z "},"đ":{"ha":733,"x_min":52,"x_max":704,"o":"m 340 -8 q 229 15 281 -8 q 136 80 177 39 q 74 174 96 121 q 52 289 52 228 q 74 405 52 351 q 136 499 96 458 q 229 563 177 540 q 340 586 281 586 q 452 564 400 586 q 542 505 503 542 l 542 720 l 338 720 l 338 785 l 542 785 l 542 926 l 640 926 l 640 785 l 704 785 l 704 720 l 640 720 l 640 0 l 544 0 l 544 76 q 453 15 505 38 q 340 -8 400 -8 m 354 87 q 454 114 409 87 q 525 188 499 142 q 552 289 552 233 q 525 391 552 345 q 454 464 499 437 q 354 492 409 492 q 254 464 299 492 q 183 391 209 437 q 156 289 156 345 q 183 188 156 233 q 254 114 209 142 q 354 87 299 87 z "},"ǆ":{"ha":1244,"x_min":52,"x_max":1206,"o":"m 340 -8 q 229 15 281 -8 q 136 80 177 39 q 74 174 96 121 q 52 289 52 228 q 74 405 52 351 q 136 499 96 458 q 229 563 177 540 q 340 586 281 586 q 448 566 397 586 q 536 510 498 546 l 536 926 l 640 926 l 640 0 l 544 0 l 544 76 q 453 15 505 38 q 340 -8 400 -8 m 354 87 q 454 114 409 87 q 525 188 499 142 q 552 289 552 233 q 525 391 552 345 q 454 464 499 437 q 354 492 409 492 q 254 464 299 492 q 183 391 209 437 q 156 289 156 345 q 183 188 156 233 q 254 114 209 142 q 354 87 299 87 m 772 0 l 772 2 l 1046 486 l 789 486 l 789 579 l 1206 579 l 1206 577 l 932 93 l 1190 93 l 1190 0 l 772 0 m 996 657 l 815 868 l 925 868 q 962 826 945 848 q 999 774 978 804 q 1037 826 1020 804 q 1073 868 1053 848 l 1180 868 l 998 657 l 996 657 z "},"e":{"ha":685,"x_min":52,"x_max":639,"o":"m 368 -12 q 242 12 300 -12 q 142 77 184 36 q 76 175 99 119 q 52 295 52 231 q 75 410 52 357 q 138 504 97 464 q 232 568 178 545 q 346 590 285 590 q 493 552 426 590 q 599 449 559 514 q 639 303 639 385 l 639 260 l 260 260 q 209 262 235 260 q 158 268 183 264 q 194 176 165 217 q 269 110 224 134 q 369 87 314 87 q 472 112 424 87 q 548 178 519 137 l 577 60 q 482 7 535 26 q 368 -12 428 -12 m 155 339 q 208 345 181 343 q 260 347 234 347 l 452 347 q 494 346 474 347 q 536 342 515 344 q 500 422 528 388 q 432 477 472 457 q 346 498 393 498 q 259 476 299 498 q 192 419 219 454 q 155 339 165 383 z "},"é":{"ha":685,"x_min":52,"x_max":639,"o":"m 368 -12 q 242 12 300 -12 q 142 77 184 36 q 76 175 99 119 q 52 295 52 231 q 75 410 52 357 q 138 504 97 464 q 232 568 178 545 q 346 590 285 590 q 493 552 426 590 q 599 449 559 514 q 639 303 639 385 l 639 260 l 260 260 q 209 262 235 260 q 158 268 183 264 q 194 176 165 217 q 269 110 224 134 q 369 87 314 87 q 472 112 424 87 q 548 178 519 137 l 577 60 q 482 7 535 26 q 368 -12 428 -12 m 155 339 q 208 345 181 343 q 260 347 234 347 l 452 347 q 494 346 474 347 q 536 342 515 344 q 500 422 528 388 q 432 477 472 457 q 346 498 393 498 q 259 476 299 498 q 192 419 219 454 q 155 339 165 383 m 301 666 l 388 839 l 509 839 l 389 666 l 301 666 z "},"ĕ":{"ha":685,"x_min":52,"x_max":639,"o":"m 368 -12 q 242 12 300 -12 q 142 77 184 36 q 76 175 99 119 q 52 295 52 231 q 75 410 52 357 q 138 504 97 464 q 232 568 178 545 q 346 590 285 590 q 493 552 426 590 q 599 449 559 514 q 639 303 639 385 l 639 260 l 260 260 q 209 262 235 260 q 158 268 183 264 q 194 176 165 217 q 269 110 224 134 q 369 87 314 87 q 472 112 424 87 q 548 178 519 137 l 577 60 q 482 7 535 26 q 368 -12 428 -12 m 155 339 q 208 345 181 343 q 260 347 234 347 l 452 347 q 494 346 474 347 q 536 342 515 344 q 500 422 528 388 q 432 477 472 457 q 346 498 393 498 q 259 476 299 498 q 192 419 219 454 q 155 339 165 383 m 345 651 q 258 673 297 651 q 195 734 218 695 q 172 819 172 772 l 257 819 q 283 756 257 782 q 345 730 310 730 q 408 756 381 730 q 434 819 434 782 l 519 819 q 496 733 519 771 q 434 673 473 694 q 345 651 394 651 z "},"ě":{"ha":685,"x_min":52,"x_max":639,"o":"m 368 -12 q 242 12 300 -12 q 142 77 184 36 q 76 175 99 119 q 52 295 52 231 q 75 410 52 357 q 138 504 97 464 q 232 568 178 545 q 346 590 285 590 q 493 552 426 590 q 599 449 559 514 q 639 303 639 385 l 639 260 l 260 260 q 209 262 235 260 q 158 268 183 264 q 194 176 165 217 q 269 110 224 134 q 369 87 314 87 q 472 112 424 87 q 548 178 519 137 l 577 60 q 482 7 535 26 q 368 -12 428 -12 m 155 339 q 208 345 181 343 q 260 347 234 347 l 452 347 q 494 346 474 347 q 536 342 515 344 q 500 422 528 388 q 432 477 472 457 q 346 498 393 498 q 259 476 299 498 q 192 419 219 454 q 155 339 165 383 m 344 657 l 163 868 l 273 868 q 310 826 293 848 q 347 774 326 804 q 385 826 368 804 q 421 868 401 848 l 528 868 l 346 657 l 344 657 z "},"ê":{"ha":685,"x_min":52,"x_max":639,"o":"m 368 -12 q 242 12 300 -12 q 142 77 184 36 q 76 175 99 119 q 52 295 52 231 q 75 410 52 357 q 138 504 97 464 q 232 568 178 545 q 346 590 285 590 q 493 552 426 590 q 599 449 559 514 q 639 303 639 385 l 639 260 l 260 260 q 209 262 235 260 q 158 268 183 264 q 194 176 165 217 q 269 110 224 134 q 369 87 314 87 q 472 112 424 87 q 548 178 519 137 l 577 60 q 482 7 535 26 q 368 -12 428 -12 m 155 339 q 208 345 181 343 q 260 347 234 347 l 452 347 q 494 346 474 347 q 536 342 515 344 q 500 422 528 388 q 432 477 472 457 q 346 498 393 498 q 259 476 299 498 q 192 419 219 454 q 155 339 165 383 m 163 666 l 344 877 l 346 877 l 528 666 l 418 666 q 381 707 397 686 q 343 759 365 729 q 306 707 322 729 q 269 666 289 686 l 163 666 z "},"ế":{"ha":685,"x_min":52,"x_max":654,"o":"m 368 -12 q 242 12 300 -12 q 142 77 184 36 q 76 175 99 119 q 52 295 52 231 q 75 410 52 357 q 138 504 97 464 q 232 568 178 545 q 346 590 285 590 q 493 552 426 590 q 599 449 559 514 q 639 303 639 385 l 639 260 l 260 260 q 209 262 235 260 q 158 268 183 264 q 194 176 165 217 q 269 110 224 134 q 369 87 314 87 q 472 112 424 87 q 548 178 519 137 l 577 60 q 482 7 535 26 q 368 -12 428 -12 m 155 339 q 208 345 181 343 q 260 347 234 347 l 452 347 q 494 346 474 347 q 536 342 515 344 q 500 422 528 388 q 432 477 472 457 q 346 498 393 498 q 259 476 299 498 q 192 419 219 454 q 155 339 165 383 m 473 790 l 546 935 l 654 935 l 554 790 l 473 790 m 163 666 l 344 877 l 346 877 l 528 666 l 418 666 q 381 707 397 686 q 343 759 365 729 q 306 707 322 729 q 269 666 289 686 l 163 666 z "},"ệ":{"ha":685,"x_min":52,"x_max":639,"o":"m 368 -12 q 242 12 300 -12 q 142 77 184 36 q 76 175 99 119 q 52 295 52 231 q 75 410 52 357 q 138 504 97 464 q 232 568 178 545 q 346 590 285 590 q 493 552 426 590 q 599 449 559 514 q 639 303 639 385 l 639 260 l 260 260 q 209 262 235 260 q 158 268 183 264 q 194 176 165 217 q 269 110 224 134 q 369 87 314 87 q 472 112 424 87 q 548 178 519 137 l 577 60 q 482 7 535 26 q 368 -12 428 -12 m 155 339 q 208 345 181 343 q 260 347 234 347 l 452 347 q 494 346 474 347 q 536 342 515 344 q 500 422 528 388 q 432 477 472 457 q 346 498 393 498 q 259 476 299 498 q 192 419 219 454 q 155 339 165 383 m 345 -243 q 310 -234 326 -243 q 285 -209 294 -225 q 276 -174 276 -193 q 285 -138 276 -153 q 310 -113 294 -122 q 345 -104 326 -104 q 381 -113 366 -104 q 406 -138 396 -122 q 415 -174 415 -153 q 406 -209 415 -193 q 381 -234 396 -225 q 345 -243 366 -243 m 163 666 l 344 877 l 346 877 l 528 666 l 418 666 q 381 707 397 686 q 343 759 365 729 q 306 707 322 729 q 269 666 289 686 l 163 666 z "},"ề":{"ha":685,"x_min":52,"x_max":639,"o":"m 368 -12 q 242 12 300 -12 q 142 77 184 36 q 76 175 99 119 q 52 295 52 231 q 75 410 52 357 q 138 504 97 464 q 232 568 178 545 q 346 590 285 590 q 493 552 426 590 q 599 449 559 514 q 639 303 639 385 l 639 260 l 260 260 q 209 262 235 260 q 158 268 183 264 q 194 176 165 217 q 269 110 224 134 q 369 87 314 87 q 472 112 424 87 q 548 178 519 137 l 577 60 q 482 7 535 26 q 368 -12 428 -12 m 155 339 q 208 345 181 343 q 260 347 234 347 l 452 347 q 494 346 474 347 q 536 342 515 344 q 500 422 528 388 q 432 477 472 457 q 346 498 393 498 q 259 476 299 498 q 192 419 219 454 q 155 339 165 383 m 544 790 l 444 935 l 552 935 l 625 790 l 544 790 m 163 666 l 344 877 l 346 877 l 528 666 l 418 666 q 381 707 397 686 q 343 759 365 729 q 306 707 322 729 q 269 666 289 686 l 163 666 z "},"ể":{"ha":685,"x_min":52,"x_max":639,"o":"m 368 -12 q 242 12 300 -12 q 142 77 184 36 q 76 175 99 119 q 52 295 52 231 q 75 410 52 357 q 138 504 97 464 q 232 568 178 545 q 346 590 285 590 q 493 552 426 590 q 599 449 559 514 q 639 303 639 385 l 639 260 l 260 260 q 209 262 235 260 q 158 268 183 264 q 194 176 165 217 q 269 110 224 134 q 369 87 314 87 q 472 112 424 87 q 548 178 519 137 l 577 60 q 482 7 535 26 q 368 -12 428 -12 m 155 339 q 208 345 181 343 q 260 347 234 347 l 452 347 q 494 346 474 347 q 536 342 515 344 q 500 422 528 388 q 432 477 472 457 q 346 498 393 498 q 259 476 299 498 q 192 419 219 454 q 155 339 165 383 m 507 790 q 541 829 529 811 q 554 860 554 846 q 541 891 554 879 q 507 903 529 903 q 473 893 489 903 q 447 871 457 883 l 428 943 q 472 965 448 959 q 519 972 496 972 q 600 945 566 972 q 635 871 635 918 q 623 827 635 847 q 594 790 611 806 l 507 790 m 163 666 l 344 877 l 346 877 l 528 666 l 418 666 q 381 707 397 686 q 343 759 365 729 q 306 707 322 729 q 269 666 289 686 l 163 666 z "},"ễ":{"ha":685,"x_min":52,"x_max":639,"o":"m 368 -12 q 242 12 300 -12 q 142 77 184 36 q 76 175 99 119 q 52 295 52 231 q 75 410 52 357 q 138 504 97 464 q 232 568 178 545 q 346 590 285 590 q 493 552 426 590 q 599 449 559 514 q 639 303 639 385 l 639 260 l 260 260 q 209 262 235 260 q 158 268 183 264 q 194 176 165 217 q 269 110 224 134 q 369 87 314 87 q 472 112 424 87 q 548 178 519 137 l 577 60 q 482 7 535 26 q 368 -12 428 -12 m 155 339 q 208 345 181 343 q 260 347 234 347 l 452 347 q 494 346 474 347 q 536 342 515 344 q 500 422 528 388 q 432 477 472 457 q 346 498 393 498 q 259 476 299 498 q 192 419 219 454 q 155 339 165 383 m 163 666 l 344 865 l 346 865 l 528 666 l 418 666 q 381 705 397 685 q 343 751 365 724 q 306 705 322 724 q 269 666 289 685 l 163 666 m 203 860 l 177 931 q 218 978 194 962 q 272 994 242 994 q 322 984 298 994 q 369 963 346 973 q 414 952 392 952 q 458 968 440 952 q 488 1011 476 984 l 513 940 q 474 894 498 910 q 419 878 449 878 q 368 888 393 878 q 322 909 344 899 q 277 919 299 919 q 203 860 227 919 z "},"ȅ":{"ha":685,"x_min":52,"x_max":639,"o":"m 368 -12 q 242 12 300 -12 q 142 77 184 36 q 76 175 99 119 q 52 295 52 231 q 75 410 52 357 q 138 504 97 464 q 232 568 178 545 q 346 590 285 590 q 493 552 426 590 q 599 449 559 514 q 639 303 639 385 l 639 260 l 260 260 q 209 262 235 260 q 158 268 183 264 q 194 176 165 217 q 269 110 224 134 q 369 87 314 87 q 472 112 424 87 q 548 178 519 137 l 577 60 q 482 7 535 26 q 368 -12 428 -12 m 155 339 q 208 345 181 343 q 260 347 234 347 l 452 347 q 494 346 474 347 q 536 342 515 344 q 500 422 528 388 q 432 477 472 457 q 346 498 393 498 q 259 476 299 498 q 192 419 219 454 q 155 339 165 383 m 412 666 l 314 839 l 430 839 l 494 666 l 412 666 m 198 666 l 100 839 l 216 839 l 280 666 l 198 666 z "},"ë":{"ha":685,"x_min":52,"x_max":639,"o":"m 368 -12 q 242 12 300 -12 q 142 77 184 36 q 76 175 99 119 q 52 295 52 231 q 75 410 52 357 q 138 504 97 464 q 232 568 178 545 q 346 590 285 590 q 493 552 426 590 q 599 449 559 514 q 639 303 639 385 l 639 260 l 260 260 q 209 262 235 260 q 158 268 183 264 q 194 176 165 217 q 269 110 224 134 q 369 87 314 87 q 472 112 424 87 q 548 178 519 137 l 577 60 q 482 7 535 26 q 368 -12 428 -12 m 155 339 q 208 345 181 343 q 260 347 234 347 l 452 347 q 494 346 474 347 q 536 342 515 344 q 500 422 528 388 q 432 477 472 457 q 346 498 393 498 q 259 476 299 498 q 192 419 219 454 q 155 339 165 383 m 230 686 q 196 695 211 686 q 172 719 181 704 q 163 752 163 734 q 172 787 163 772 q 196 810 181 802 q 230 819 211 819 q 264 810 249 819 q 287 787 279 802 q 296 752 296 772 q 287 719 296 734 q 264 695 279 704 q 230 686 249 686 m 461 686 q 428 695 443 686 q 404 719 413 704 q 394 752 394 734 q 404 787 394 772 q 428 810 413 802 q 461 819 443 819 q 495 810 480 819 q 519 787 510 802 q 528 752 528 772 q 519 719 528 734 q 495 695 510 704 q 461 686 480 686 z "},"ė":{"ha":685,"x_min":52,"x_max":639,"o":"m 368 -12 q 242 12 300 -12 q 142 77 184 36 q 76 175 99 119 q 52 295 52 231 q 75 410 52 357 q 138 504 97 464 q 232 568 178 545 q 346 590 285 590 q 493 552 426 590 q 599 449 559 514 q 639 303 639 385 l 639 260 l 260 260 q 209 262 235 260 q 158 268 183 264 q 194 176 165 217 q 269 110 224 134 q 369 87 314 87 q 472 112 424 87 q 548 178 519 137 l 577 60 q 482 7 535 26 q 368 -12 428 -12 m 155 339 q 208 345 181 343 q 260 347 234 347 l 452 347 q 494 346 474 347 q 536 342 515 344 q 500 422 528 388 q 432 477 472 457 q 346 498 393 498 q 259 476 299 498 q 192 419 219 454 q 155 339 165 383 m 345 683 q 310 692 326 683 q 285 717 294 701 q 276 752 276 733 q 285 788 276 773 q 310 813 294 803 q 345 822 326 822 q 381 813 366 822 q 406 788 396 803 q 415 752 415 773 q 406 717 415 733 q 381 692 396 701 q 345 683 366 683 z "},"ẹ":{"ha":685,"x_min":52,"x_max":639,"o":"m 368 -12 q 242 12 300 -12 q 142 77 184 36 q 76 175 99 119 q 52 295 52 231 q 75 410 52 357 q 138 504 97 464 q 232 568 178 545 q 346 590 285 590 q 493 552 426 590 q 599 449 559 514 q 639 303 639 385 l 639 260 l 260 260 q 209 262 235 260 q 158 268 183 264 q 194 176 165 217 q 269 110 224 134 q 369 87 314 87 q 472 112 424 87 q 548 178 519 137 l 577 60 q 482 7 535 26 q 368 -12 428 -12 m 155 339 q 208 345 181 343 q 260 347 234 347 l 452 347 q 494 346 474 347 q 536 342 515 344 q 500 422 528 388 q 432 477 472 457 q 346 498 393 498 q 259 476 299 498 q 192 419 219 454 q 155 339 165 383 m 345 -243 q 310 -234 326 -243 q 285 -209 294 -225 q 276 -174 276 -193 q 285 -138 276 -153 q 310 -113 294 -122 q 345 -104 326 -104 q 381 -113 366 -104 q 406 -138 396 -122 q 415 -174 415 -153 q 406 -209 415 -193 q 381 -234 396 -225 q 345 -243 366 -243 z "},"è":{"ha":685,"x_min":52,"x_max":639,"o":"m 368 -12 q 242 12 300 -12 q 142 77 184 36 q 76 175 99 119 q 52 295 52 231 q 75 410 52 357 q 138 504 97 464 q 232 568 178 545 q 346 590 285 590 q 493 552 426 590 q 599 449 559 514 q 639 303 639 385 l 639 260 l 260 260 q 209 262 235 260 q 158 268 183 264 q 194 176 165 217 q 269 110 224 134 q 369 87 314 87 q 472 112 424 87 q 548 178 519 137 l 577 60 q 482 7 535 26 q 368 -12 428 -12 m 155 339 q 208 345 181 343 q 260 347 234 347 l 452 347 q 494 346 474 347 q 536 342 515 344 q 500 422 528 388 q 432 477 472 457 q 346 498 393 498 q 259 476 299 498 q 192 419 219 454 q 155 339 165 383 m 302 666 l 181 839 l 303 839 l 390 666 l 302 666 z "},"ẻ":{"ha":685,"x_min":52,"x_max":639,"o":"m 368 -12 q 242 12 300 -12 q 142 77 184 36 q 76 175 99 119 q 52 295 52 231 q 75 410 52 357 q 138 504 97 464 q 232 568 178 545 q 346 590 285 590 q 493 552 426 590 q 599 449 559 514 q 639 303 639 385 l 639 260 l 260 260 q 209 262 235 260 q 158 268 183 264 q 194 176 165 217 q 269 110 224 134 q 369 87 314 87 q 472 112 424 87 q 548 178 519 137 l 577 60 q 482 7 535 26 q 368 -12 428 -12 m 155 339 q 208 345 181 343 q 260 347 234 347 l 452 347 q 494 346 474 347 q 536 342 515 344 q 500 422 528 388 q 432 477 472 457 q 346 498 393 498 q 259 476 299 498 q 192 419 219 454 q 155 339 165 383 m 314 666 q 352 715 339 693 q 365 755 365 737 q 351 788 365 775 q 314 802 337 802 q 277 791 294 802 q 249 767 259 780 l 229 846 q 276 870 250 862 q 327 877 302 877 q 415 847 378 877 q 452 767 452 818 q 439 709 452 734 q 409 666 425 685 l 314 666 z "},"ȇ":{"ha":685,"x_min":52,"x_max":639,"o":"m 368 -12 q 242 12 300 -12 q 142 77 184 36 q 76 175 99 119 q 52 295 52 231 q 75 410 52 357 q 138 504 97 464 q 232 568 178 545 q 346 590 285 590 q 493 552 426 590 q 599 449 559 514 q 639 303 639 385 l 639 260 l 260 260 q 209 262 235 260 q 158 268 183 264 q 194 176 165 217 q 269 110 224 134 q 369 87 314 87 q 472 112 424 87 q 548 178 519 137 l 577 60 q 482 7 535 26 q 368 -12 428 -12 m 155 339 q 208 345 181 343 q 260 347 234 347 l 452 347 q 494 346 474 347 q 536 342 515 344 q 500 422 528 388 q 432 477 472 457 q 346 498 393 498 q 259 476 299 498 q 192 419 219 454 q 155 339 165 383 m 172 651 q 195 737 172 699 q 258 797 218 775 q 345 819 297 819 q 433 797 394 819 q 496 737 473 774 q 519 651 519 699 l 434 651 q 408 714 434 688 q 345 740 381 740 q 283 714 310 740 q 257 651 257 688 l 172 651 z "},"ē":{"ha":685,"x_min":52,"x_max":639,"o":"m 368 -12 q 242 12 300 -12 q 142 77 184 36 q 76 175 99 119 q 52 295 52 231 q 75 410 52 357 q 138 504 97 464 q 232 568 178 545 q 346 590 285 590 q 493 552 426 590 q 599 449 559 514 q 639 303 639 385 l 639 260 l 260 260 q 209 262 235 260 q 158 268 183 264 q 194 176 165 217 q 269 110 224 134 q 369 87 314 87 q 472 112 424 87 q 548 178 519 137 l 577 60 q 482 7 535 26 q 368 -12 428 -12 m 155 339 q 208 345 181 343 q 260 347 234 347 l 452 347 q 494 346 474 347 q 536 342 515 344 q 500 422 528 388 q 432 477 472 457 q 346 498 393 498 q 259 476 299 498 q 192 419 219 454 q 155 339 165 383 m 175 712 l 175 793 l 516 793 l 516 712 l 175 712 z "},"ę":{"ha":685,"x_min":52,"x_max":639,"o":"m 533 -301 q 422 -261 471 -301 q 374 -148 374 -221 q 388 -76 374 -111 q 428 -7 402 -41 q 398 -10 413 -9 q 368 -12 384 -12 q 242 12 300 -12 q 142 77 184 36 q 76 175 99 119 q 52 295 52 231 q 75 410 52 357 q 138 504 97 464 q 232 568 178 545 q 346 590 285 590 q 493 552 426 590 q 599 449 559 514 q 639 303 639 385 l 639 260 l 260 260 q 209 262 235 260 q 158 268 183 264 q 194 176 165 217 q 269 110 224 134 q 369 87 314 87 q 475 109 426 87 q 551 167 523 131 l 577 60 q 493 -51 515 -9 q 471 -129 471 -93 q 494 -192 471 -174 q 555 -211 518 -211 l 533 -301 m 155 339 q 208 345 181 343 q 260 347 234 347 l 452 347 q 494 346 474 347 q 536 342 515 344 q 500 422 528 388 q 432 477 472 457 q 346 498 393 498 q 259 476 299 498 q 192 419 219 454 q 155 339 165 383 z "},"ẽ":{"ha":685,"x_min":52,"x_max":639,"o":"m 368 -12 q 242 12 300 -12 q 142 77 184 36 q 76 175 99 119 q 52 295 52 231 q 75 410 52 357 q 138 504 97 464 q 232 568 178 545 q 346 590 285 590 q 493 552 426 590 q 599 449 559 514 q 639 303 639 385 l 639 260 l 260 260 q 209 262 235 260 q 158 268 183 264 q 194 176 165 217 q 269 110 224 134 q 369 87 314 87 q 472 112 424 87 q 548 178 519 137 l 577 60 q 482 7 535 26 q 368 -12 428 -12 m 155 339 q 208 345 181 343 q 260 347 234 347 l 452 347 q 494 346 474 347 q 536 342 515 344 q 500 422 528 388 q 432 477 472 457 q 346 498 393 498 q 259 476 299 498 q 192 419 219 454 q 155 339 165 383 m 168 659 l 137 747 q 186 805 156 785 q 255 825 216 825 q 317 812 287 825 q 375 786 346 799 q 430 773 403 773 q 486 792 463 773 q 523 846 508 811 l 554 758 q 504 700 534 720 q 436 680 475 680 q 374 693 404 680 q 316 719 344 706 q 260 732 288 732 q 205 713 228 732 q 168 659 182 693 z "},"ə":{"ha":685,"x_min":46,"x_max":633,"o":"m 339 -12 q 192 27 258 -12 q 86 130 125 65 q 46 276 46 195 l 46 318 l 424 318 q 476 316 449 318 q 527 311 502 314 q 490 404 520 363 q 416 468 461 445 q 315 492 370 492 q 213 467 260 492 q 137 400 166 442 l 108 519 q 204 571 150 553 q 316 590 258 590 q 443 567 385 590 q 543 502 501 543 q 609 404 585 460 q 633 284 633 348 q 610 168 633 222 q 547 74 587 115 q 453 11 506 34 q 339 -12 399 -12 m 339 81 q 425 103 386 81 q 492 161 465 124 q 530 240 520 197 q 477 234 503 236 q 424 231 450 231 l 232 231 q 190 233 211 231 q 149 236 170 234 q 186 157 158 192 q 253 101 213 122 q 339 81 293 81 z "},"ʒ":{"ha":637,"x_min":31,"x_max":590,"o":"m 291 -301 q 139 -262 208 -301 q 31 -156 70 -224 l 95 -30 q 129 -118 101 -79 q 199 -180 157 -157 q 291 -203 241 -203 q 390 -176 346 -203 q 460 -105 434 -149 q 486 -6 486 -60 q 460 93 486 48 q 390 164 434 138 q 291 191 345 191 q 241 184 264 191 q 200 167 218 177 l 198 169 l 363 486 l 95 486 l 95 579 l 523 579 l 523 577 l 360 275 q 450 241 408 265 q 523 179 492 216 q 572 95 555 142 q 590 -6 590 48 q 567 -122 590 -68 q 503 -216 544 -176 q 407 -278 461 -256 q 291 -301 353 -301 z "},"ǯ":{"ha":637,"x_min":31,"x_max":590,"o":"m 291 -301 q 139 -262 208 -301 q 31 -156 70 -224 l 95 -30 q 129 -118 101 -79 q 199 -180 157 -157 q 291 -203 241 -203 q 390 -176 346 -203 q 460 -105 434 -149 q 486 -6 486 -60 q 460 93 486 48 q 390 164 434 138 q 291 191 345 191 q 241 184 264 191 q 200 167 218 177 l 198 169 l 363 486 l 95 486 l 95 579 l 523 579 l 523 577 l 360 275 q 450 241 408 265 q 523 179 492 216 q 572 95 555 142 q 590 -6 590 48 q 567 -122 590 -68 q 503 -216 544 -176 q 407 -278 461 -256 q 291 -301 353 -301 m 308 657 l 126 868 l 236 868 q 273 826 257 848 q 311 774 289 804 q 348 826 332 804 q 385 868 365 848 l 491 868 l 310 657 l 308 657 z "},"f":{"ha":434,"x_min":29,"x_max":469,"o":"m 160 0 l 160 492 l 29 492 l 29 579 l 163 579 l 163 745 q 189 851 163 808 q 258 916 214 894 q 352 938 301 938 q 411 931 381 938 q 469 908 442 924 l 444 806 q 399 840 423 829 q 349 851 375 851 q 308 842 328 851 q 274 809 287 832 q 261 743 261 785 l 261 579 l 405 579 l 405 492 l 264 492 l 264 0 l 160 0 z "},"g":{"ha":733,"x_min":52,"x_max":640,"o":"m 327 -301 q 244 -292 283 -301 q 171 -267 204 -284 q 109 -229 137 -251 l 138 -111 q 215 -178 167 -152 q 326 -204 263 -204 q 440 -177 391 -204 q 516 -103 489 -150 q 544 6 544 -56 l 544 76 q 453 15 505 38 q 340 -8 400 -8 q 229 15 281 -8 q 136 80 177 39 q 74 174 96 121 q 52 289 52 228 q 74 405 52 351 q 136 499 96 458 q 229 563 177 540 q 340 586 281 586 q 453 564 400 586 q 544 503 505 542 l 544 579 l 640 579 l 640 0 q 597 -162 640 -95 q 481 -265 553 -230 q 327 -301 410 -301 m 354 87 q 454 114 409 87 q 525 188 499 142 q 552 289 552 233 q 525 391 552 345 q 454 464 499 437 q 354 492 409 492 q 254 464 299 492 q 183 391 209 437 q 156 289 156 345 q 183 188 156 233 q 254 114 209 142 q 354 87 299 87 z "},"ğ":{"ha":733,"x_min":52,"x_max":640,"o":"m 327 -301 q 244 -292 283 -301 q 171 -267 204 -284 q 109 -229 137 -251 l 138 -111 q 215 -178 167 -152 q 326 -204 263 -204 q 440 -177 391 -204 q 516 -103 489 -150 q 544 6 544 -56 l 544 76 q 453 15 505 38 q 340 -8 400 -8 q 229 15 281 -8 q 136 80 177 39 q 74 174 96 121 q 52 289 52 228 q 74 405 52 351 q 136 499 96 458 q 229 563 177 540 q 340 586 281 586 q 453 564 400 586 q 544 503 505 542 l 544 579 l 640 579 l 640 0 q 597 -162 640 -95 q 481 -265 553 -230 q 327 -301 410 -301 m 354 87 q 454 114 409 87 q 525 188 499 142 q 552 289 552 233 q 525 391 552 345 q 454 464 499 437 q 354 492 409 492 q 254 464 299 492 q 183 391 209 437 q 156 289 156 345 q 183 188 156 233 q 254 114 209 142 q 354 87 299 87 m 367 651 q 280 673 319 651 q 217 734 240 695 q 194 819 194 772 l 279 819 q 305 756 279 782 q 367 730 332 730 q 430 756 403 730 q 456 819 456 782 l 541 819 q 518 733 541 771 q 456 673 495 694 q 367 651 417 651 z "},"ǧ":{"ha":733,"x_min":52,"x_max":640,"o":"m 327 -301 q 244 -292 283 -301 q 171 -267 204 -284 q 109 -229 137 -251 l 138 -111 q 215 -178 167 -152 q 326 -204 263 -204 q 440 -177 391 -204 q 516 -103 489 -150 q 544 6 544 -56 l 544 76 q 453 15 505 38 q 340 -8 400 -8 q 229 15 281 -8 q 136 80 177 39 q 74 174 96 121 q 52 289 52 228 q 74 405 52 351 q 136 499 96 458 q 229 563 177 540 q 340 586 281 586 q 453 564 400 586 q 544 503 505 542 l 544 579 l 640 579 l 640 0 q 597 -162 640 -95 q 481 -265 553 -230 q 327 -301 410 -301 m 354 87 q 454 114 409 87 q 525 188 499 142 q 552 289 552 233 q 525 391 552 345 q 454 464 499 437 q 354 492 409 492 q 254 464 299 492 q 183 391 209 437 q 156 289 156 345 q 183 188 156 233 q 254 114 209 142 q 354 87 299 87 m 367 657 l 185 868 l 295 868 q 332 826 315 848 q 369 774 348 804 q 407 826 391 804 q 444 868 423 848 l 550 868 l 368 657 l 367 657 z "},"ĝ":{"ha":733,"x_min":52,"x_max":640,"o":"m 327 -301 q 244 -292 283 -301 q 171 -267 204 -284 q 109 -229 137 -251 l 138 -111 q 215 -178 167 -152 q 326 -204 263 -204 q 440 -177 391 -204 q 516 -103 489 -150 q 544 6 544 -56 l 544 76 q 453 15 505 38 q 340 -8 400 -8 q 229 15 281 -8 q 136 80 177 39 q 74 174 96 121 q 52 289 52 228 q 74 405 52 351 q 136 499 96 458 q 229 563 177 540 q 340 586 281 586 q 453 564 400 586 q 544 503 505 542 l 544 579 l 640 579 l 640 0 q 597 -162 640 -95 q 481 -265 553 -230 q 327 -301 410 -301 m 354 87 q 454 114 409 87 q 525 188 499 142 q 552 289 552 233 q 525 391 552 345 q 454 464 499 437 q 354 492 409 492 q 254 464 299 492 q 183 391 209 437 q 156 289 156 345 q 183 188 156 233 q 254 114 209 142 q 354 87 299 87 m 185 666 l 367 877 l 368 877 l 550 666 l 440 666 q 403 707 420 686 q 366 759 387 729 q 328 707 344 729 q 291 666 312 686 l 185 666 z "},"ģ":{"ha":733,"x_min":52,"x_max":640,"o":"m 327 -301 q 244 -292 283 -301 q 171 -267 204 -284 q 109 -229 137 -251 l 138 -111 q 215 -178 167 -152 q 326 -204 263 -204 q 440 -177 391 -204 q 516 -103 489 -150 q 544 6 544 -56 l 544 76 q 453 15 505 38 q 340 -8 400 -8 q 229 15 281 -8 q 136 80 177 39 q 74 174 96 121 q 52 289 52 228 q 74 405 52 351 q 136 499 96 458 q 229 563 177 540 q 340 586 281 586 q 453 564 400 586 q 544 503 505 542 l 544 579 l 640 579 l 640 0 q 597 -162 640 -95 q 481 -265 553 -230 q 327 -301 410 -301 m 354 87 q 454 114 409 87 q 525 188 499 142 q 552 289 552 233 q 525 391 552 345 q 454 464 499 437 q 354 492 409 492 q 254 464 299 492 q 183 391 209 437 q 156 289 156 345 q 183 188 156 233 q 254 114 209 142 q 354 87 299 87 m 317 694 q 341 802 322 751 q 389 897 360 853 l 501 897 q 445 806 468 856 q 418 694 422 756 l 317 694 z "},"ġ":{"ha":733,"x_min":52,"x_max":640,"o":"m 327 -301 q 244 -292 283 -301 q 171 -267 204 -284 q 109 -229 137 -251 l 138 -111 q 215 -178 167 -152 q 326 -204 263 -204 q 440 -177 391 -204 q 516 -103 489 -150 q 544 6 544 -56 l 544 76 q 453 15 505 38 q 340 -8 400 -8 q 229 15 281 -8 q 136 80 177 39 q 74 174 96 121 q 52 289 52 228 q 74 405 52 351 q 136 499 96 458 q 229 563 177 540 q 340 586 281 586 q 453 564 400 586 q 544 503 505 542 l 544 579 l 640 579 l 640 0 q 597 -162 640 -95 q 481 -265 553 -230 q 327 -301 410 -301 m 354 87 q 454 114 409 87 q 525 188 499 142 q 552 289 552 233 q 525 391 552 345 q 454 464 499 437 q 354 492 409 492 q 254 464 299 492 q 183 391 209 437 q 156 289 156 345 q 183 188 156 233 q 254 114 209 142 q 354 87 299 87 m 367 683 q 332 692 348 683 q 307 717 316 701 q 298 752 298 733 q 307 788 298 773 q 332 813 316 803 q 367 822 348 822 q 403 813 388 822 q 428 788 419 803 q 437 752 437 773 q 428 717 437 733 q 403 692 419 701 q 367 683 388 683 z "},"ǥ":{"ha":733,"x_min":52,"x_max":708,"o":"m 327 -301 q 244 -292 283 -301 q 171 -267 204 -284 q 109 -229 137 -251 l 138 -111 q 215 -178 167 -152 q 326 -204 263 -204 q 440 -177 391 -204 q 516 -103 489 -150 q 544 6 544 -56 l 544 76 q 453 15 505 38 q 340 -8 400 -8 q 229 15 281 -8 q 136 80 177 39 q 74 174 96 121 q 52 289 52 228 q 74 405 52 351 q 136 499 96 458 q 229 563 177 540 q 340 586 281 586 q 453 564 400 586 q 544 503 505 542 l 544 579 l 640 579 l 640 322 l 708 322 l 708 257 l 640 257 l 640 0 q 597 -162 640 -95 q 481 -265 553 -230 q 327 -301 410 -301 m 354 87 q 446 109 404 87 q 515 170 487 131 q 549 257 542 208 l 341 257 l 341 322 l 549 322 q 515 409 542 370 q 446 470 487 448 q 354 492 404 492 q 254 464 299 492 q 183 391 209 437 q 156 289 156 345 q 183 188 156 233 q 254 114 209 142 q 354 87 299 87 z "},"h":{"ha":694,"x_min":93,"x_max":613,"o":"m 93 0 l 93 926 l 197 926 l 197 497 q 278 566 230 542 q 381 590 326 590 q 495 560 443 590 q 581 472 548 530 q 613 333 613 415 l 613 0 l 509 0 l 509 318 q 491 404 509 365 q 438 468 473 444 q 353 492 403 492 q 277 472 313 492 q 219 415 241 452 q 197 321 197 377 l 197 0 l 93 0 z "},"ħ":{"ha":694,"x_min":29,"x_max":613,"o":"m 93 0 l 93 720 l 29 720 l 29 785 l 93 785 l 93 926 l 191 926 l 191 785 l 395 785 l 395 720 l 191 720 l 191 488 q 273 564 223 538 q 381 590 323 590 q 495 560 443 590 q 581 472 548 530 q 613 333 613 415 l 613 0 l 509 0 l 509 318 q 491 404 509 365 q 438 468 473 444 q 353 492 403 492 q 277 472 313 492 q 219 415 241 452 q 197 321 197 377 l 197 0 l 93 0 z "},"ĥ":{"ha":694,"x_min":-38,"x_max":613,"o":"m 93 0 l 93 926 l 197 926 l 197 497 q 278 566 230 542 q 381 590 326 590 q 495 560 443 590 q 581 472 548 530 q 613 333 613 415 l 613 0 l 509 0 l 509 318 q 491 404 509 365 q 438 468 473 444 q 353 492 403 492 q 277 472 313 492 q 219 415 241 452 q 197 321 197 377 l 197 0 l 93 0 m -38 1013 l 144 1224 l 146 1224 l 327 1013 l 217 1013 q 180 1055 197 1033 q 143 1106 164 1076 q 105 1055 122 1076 q 68 1013 89 1033 l -38 1013 z "},"i":{"ha":289,"x_min":75,"x_max":214,"o":"m 93 0 l 93 579 l 197 579 l 197 0 l 93 0 m 145 683 q 109 692 125 683 q 84 717 94 701 q 75 752 75 733 q 84 788 75 773 q 109 813 94 803 q 145 822 125 822 q 180 813 165 822 q 205 788 196 803 q 214 752 214 773 q 205 717 214 733 q 180 692 196 701 q 145 683 165 683 z "},"ı":{"ha":289,"x_min":93,"x_max":197,"o":"m 93 0 l 93 579 l 197 579 l 197 0 l 93 0 z "},"í":{"ha":289,"x_min":93,"x_max":280,"o":"m 93 0 l 93 579 l 197 579 l 197 0 l 93 0 m 100 666 l 158 839 l 280 839 l 188 666 l 100 666 z "},"ĭ":{"ha":289,"x_min":-29,"x_max":318,"o":"m 93 0 l 93 579 l 197 579 l 197 0 l 93 0 m 145 651 q 57 673 96 651 q -6 734 17 695 q -29 819 -29 772 l 56 819 q 82 756 56 782 q 145 730 109 730 q 207 756 180 730 q 233 819 233 782 l 318 819 q 295 733 318 771 q 233 673 272 694 q 145 651 194 651 z "},"î":{"ha":289,"x_min":-38,"x_max":327,"o":"m 93 0 l 93 579 l 197 579 l 197 0 l 93 0 m -38 666 l 144 877 l 146 877 l 327 666 l 217 666 q 180 707 197 686 q 143 759 164 729 q 105 707 122 729 q 68 666 89 686 l -38 666 z "},"ȉ":{"ha":289,"x_min":-100,"x_max":293,"o":"m 93 0 l 93 579 l 197 579 l 197 0 l 93 0 m 211 666 l 114 839 l 230 839 l 293 666 l 211 666 m -3 666 l -100 839 l 15 839 l 79 666 l -3 666 z "},"ï":{"ha":289,"x_min":-9,"x_max":298,"o":"m 93 0 l 93 579 l 197 579 l 197 0 l 93 0 m 52 686 q 20 695 34 686 q -1 719 7 704 q -9 752 -9 734 q -1 787 -9 772 q 20 810 7 802 q 52 819 34 819 q 85 810 71 819 q 106 787 98 802 q 113 752 113 772 q 106 719 113 734 q 85 695 98 704 q 52 686 71 686 m 237 686 q 205 695 219 686 q 184 719 192 704 q 177 752 177 734 q 184 787 177 772 q 205 810 192 802 q 237 819 219 819 q 270 810 257 819 q 291 787 284 802 q 298 752 298 772 q 291 719 298 734 q 270 695 284 704 q 237 686 257 686 z "},"ị":{"ha":289,"x_min":75,"x_max":214,"o":"m 93 0 l 93 579 l 197 579 l 197 0 l 93 0 m 145 683 q 109 692 125 683 q 84 717 94 701 q 75 752 75 733 q 84 788 75 773 q 109 813 94 803 q 145 822 125 822 q 180 813 165 822 q 205 788 196 803 q 214 752 214 773 q 205 717 214 733 q 180 692 196 701 q 145 683 165 683 m 145 -243 q 109 -234 125 -243 q 84 -209 94 -225 q 75 -174 75 -193 q 84 -138 75 -153 q 109 -113 94 -122 q 145 -104 125 -104 q 180 -113 165 -104 q 205 -138 196 -122 q 214 -174 214 -153 q 205 -209 214 -193 q 180 -234 196 -225 q 145 -243 165 -243 z "},"ì":{"ha":289,"x_min":19,"x_max":197,"o":"m 93 0 l 93 579 l 197 579 l 197 0 l 93 0 m 101 666 l 19 839 l 141 839 l 189 666 l 101 666 z "},"ỉ":{"ha":289,"x_min":28,"x_max":252,"o":"m 93 0 l 93 579 l 197 579 l 197 0 l 93 0 m 114 666 q 151 715 138 693 q 164 755 164 737 q 150 788 164 775 q 114 802 136 802 q 76 791 94 802 q 48 767 59 780 l 28 846 q 75 870 49 862 q 126 877 101 877 q 215 847 177 877 q 252 767 252 818 q 238 709 252 734 q 208 666 225 685 l 114 666 z "},"ȋ":{"ha":289,"x_min":-29,"x_max":318,"o":"m 93 0 l 93 579 l 197 579 l 197 0 l 93 0 m -29 651 q -6 737 -29 699 q 57 797 17 775 q 145 819 96 819 q 232 797 193 819 q 295 737 272 774 q 318 651 318 699 l 233 651 q 207 714 233 688 q 145 740 180 740 q 82 714 109 740 q 56 651 56 688 l -29 651 z "},"ĳ":{"ha":579,"x_min":75,"x_max":503,"o":"m 93 0 l 93 579 l 197 579 l 197 0 l 93 0 m 145 683 q 109 692 125 683 q 84 717 94 701 q 75 752 75 733 q 84 788 75 773 q 109 813 94 803 q 145 822 125 822 q 180 813 165 822 q 205 788 196 803 q 214 752 214 773 q 205 717 214 733 q 180 692 196 701 q 145 683 165 683 m 319 -301 l 298 -211 q 358 -191 334 -211 q 382 -118 382 -171 l 382 579 l 486 579 l 486 -120 q 438 -254 486 -206 q 319 -301 391 -301 m 434 683 q 399 692 415 683 q 374 717 383 701 q 365 752 365 733 q 374 788 365 773 q 399 813 383 803 q 434 822 415 822 q 470 813 454 822 q 494 788 485 803 q 503 752 503 773 q 494 717 503 733 q 470 692 485 701 q 434 683 454 683 z "},"ī":{"ha":289,"x_min":3,"x_max":286,"o":"m 93 0 l 93 579 l 197 579 l 197 0 l 93 0 m 3 714 l 3 791 l 286 791 l 286 714 l 3 714 z "},"į":{"ha":289,"x_min":39,"x_max":219,"o":"m 198 -301 q 87 -261 135 -301 q 39 -148 39 -221 q 53 -72 39 -109 q 93 0 68 -36 l 93 579 l 197 579 l 197 0 q 152 -63 169 -33 q 135 -129 135 -93 q 159 -192 135 -174 q 219 -211 182 -211 l 198 -301 m 145 683 q 109 692 125 683 q 84 717 94 701 q 75 752 75 733 q 84 788 75 773 q 109 813 94 803 q 145 822 125 822 q 180 813 165 822 q 205 788 196 803 q 214 752 214 773 q 205 717 214 733 q 180 692 196 701 q 145 683 165 683 z "},"ĩ":{"ha":289,"x_min":-64,"x_max":353,"o":"m 93 0 l 93 579 l 197 579 l 197 0 l 93 0 m -33 659 l -64 747 q -14 805 -44 785 q 54 825 15 825 q 116 812 87 825 q 174 786 146 799 q 230 773 203 773 q 285 792 262 773 q 322 846 308 811 l 353 758 q 304 700 334 720 q 235 680 274 680 q 174 693 204 680 q 116 719 144 706 q 60 732 88 732 q 4 713 27 732 q -33 659 -18 693 z "},"j":{"ha":289,"x_min":9,"x_max":214,"o":"m 30 -301 l 9 -211 q 68 -191 44 -211 q 93 -118 93 -171 l 93 579 l 197 579 l 197 -120 q 149 -254 197 -206 q 30 -301 101 -301 m 145 683 q 109 692 125 683 q 84 717 94 701 q 75 752 75 733 q 84 788 75 773 q 109 813 94 803 q 145 822 125 822 q 180 813 165 822 q 205 788 196 803 q 214 752 214 773 q 205 717 214 733 q 180 692 196 701 q 145 683 165 683 z "},"ȷ":{"ha":289,"x_min":9,"x_max":197,"o":"m 30 -301 l 9 -211 q 68 -191 44 -211 q 93 -118 93 -171 l 93 579 l 197 579 l 197 -120 q 149 -254 197 -206 q 30 -301 101 -301 z "},"ĵ":{"ha":289,"x_min":-38,"x_max":327,"o":"m 30 -301 l 9 -211 q 68 -191 44 -211 q 93 -118 93 -171 l 93 579 l 197 579 l 197 -120 q 149 -254 197 -206 q 30 -301 101 -301 m -38 666 l 144 877 l 146 877 l 327 666 l 217 666 q 180 707 197 686 q 143 759 164 729 q 105 707 122 729 q 68 666 89 686 l -38 666 z "},"k":{"ha":608,"x_min":93,"x_max":602,"o":"m 470 0 l 208 318 l 423 579 l 544 579 l 333 326 l 602 0 l 470 0 m 93 0 l 93 926 l 197 926 l 197 0 l 93 0 z "},"ǩ":{"ha":608,"x_min":-38,"x_max":602,"o":"m 470 0 l 208 318 l 423 579 l 544 579 l 333 326 l 602 0 l 470 0 m 93 0 l 93 926 l 197 926 l 197 0 l 93 0 m 144 1004 l -38 1215 l 72 1215 q 109 1173 93 1195 q 147 1122 125 1152 q 184 1173 168 1152 q 221 1215 201 1195 l 327 1215 l 146 1004 l 144 1004 z "},"ķ":{"ha":608,"x_min":93,"x_max":602,"o":"m 470 0 l 208 318 l 423 579 l 544 579 l 333 326 l 602 0 l 470 0 m 93 0 l 93 926 l 197 926 l 197 0 l 93 0 m 185 -318 q 241 -228 218 -278 q 268 -116 263 -177 l 368 -116 q 345 -222 365 -172 q 297 -318 326 -273 l 185 -318 z "},"ĸ":{"ha":608,"x_min":93,"x_max":602,"o":"m 470 0 l 208 318 l 423 579 l 544 579 l 333 326 l 602 0 l 470 0 m 93 0 l 93 579 l 197 579 l 197 0 l 93 0 z "},"l":{"ha":289,"x_min":93,"x_max":197,"o":"m 93 0 l 93 926 l 197 926 l 197 0 l 93 0 z "},"ĺ":{"ha":289,"x_min":93,"x_max":370,"o":"m 93 0 l 93 926 l 197 926 l 197 0 l 93 0 m 93 1013 l 231 1186 l 370 1186 l 197 1013 l 93 1013 z "},"ľ":{"ha":463,"x_min":93,"x_max":440,"o":"m 93 0 l 93 926 l 197 926 l 197 0 l 93 0 m 251 637 q 321 762 294 691 q 347 926 347 833 l 440 926 q 417 771 440 843 q 355 637 394 698 l 251 637 z "},"ļ":{"ha":289,"x_min":12,"x_max":197,"o":"m 93 0 l 93 926 l 197 926 l 197 0 l 93 0 m 12 -318 q 67 -228 44 -278 q 95 -116 90 -177 l 195 -116 q 172 -222 191 -172 q 123 -318 152 -273 l 12 -318 z "},"ŀ":{"ha":405,"x_min":93,"x_max":417,"o":"m 93 0 l 93 926 l 197 926 l 197 0 l 93 0 m 347 336 q 298 356 318 336 q 278 405 278 376 q 298 455 278 435 q 347 475 318 475 q 397 455 377 475 q 417 405 417 435 q 397 356 417 376 q 347 336 377 336 z "},"ǉ":{"ha":579,"x_min":93,"x_max":503,"o":"m 93 0 l 93 926 l 197 926 l 197 0 l 93 0 m 319 -301 l 298 -211 q 358 -191 334 -211 q 382 -118 382 -171 l 382 579 l 486 579 l 486 -120 q 438 -254 486 -206 q 319 -301 391 -301 m 434 683 q 399 692 415 683 q 374 717 383 701 q 365 752 365 733 q 374 788 365 773 q 399 813 383 803 q 434 822 415 822 q 470 813 454 822 q 494 788 485 803 q 503 752 503 773 q 494 717 503 733 q 470 692 485 701 q 434 683 454 683 z "},"ł":{"ha":347,"x_min":-8,"x_max":349,"o":"m 122 0 l 122 390 l 29 329 l -8 387 l 122 472 l 122 926 l 226 926 l 226 540 l 313 597 l 349 539 l 226 458 l 226 0 l 122 0 z "},"m":{"ha":1080,"x_min":93,"x_max":999,"o":"m 93 0 l 93 579 l 189 579 l 189 496 q 270 567 221 543 q 372 590 318 590 q 480 563 431 590 q 559 486 530 535 q 647 564 593 538 q 760 590 700 590 q 880 559 826 590 q 967 473 935 529 q 999 342 999 418 l 999 0 l 895 0 l 895 330 q 850 450 895 409 q 747 491 805 491 q 676 475 710 491 q 620 423 641 458 q 598 333 598 389 l 598 0 l 494 0 l 494 330 q 472 421 494 385 q 416 474 450 456 q 345 492 382 492 q 275 476 310 492 q 219 424 241 459 q 197 333 197 390 l 197 0 l 93 0 z "},"n":{"ha":694,"x_min":93,"x_max":613,"o":"m 93 0 l 93 579 l 189 579 l 189 485 q 272 563 221 536 q 381 590 322 590 q 495 560 443 590 q 581 472 548 530 q 613 333 613 415 l 613 0 l 509 0 l 509 318 q 468 439 509 387 q 353 492 427 492 q 277 472 313 492 q 219 415 241 452 q 197 321 197 377 l 197 0 l 93 0 z "},"ń":{"ha":694,"x_min":93,"x_max":613,"o":"m 93 0 l 93 579 l 189 579 l 189 485 q 272 563 221 536 q 381 590 322 590 q 495 560 443 590 q 581 472 548 530 q 613 333 613 415 l 613 0 l 509 0 l 509 318 q 468 439 509 387 q 353 492 427 492 q 277 472 313 492 q 219 415 241 452 q 197 321 197 377 l 197 0 l 93 0 m 303 666 l 390 839 l 511 839 l 391 666 l 303 666 z "},"ň":{"ha":694,"x_min":93,"x_max":613,"o":"m 93 0 l 93 579 l 189 579 l 189 485 q 272 563 221 536 q 381 590 322 590 q 495 560 443 590 q 581 472 548 530 q 613 333 613 415 l 613 0 l 509 0 l 509 318 q 468 439 509 387 q 353 492 427 492 q 277 472 313 492 q 219 415 241 452 q 197 321 197 377 l 197 0 l 93 0 m 346 657 l 165 868 l 275 868 q 312 826 295 848 q 349 774 328 804 q 387 826 370 804 q 423 868 403 848 l 530 868 l 348 657 l 346 657 z "},"ņ":{"ha":694,"x_min":93,"x_max":613,"o":"m 93 0 l 93 579 l 189 579 l 189 485 q 272 563 221 536 q 381 590 322 590 q 495 560 443 590 q 581 472 548 530 q 613 333 613 415 l 613 0 l 509 0 l 509 318 q 468 439 509 387 q 353 492 427 492 q 277 472 313 492 q 219 415 241 452 q 197 321 197 377 l 197 0 l 93 0 m 214 -318 q 270 -228 247 -278 q 297 -116 292 -177 l 397 -116 q 374 -222 394 -172 q 326 -318 355 -273 l 214 -318 z "},"ǌ":{"ha":984,"x_min":93,"x_max":909,"o":"m 93 0 l 93 579 l 189 579 l 189 485 q 272 563 221 536 q 381 590 322 590 q 495 560 443 590 q 581 472 548 530 q 613 333 613 415 l 613 0 l 509 0 l 509 318 q 468 439 509 387 q 353 492 427 492 q 277 472 313 492 q 219 415 241 452 q 197 321 197 377 l 197 0 l 93 0 m 724 -301 l 703 -211 q 763 -191 739 -211 q 787 -118 787 -171 l 787 579 l 891 579 l 891 -120 q 843 -254 891 -206 q 724 -301 796 -301 m 839 683 q 804 692 820 683 q 779 717 788 701 q 770 752 770 733 q 779 788 770 773 q 804 813 788 803 q 839 822 820 822 q 875 813 859 822 q 899 788 890 803 q 909 752 909 773 q 899 717 909 733 q 875 692 890 701 q 839 683 859 683 z "},"ñ":{"ha":694,"x_min":93,"x_max":613,"o":"m 93 0 l 93 579 l 189 579 l 189 485 q 272 563 221 536 q 381 590 322 590 q 495 560 443 590 q 581 472 548 530 q 613 333 613 415 l 613 0 l 509 0 l 509 318 q 468 439 509 387 q 353 492 427 492 q 277 472 313 492 q 219 415 241 452 q 197 321 197 377 l 197 0 l 93 0 m 170 659 l 139 747 q 188 805 158 785 q 257 825 218 825 q 319 812 289 825 q 377 786 348 799 q 432 773 405 773 q 488 792 465 773 q 525 846 510 811 l 556 758 q 506 700 536 720 q 438 680 476 680 q 376 693 406 680 q 318 719 346 706 q 262 732 290 732 q 207 713 230 732 q 170 659 184 693 z "},"ŋ":{"ha":694,"x_min":93,"x_max":613,"o":"m 447 -301 l 425 -211 q 486 -191 462 -211 q 509 -118 509 -171 l 509 318 q 468 439 509 387 q 353 492 427 492 q 277 472 313 492 q 219 415 241 452 q 197 321 197 377 l 197 0 l 93 0 l 93 579 l 189 579 l 189 485 q 272 563 221 536 q 381 590 322 590 q 495 560 443 590 q 581 472 548 530 q 613 333 613 415 l 613 -120 q 566 -254 613 -206 q 447 -301 518 -301 z "},"o":{"ha":714,"x_min":52,"x_max":662,"o":"m 357 -12 q 238 12 293 -12 q 141 76 183 35 q 76 172 99 118 q 52 289 52 227 q 76 407 52 352 q 141 503 99 461 q 238 567 183 544 q 357 590 293 590 q 476 567 421 590 q 572 503 530 544 q 638 407 614 461 q 662 289 662 352 q 638 172 662 227 q 572 76 614 118 q 476 12 530 35 q 357 -12 421 -12 m 357 87 q 458 114 413 87 q 530 188 503 142 q 557 289 557 233 q 530 391 557 345 q 458 464 503 437 q 357 492 413 492 q 256 464 301 492 q 183 391 210 437 q 156 289 156 345 q 183 188 156 233 q 256 114 210 142 q 357 87 301 87 z "},"ó":{"ha":714,"x_min":52,"x_max":662,"o":"m 357 -12 q 238 12 293 -12 q 141 76 183 35 q 76 172 99 118 q 52 289 52 227 q 76 407 52 352 q 141 503 99 461 q 238 567 183 544 q 357 590 293 590 q 476 567 421 590 q 572 503 530 544 q 638 407 614 461 q 662 289 662 352 q 638 172 662 227 q 572 76 614 118 q 476 12 530 35 q 357 -12 421 -12 m 357 87 q 458 114 413 87 q 530 188 503 142 q 557 289 557 233 q 530 391 557 345 q 458 464 503 437 q 357 492 413 492 q 256 464 301 492 q 183 391 210 437 q 156 289 156 345 q 183 188 156 233 q 256 114 210 142 q 357 87 301 87 m 313 666 l 399 839 l 521 839 l 400 666 l 313 666 z "},"ŏ":{"ha":714,"x_min":52,"x_max":662,"o":"m 357 -12 q 238 12 293 -12 q 141 76 183 35 q 76 172 99 118 q 52 289 52 227 q 76 407 52 352 q 141 503 99 461 q 238 567 183 544 q 357 590 293 590 q 476 567 421 590 q 572 503 530 544 q 638 407 614 461 q 662 289 662 352 q 638 172 662 227 q 572 76 614 118 q 476 12 530 35 q 357 -12 421 -12 m 357 87 q 458 114 413 87 q 530 188 503 142 q 557 289 557 233 q 530 391 557 345 q 458 464 503 437 q 357 492 413 492 q 256 464 301 492 q 183 391 210 437 q 156 289 156 345 q 183 188 156 233 q 256 114 210 142 q 357 87 301 87 m 357 651 q 269 673 309 651 q 206 734 230 695 q 183 819 183 772 l 268 819 q 295 756 268 782 q 357 730 321 730 q 419 756 393 730 q 446 819 446 782 l 530 819 q 507 733 530 771 q 445 673 484 694 q 357 651 406 651 z "},"ô":{"ha":714,"x_min":52,"x_max":662,"o":"m 357 -12 q 238 12 293 -12 q 141 76 183 35 q 76 172 99 118 q 52 289 52 227 q 76 407 52 352 q 141 503 99 461 q 238 567 183 544 q 357 590 293 590 q 476 567 421 590 q 572 503 530 544 q 638 407 614 461 q 662 289 662 352 q 638 172 662 227 q 572 76 614 118 q 476 12 530 35 q 357 -12 421 -12 m 357 87 q 458 114 413 87 q 530 188 503 142 q 557 289 557 233 q 530 391 557 345 q 458 464 503 437 q 357 492 413 492 q 256 464 301 492 q 183 391 210 437 q 156 289 156 345 q 183 188 156 233 q 256 114 210 142 q 357 87 301 87 m 175 666 l 356 877 l 358 877 l 539 666 l 429 666 q 393 707 409 686 q 355 759 376 729 q 317 707 334 729 q 281 666 301 686 l 175 666 z "},"ố":{"ha":714,"x_min":52,"x_max":666,"o":"m 357 -12 q 238 12 293 -12 q 141 76 183 35 q 76 172 99 118 q 52 289 52 227 q 76 407 52 352 q 141 503 99 461 q 238 567 183 544 q 357 590 293 590 q 476 567 421 590 q 572 503 530 544 q 638 407 614 461 q 662 289 662 352 q 638 172 662 227 q 572 76 614 118 q 476 12 530 35 q 357 -12 421 -12 m 357 87 q 458 114 413 87 q 530 188 503 142 q 557 289 557 233 q 530 391 557 345 q 458 464 503 437 q 357 492 413 492 q 256 464 301 492 q 183 391 210 437 q 156 289 156 345 q 183 188 156 233 q 256 114 210 142 q 357 87 301 87 m 484 790 l 557 935 l 666 935 l 565 790 l 484 790 m 175 666 l 356 877 l 358 877 l 539 666 l 429 666 q 393 707 409 686 q 355 759 376 729 q 317 707 334 729 q 281 666 301 686 l 175 666 z "},"ộ":{"ha":714,"x_min":52,"x_max":662,"o":"m 357 -12 q 238 12 293 -12 q 141 76 183 35 q 76 172 99 118 q 52 289 52 227 q 76 407 52 352 q 141 503 99 461 q 238 567 183 544 q 357 590 293 590 q 476 567 421 590 q 572 503 530 544 q 638 407 614 461 q 662 289 662 352 q 638 172 662 227 q 572 76 614 118 q 476 12 530 35 q 357 -12 421 -12 m 357 87 q 458 114 413 87 q 530 188 503 142 q 557 289 557 233 q 530 391 557 345 q 458 464 503 437 q 357 492 413 492 q 256 464 301 492 q 183 391 210 437 q 156 289 156 345 q 183 188 156 233 q 256 114 210 142 q 357 87 301 87 m 357 -243 q 322 -234 338 -243 q 297 -209 306 -225 q 287 -174 287 -193 q 297 -138 287 -153 q 322 -113 306 -122 q 357 -104 338 -104 q 393 -113 377 -104 q 417 -138 408 -122 q 426 -174 426 -153 q 417 -209 426 -193 q 393 -234 408 -225 q 357 -243 377 -243 m 175 666 l 356 877 l 358 877 l 539 666 l 429 666 q 393 707 409 686 q 355 759 376 729 q 317 707 334 729 q 281 666 301 686 l 175 666 z "},"ồ":{"ha":714,"x_min":52,"x_max":662,"o":"m 357 -12 q 238 12 293 -12 q 141 76 183 35 q 76 172 99 118 q 52 289 52 227 q 76 407 52 352 q 141 503 99 461 q 238 567 183 544 q 357 590 293 590 q 476 567 421 590 q 572 503 530 544 q 638 407 614 461 q 662 289 662 352 q 638 172 662 227 q 572 76 614 118 q 476 12 530 35 q 357 -12 421 -12 m 357 87 q 458 114 413 87 q 530 188 503 142 q 557 289 557 233 q 530 391 557 345 q 458 464 503 437 q 357 492 413 492 q 256 464 301 492 q 183 391 210 437 q 156 289 156 345 q 183 188 156 233 q 256 114 210 142 q 357 87 301 87 m 556 790 l 455 935 l 563 935 l 637 790 l 556 790 m 175 666 l 356 877 l 358 877 l 539 666 l 429 666 q 393 707 409 686 q 355 759 376 729 q 317 707 334 729 q 281 666 301 686 l 175 666 z "},"ổ":{"ha":714,"x_min":52,"x_max":662,"o":"m 357 -12 q 238 12 293 -12 q 141 76 183 35 q 76 172 99 118 q 52 289 52 227 q 76 407 52 352 q 141 503 99 461 q 238 567 183 544 q 357 590 293 590 q 476 567 421 590 q 572 503 530 544 q 638 407 614 461 q 662 289 662 352 q 638 172 662 227 q 572 76 614 118 q 476 12 530 35 q 357 -12 421 -12 m 357 87 q 458 114 413 87 q 530 188 503 142 q 557 289 557 233 q 530 391 557 345 q 458 464 503 437 q 357 492 413 492 q 256 464 301 492 q 183 391 210 437 q 156 289 156 345 q 183 188 156 233 q 256 114 210 142 q 357 87 301 87 m 519 790 q 553 829 540 811 q 565 860 565 846 q 553 891 565 879 q 519 903 540 903 q 485 893 501 903 q 458 871 469 883 l 440 943 q 483 965 459 959 q 530 972 507 972 q 612 945 578 972 q 646 871 646 918 q 634 827 646 847 q 606 790 622 806 l 519 790 m 175 666 l 356 877 l 358 877 l 539 666 l 429 666 q 393 707 409 686 q 355 759 376 729 q 317 707 334 729 q 281 666 301 686 l 175 666 z "},"ỗ":{"ha":714,"x_min":52,"x_max":662,"o":"m 357 -12 q 238 12 293 -12 q 141 76 183 35 q 76 172 99 118 q 52 289 52 227 q 76 407 52 352 q 141 503 99 461 q 238 567 183 544 q 357 590 293 590 q 476 567 421 590 q 572 503 530 544 q 638 407 614 461 q 662 289 662 352 q 638 172 662 227 q 572 76 614 118 q 476 12 530 35 q 357 -12 421 -12 m 357 87 q 458 114 413 87 q 530 188 503 142 q 557 289 557 233 q 530 391 557 345 q 458 464 503 437 q 357 492 413 492 q 256 464 301 492 q 183 391 210 437 q 156 289 156 345 q 183 188 156 233 q 256 114 210 142 q 357 87 301 87 m 175 666 l 356 865 l 358 865 l 539 666 l 429 666 q 393 705 409 685 q 355 751 376 724 q 317 705 334 724 q 281 666 301 685 l 175 666 m 214 860 l 189 931 q 230 978 205 962 q 284 994 254 994 q 334 984 310 994 q 380 963 358 973 q 425 952 403 952 q 470 968 451 952 q 500 1011 488 984 l 525 940 q 485 894 509 910 q 430 878 461 878 q 380 888 404 878 q 333 909 356 899 q 288 919 311 919 q 214 860 238 919 z "},"ȍ":{"ha":714,"x_min":52,"x_max":662,"o":"m 357 -12 q 238 12 293 -12 q 141 76 183 35 q 76 172 99 118 q 52 289 52 227 q 76 407 52 352 q 141 503 99 461 q 238 567 183 544 q 357 590 293 590 q 476 567 421 590 q 572 503 530 544 q 638 407 614 461 q 662 289 662 352 q 638 172 662 227 q 572 76 614 118 q 476 12 530 35 q 357 -12 421 -12 m 357 87 q 458 114 413 87 q 530 188 503 142 q 557 289 557 233 q 530 391 557 345 q 458 464 503 437 q 357 492 413 492 q 256 464 301 492 q 183 391 210 437 q 156 289 156 345 q 183 188 156 233 q 256 114 210 142 q 357 87 301 87 m 423 666 l 326 839 l 442 839 l 505 666 l 423 666 m 209 666 l 112 839 l 228 839 l 291 666 l 209 666 z "},"ö":{"ha":714,"x_min":52,"x_max":662,"o":"m 357 -12 q 238 12 293 -12 q 141 76 183 35 q 76 172 99 118 q 52 289 52 227 q 76 407 52 352 q 141 503 99 461 q 238 567 183 544 q 357 590 293 590 q 476 567 421 590 q 572 503 530 544 q 638 407 614 461 q 662 289 662 352 q 638 172 662 227 q 572 76 614 118 q 476 12 530 35 q 357 -12 421 -12 m 357 87 q 458 114 413 87 q 530 188 503 142 q 557 289 557 233 q 530 391 557 345 q 458 464 503 437 q 357 492 413 492 q 256 464 301 492 q 183 391 210 437 q 156 289 156 345 q 183 188 156 233 q 256 114 210 142 q 357 87 301 87 m 241 686 q 208 695 223 686 q 184 719 193 704 q 175 752 175 734 q 184 787 175 772 q 208 810 193 802 q 241 819 223 819 q 275 810 260 819 q 299 787 290 802 q 308 752 308 772 q 299 719 308 734 q 275 695 290 704 q 241 686 260 686 m 473 686 q 439 695 454 686 q 415 719 424 704 q 406 752 406 734 q 415 787 406 772 q 439 810 424 802 q 473 819 454 819 q 507 810 492 819 q 530 787 522 802 q 539 752 539 772 q 530 719 539 734 q 507 695 522 704 q 473 686 492 686 z "},"ȫ":{"ha":714,"x_min":52,"x_max":662,"o":"m 357 -12 q 238 12 293 -12 q 141 76 183 35 q 76 172 99 118 q 52 289 52 227 q 76 407 52 352 q 141 503 99 461 q 238 567 183 544 q 357 590 293 590 q 476 567 421 590 q 572 503 530 544 q 638 407 614 461 q 662 289 662 352 q 638 172 662 227 q 572 76 614 118 q 476 12 530 35 q 357 -12 421 -12 m 357 87 q 458 114 413 87 q 530 188 503 142 q 557 289 557 233 q 530 391 557 345 q 458 464 503 437 q 357 492 413 492 q 256 464 301 492 q 183 391 210 437 q 156 289 156 345 q 183 188 156 233 q 256 114 210 142 q 357 87 301 87 m 192 888 l 192 964 l 522 964 l 522 888 l 192 888 m 241 686 q 208 695 223 686 q 184 719 193 704 q 175 752 175 734 q 184 787 175 772 q 208 810 193 802 q 241 819 223 819 q 275 810 260 819 q 299 787 290 802 q 308 752 308 772 q 299 719 308 734 q 275 695 290 704 q 241 686 260 686 m 473 686 q 439 695 454 686 q 415 719 424 704 q 406 752 406 734 q 415 787 406 772 q 439 810 424 802 q 473 819 454 819 q 507 810 492 819 q 530 787 522 802 q 539 752 539 772 q 530 719 539 734 q 507 695 522 704 q 473 686 492 686 z "},"ȱ":{"ha":714,"x_min":52,"x_max":662,"o":"m 357 -12 q 238 12 293 -12 q 141 76 183 35 q 76 172 99 118 q 52 289 52 227 q 76 407 52 352 q 141 503 99 461 q 238 567 183 544 q 357 590 293 590 q 476 567 421 590 q 572 503 530 544 q 638 407 614 461 q 662 289 662 352 q 638 172 662 227 q 572 76 614 118 q 476 12 530 35 q 357 -12 421 -12 m 357 87 q 458 114 413 87 q 530 188 503 142 q 557 289 557 233 q 530 391 557 345 q 458 464 503 437 q 357 492 413 492 q 256 464 301 492 q 183 391 210 437 q 156 289 156 345 q 183 188 156 233 q 256 114 210 142 q 357 87 301 87 m 357 686 q 324 695 339 686 q 299 719 309 704 q 290 752 290 734 q 299 787 290 772 q 324 810 309 802 q 357 819 339 819 q 391 810 376 819 q 415 787 406 802 q 423 752 423 772 q 415 719 423 734 q 391 695 406 704 q 357 686 376 686 m 192 888 l 192 964 l 522 964 l 522 888 l 192 888 z "},"ọ":{"ha":714,"x_min":52,"x_max":662,"o":"m 357 -12 q 238 12 293 -12 q 141 76 183 35 q 76 172 99 118 q 52 289 52 227 q 76 407 52 352 q 141 503 99 461 q 238 567 183 544 q 357 590 293 590 q 476 567 421 590 q 572 503 530 544 q 638 407 614 461 q 662 289 662 352 q 638 172 662 227 q 572 76 614 118 q 476 12 530 35 q 357 -12 421 -12 m 357 87 q 458 114 413 87 q 530 188 503 142 q 557 289 557 233 q 530 391 557 345 q 458 464 503 437 q 357 492 413 492 q 256 464 301 492 q 183 391 210 437 q 156 289 156 345 q 183 188 156 233 q 256 114 210 142 q 357 87 301 87 m 357 -243 q 322 -234 338 -243 q 297 -209 306 -225 q 287 -174 287 -193 q 297 -138 287 -153 q 322 -113 306 -122 q 357 -104 338 -104 q 393 -113 377 -104 q 417 -138 408 -122 q 426 -174 426 -153 q 417 -209 426 -193 q 393 -234 408 -225 q 357 -243 377 -243 z "},"ò":{"ha":714,"x_min":52,"x_max":662,"o":"m 357 -12 q 238 12 293 -12 q 141 76 183 35 q 76 172 99 118 q 52 289 52 227 q 76 407 52 352 q 141 503 99 461 q 238 567 183 544 q 357 590 293 590 q 476 567 421 590 q 572 503 530 544 q 638 407 614 461 q 662 289 662 352 q 638 172 662 227 q 572 76 614 118 q 476 12 530 35 q 357 -12 421 -12 m 357 87 q 458 114 413 87 q 530 188 503 142 q 557 289 557 233 q 530 391 557 345 q 458 464 503 437 q 357 492 413 492 q 256 464 301 492 q 183 391 210 437 q 156 289 156 345 q 183 188 156 233 q 256 114 210 142 q 357 87 301 87 m 313 666 l 193 839 l 314 839 l 401 666 l 313 666 z "},"ỏ":{"ha":714,"x_min":52,"x_max":662,"o":"m 357 -12 q 238 12 293 -12 q 141 76 183 35 q 76 172 99 118 q 52 289 52 227 q 76 407 52 352 q 141 503 99 461 q 238 567 183 544 q 357 590 293 590 q 476 567 421 590 q 572 503 530 544 q 638 407 614 461 q 662 289 662 352 q 638 172 662 227 q 572 76 614 118 q 476 12 530 35 q 357 -12 421 -12 m 357 87 q 458 114 413 87 q 530 188 503 142 q 557 289 557 233 q 530 391 557 345 q 458 464 503 437 q 357 492 413 492 q 256 464 301 492 q 183 391 210 437 q 156 289 156 345 q 183 188 156 233 q 256 114 210 142 q 357 87 301 87 m 326 666 q 363 715 350 693 q 376 755 376 737 q 362 788 376 775 q 326 802 348 802 q 288 791 306 802 q 260 767 271 780 l 240 846 q 287 870 261 862 q 339 877 313 877 q 427 847 390 877 q 464 767 464 818 q 450 709 464 734 q 421 666 437 685 l 326 666 z "},"ơ":{"ha":743,"x_min":52,"x_max":720,"o":"m 357 -12 q 238 12 293 -12 q 141 76 183 35 q 76 172 99 118 q 52 289 52 227 q 76 407 52 352 q 141 503 99 461 q 238 567 183 544 q 357 590 293 590 q 495 558 431 590 q 600 472 558 526 q 624 501 614 482 q 633 548 633 519 q 628 589 633 565 q 610 637 623 612 l 696 637 q 715 591 710 613 q 720 548 720 569 q 709 482 720 511 q 681 433 699 453 q 640 399 664 412 q 656 346 651 374 q 662 289 662 318 q 638 172 662 227 q 572 76 614 118 q 476 12 530 35 q 357 -12 421 -12 m 357 87 q 458 114 413 87 q 530 188 503 142 q 557 289 557 233 q 530 391 557 345 q 458 464 503 437 q 357 492 413 492 q 256 464 301 492 q 183 391 210 437 q 156 289 156 345 q 183 188 156 233 q 256 114 210 142 q 357 87 301 87 z "},"ớ":{"ha":743,"x_min":52,"x_max":720,"o":"m 357 -12 q 238 12 293 -12 q 141 76 183 35 q 76 172 99 118 q 52 289 52 227 q 76 407 52 352 q 141 503 99 461 q 238 567 183 544 q 357 590 293 590 q 495 558 431 590 q 600 472 558 526 q 624 501 614 482 q 633 548 633 519 q 628 589 633 565 q 610 637 623 612 l 696 637 q 715 591 710 613 q 720 548 720 569 q 709 482 720 511 q 681 433 699 453 q 640 399 664 412 q 656 346 651 374 q 662 289 662 318 q 638 172 662 227 q 572 76 614 118 q 476 12 530 35 q 357 -12 421 -12 m 357 87 q 458 114 413 87 q 530 188 503 142 q 557 289 557 233 q 530 391 557 345 q 458 464 503 437 q 357 492 413 492 q 256 464 301 492 q 183 391 210 437 q 156 289 156 345 q 183 188 156 233 q 256 114 210 142 q 357 87 301 87 m 313 666 l 399 839 l 521 839 l 400 666 l 313 666 z "},"ợ":{"ha":743,"x_min":52,"x_max":720,"o":"m 357 -12 q 238 12 293 -12 q 141 76 183 35 q 76 172 99 118 q 52 289 52 227 q 76 407 52 352 q 141 503 99 461 q 238 567 183 544 q 357 590 293 590 q 495 558 431 590 q 600 472 558 526 q 624 501 614 482 q 633 548 633 519 q 628 589 633 565 q 610 637 623 612 l 696 637 q 715 591 710 613 q 720 548 720 569 q 709 482 720 511 q 681 433 699 453 q 640 399 664 412 q 656 346 651 374 q 662 289 662 318 q 638 172 662 227 q 572 76 614 118 q 476 12 530 35 q 357 -12 421 -12 m 357 87 q 458 114 413 87 q 530 188 503 142 q 557 289 557 233 q 530 391 557 345 q 458 464 503 437 q 357 492 413 492 q 256 464 301 492 q 183 391 210 437 q 156 289 156 345 q 183 188 156 233 q 256 114 210 142 q 357 87 301 87 m 357 -243 q 322 -234 338 -243 q 297 -209 306 -225 q 287 -174 287 -193 q 297 -138 287 -153 q 322 -113 306 -122 q 357 -104 338 -104 q 393 -113 377 -104 q 417 -138 408 -122 q 426 -174 426 -153 q 417 -209 426 -193 q 393 -234 408 -225 q 357 -243 377 -243 z "},"ờ":{"ha":743,"x_min":52,"x_max":720,"o":"m 357 -12 q 238 12 293 -12 q 141 76 183 35 q 76 172 99 118 q 52 289 52 227 q 76 407 52 352 q 141 503 99 461 q 238 567 183 544 q 357 590 293 590 q 495 558 431 590 q 600 472 558 526 q 624 501 614 482 q 633 548 633 519 q 628 589 633 565 q 610 637 623 612 l 696 637 q 715 591 710 613 q 720 548 720 569 q 709 482 720 511 q 681 433 699 453 q 640 399 664 412 q 656 346 651 374 q 662 289 662 318 q 638 172 662 227 q 572 76 614 118 q 476 12 530 35 q 357 -12 421 -12 m 357 87 q 458 114 413 87 q 530 188 503 142 q 557 289 557 233 q 530 391 557 345 q 458 464 503 437 q 357 492 413 492 q 256 464 301 492 q 183 391 210 437 q 156 289 156 345 q 183 188 156 233 q 256 114 210 142 q 357 87 301 87 m 313 666 l 193 839 l 314 839 l 401 666 l 313 666 z "},"ở":{"ha":743,"x_min":52,"x_max":720,"o":"m 357 -12 q 238 12 293 -12 q 141 76 183 35 q 76 172 99 118 q 52 289 52 227 q 76 407 52 352 q 141 503 99 461 q 238 567 183 544 q 357 590 293 590 q 495 558 431 590 q 600 472 558 526 q 624 501 614 482 q 633 548 633 519 q 628 589 633 565 q 610 637 623 612 l 696 637 q 715 591 710 613 q 720 548 720 569 q 709 482 720 511 q 681 433 699 453 q 640 399 664 412 q 656 346 651 374 q 662 289 662 318 q 638 172 662 227 q 572 76 614 118 q 476 12 530 35 q 357 -12 421 -12 m 357 87 q 458 114 413 87 q 530 188 503 142 q 557 289 557 233 q 530 391 557 345 q 458 464 503 437 q 357 492 413 492 q 256 464 301 492 q 183 391 210 437 q 156 289 156 345 q 183 188 156 233 q 256 114 210 142 q 357 87 301 87 m 326 666 q 363 715 350 693 q 376 755 376 737 q 362 788 376 775 q 326 802 348 802 q 288 791 306 802 q 260 767 271 780 l 240 846 q 287 870 261 862 q 339 877 313 877 q 427 847 390 877 q 464 767 464 818 q 450 709 464 734 q 421 666 437 685 l 326 666 z "},"ỡ":{"ha":743,"x_min":52,"x_max":720,"o":"m 357 -12 q 238 12 293 -12 q 141 76 183 35 q 76 172 99 118 q 52 289 52 227 q 76 407 52 352 q 141 503 99 461 q 238 567 183 544 q 357 590 293 590 q 495 558 431 590 q 600 472 558 526 q 624 501 614 482 q 633 548 633 519 q 628 589 633 565 q 610 637 623 612 l 696 637 q 715 591 710 613 q 720 548 720 569 q 709 482 720 511 q 681 433 699 453 q 640 399 664 412 q 656 346 651 374 q 662 289 662 318 q 638 172 662 227 q 572 76 614 118 q 476 12 530 35 q 357 -12 421 -12 m 357 87 q 458 114 413 87 q 530 188 503 142 q 557 289 557 233 q 530 391 557 345 q 458 464 503 437 q 357 492 413 492 q 256 464 301 492 q 183 391 210 437 q 156 289 156 345 q 183 188 156 233 q 256 114 210 142 q 357 87 301 87 m 179 659 l 149 747 q 198 805 168 785 q 266 825 228 825 q 328 812 299 825 q 386 786 358 799 q 442 773 415 773 q 497 792 475 773 q 534 846 520 811 l 565 758 q 516 700 546 720 q 448 680 486 680 q 386 693 416 680 q 328 719 356 706 q 272 732 300 732 q 217 713 239 732 q 179 659 194 693 z "},"ő":{"ha":714,"x_min":52,"x_max":662,"o":"m 357 -12 q 238 12 293 -12 q 141 76 183 35 q 76 172 99 118 q 52 289 52 227 q 76 407 52 352 q 141 503 99 461 q 238 567 183 544 q 357 590 293 590 q 476 567 421 590 q 572 503 530 544 q 638 407 614 461 q 662 289 662 352 q 638 172 662 227 q 572 76 614 118 q 476 12 530 35 q 357 -12 421 -12 m 357 87 q 458 114 413 87 q 530 188 503 142 q 557 289 557 233 q 530 391 557 345 q 458 464 503 437 q 357 492 413 492 q 256 464 301 492 q 183 391 210 437 q 156 289 156 345 q 183 188 156 233 q 256 114 210 142 q 357 87 301 87 m 422 666 l 486 839 l 602 839 l 504 666 l 422 666 m 208 666 l 272 839 l 388 839 l 290 666 l 208 666 z "},"ȏ":{"ha":714,"x_min":52,"x_max":662,"o":"m 357 -12 q 238 12 293 -12 q 141 76 183 35 q 76 172 99 118 q 52 289 52 227 q 76 407 52 352 q 141 503 99 461 q 238 567 183 544 q 357 590 293 590 q 476 567 421 590 q 572 503 530 544 q 638 407 614 461 q 662 289 662 352 q 638 172 662 227 q 572 76 614 118 q 476 12 530 35 q 357 -12 421 -12 m 357 87 q 458 114 413 87 q 530 188 503 142 q 557 289 557 233 q 530 391 557 345 q 458 464 503 437 q 357 492 413 492 q 256 464 301 492 q 183 391 210 437 q 156 289 156 345 q 183 188 156 233 q 256 114 210 142 q 357 87 301 87 m 183 651 q 206 737 183 699 q 269 797 230 775 q 357 819 309 819 q 445 797 405 819 q 507 737 484 774 q 530 651 530 699 l 446 651 q 419 714 446 688 q 357 740 393 740 q 295 714 321 740 q 268 651 268 688 l 183 651 z "},"ō":{"ha":714,"x_min":52,"x_max":662,"o":"m 357 -12 q 238 12 293 -12 q 141 76 183 35 q 76 172 99 118 q 52 289 52 227 q 76 407 52 352 q 141 503 99 461 q 238 567 183 544 q 357 590 293 590 q 476 567 421 590 q 572 503 530 544 q 638 407 614 461 q 662 289 662 352 q 638 172 662 227 q 572 76 614 118 q 476 12 530 35 q 357 -12 421 -12 m 357 87 q 458 114 413 87 q 530 188 503 142 q 557 289 557 233 q 530 391 557 345 q 458 464 503 437 q 357 492 413 492 q 256 464 301 492 q 183 391 210 437 q 156 289 156 345 q 183 188 156 233 q 256 114 210 142 q 357 87 301 87 m 186 712 l 186 793 l 528 793 l 528 712 l 186 712 z "},"ǫ":{"ha":714,"x_min":52,"x_max":662,"o":"m 439 -301 q 328 -261 376 -301 q 280 -148 280 -221 q 293 -78 280 -112 q 330 -11 306 -43 q 221 19 271 -6 q 133 85 171 44 q 73 178 95 125 q 52 289 52 231 q 76 407 52 352 q 141 503 99 461 q 238 567 183 544 q 357 590 293 590 q 476 567 421 590 q 572 503 530 544 q 638 407 614 461 q 662 289 662 352 q 632 159 662 219 q 550 56 602 98 q 432 -3 499 14 q 391 -63 406 -34 q 376 -129 376 -93 q 400 -192 376 -174 q 460 -211 423 -211 l 439 -301 m 357 87 q 458 114 413 87 q 530 188 503 142 q 557 289 557 233 q 530 391 557 345 q 458 464 503 437 q 357 492 413 492 q 256 464 301 492 q 183 391 210 437 q 156 289 156 345 q 183 188 156 233 q 256 114 210 142 q 357 87 301 87 z "},"ø":{"ha":714,"x_min":52,"x_max":662,"o":"m 357 -12 q 270 1 312 -12 q 192 36 228 14 l 148 -17 l 89 34 l 132 86 q 73 178 95 125 q 52 289 52 231 q 76 407 52 352 q 141 503 99 461 q 238 567 183 544 q 357 590 293 590 q 443 579 402 590 q 518 545 483 567 l 560 595 l 619 544 l 579 496 q 639 402 617 455 q 662 289 662 349 q 638 172 662 227 q 572 76 614 118 q 476 12 530 35 q 357 -12 421 -12 m 195 160 l 456 472 q 410 491 435 484 q 357 498 385 498 q 253 470 300 498 q 178 394 205 442 q 150 289 150 347 q 162 220 150 253 q 195 160 174 187 m 357 81 q 461 109 414 81 q 535 184 507 137 q 563 289 563 231 q 551 361 563 327 q 516 421 538 394 l 254 109 q 302 88 276 95 q 357 81 329 81 z "},"ǿ":{"ha":714,"x_min":52,"x_max":662,"o":"m 357 -12 q 270 1 312 -12 q 192 36 228 14 l 148 -17 l 89 34 l 132 86 q 73 178 95 125 q 52 289 52 231 q 76 407 52 352 q 141 503 99 461 q 238 567 183 544 q 357 590 293 590 q 443 579 402 590 q 518 545 483 567 l 560 595 l 619 544 l 579 496 q 639 402 617 455 q 662 289 662 349 q 638 172 662 227 q 572 76 614 118 q 476 12 530 35 q 357 -12 421 -12 m 195 160 l 456 472 q 410 491 435 484 q 357 498 385 498 q 253 470 300 498 q 178 394 205 442 q 150 289 150 347 q 162 220 150 253 q 195 160 174 187 m 357 81 q 461 109 414 81 q 535 184 507 137 q 563 289 563 231 q 551 361 563 327 q 516 421 538 394 l 254 109 q 302 88 276 95 q 357 81 329 81 m 313 666 l 399 839 l 521 839 l 400 666 l 313 666 z "},"õ":{"ha":714,"x_min":52,"x_max":662,"o":"m 357 -12 q 238 12 293 -12 q 141 76 183 35 q 76 172 99 118 q 52 289 52 227 q 76 407 52 352 q 141 503 99 461 q 238 567 183 544 q 357 590 293 590 q 476 567 421 590 q 572 503 530 544 q 638 407 614 461 q 662 289 662 352 q 638 172 662 227 q 572 76 614 118 q 476 12 530 35 q 357 -12 421 -12 m 357 87 q 458 114 413 87 q 530 188 503 142 q 557 289 557 233 q 530 391 557 345 q 458 464 503 437 q 357 492 413 492 q 256 464 301 492 q 183 391 210 437 q 156 289 156 345 q 183 188 156 233 q 256 114 210 142 q 357 87 301 87 m 179 659 l 149 747 q 198 805 168 785 q 266 825 228 825 q 328 812 299 825 q 386 786 358 799 q 442 773 415 773 q 497 792 475 773 q 534 846 520 811 l 565 758 q 516 700 546 720 q 448 680 486 680 q 386 693 416 680 q 328 719 356 706 q 272 732 300 732 q 217 713 239 732 q 179 659 194 693 z "},"ȭ":{"ha":714,"x_min":52,"x_max":662,"o":"m 357 -12 q 238 12 293 -12 q 141 76 183 35 q 76 172 99 118 q 52 289 52 227 q 76 407 52 352 q 141 503 99 461 q 238 567 183 544 q 357 590 293 590 q 476 567 421 590 q 572 503 530 544 q 638 407 614 461 q 662 289 662 352 q 638 172 662 227 q 572 76 614 118 q 476 12 530 35 q 357 -12 421 -12 m 357 87 q 458 114 413 87 q 530 188 503 142 q 557 289 557 233 q 530 391 557 345 q 458 464 503 437 q 357 492 413 492 q 256 464 301 492 q 183 391 210 437 q 156 289 156 345 q 183 188 156 233 q 256 114 210 142 q 357 87 301 87 m 197 673 l 169 752 q 214 805 187 787 q 275 823 241 823 q 331 811 305 823 q 383 788 358 800 q 434 775 409 775 q 484 793 463 775 q 517 842 504 811 l 545 763 q 501 710 528 728 q 439 693 474 693 q 383 704 410 693 q 331 727 356 716 q 281 739 306 739 q 197 673 224 739 m 192 888 l 192 964 l 522 964 l 522 888 l 192 888 z "}}}
